<svg xmlns="http://www.w3.org/2000/svg" xmlns:xlink="http://www.w3.org/1999/xlink" xmlns:inkscape="http://www.inkscape.org/namespaces/inkscape" version="1.1" width="127" height="135" viewBox="0 0 127 135">
<defs>
<path id="font_1_43" d="M.4149933 .119140628C.4149933 .12911988 .40499879 .12911988 .4019928 .12911988 .3929901 .12911988 .3909912 .12512207 .3889923 .119140628 .3600006 .026229859 .29499818 .014251709 .2579956 .014251709 .20498657 .014251709 .116989139 .0572052 .116989139 .21801758 .116989139 .38093568 .19898987 .42323304 .2519989 .42323304 .26098634 .42323304 .32398988 .42222596 .35899354 .38594056 .31799317 .38293458 .31199647 .3529358 .31199647 .3399353 .31199647 .31393434 .32998658 .2939453 .35798646 .2939453 .38398744 .2939453 .4039917 .3109436 .4039917 .34094239 .4039917 .40911866 .32798768 .4482422 .25099183 .4482422 .12599182 .4482422 .033996583 .3399353 .033996583 .21601868 .033996583 .08816528 .1329956-.0107421879 .24899292-.0107421879 .3829956-.0107421879 .4149933 .10914612 .4149933 .119140628Z"/>
<path id="font_1_109" d="M.5349884 0V.0309906C.46499635 .0309906 .45700074 .037994386 .45700074 .08705139V.4423828L.30999757 .43066407V.3996582C.37998963 .3996582 .3880005 .39266969 .3880005 .34373475V.16601563C.3880005 .07910156 .33999635 .011245728 .2669983 .011245728 .18299866 .011245728 .1789856 .058135988 .1789856 .11009216V.4423828L.03199768 .43066407V.3996582C.10998535 .3996582 .10998535 .39666749 .10998535 .3078003V.15802002C.10998535 .080093387 .10998535-.0107421879 .2619934-.0107421879 .31799317-.0107421879 .3619995 .017242432 .3909912 .07910156V-.0107421879L.5349884 0Z"/>
<path id="font_1_105" d="M.33198548 .12385559V.18066406H.30699159V.12585449C.30699159 .052108766 .2769928 .014251709 .23999024 .014251709 .17298889 .014251709 .17298889 .10491943 .17298889 .12187195V.3996582H.31599427V.43066407H.17298889V.6142578H.147995C.14698792 .5324249 .116989139 .42565919 .018997193 .42166139V.3996582H.10398865V.12408447C.10398865 .0012512207 .19699097-.0107421879 .23298645-.0107421879 .3039856-.0107421879 .33198548 .060180665 .33198548 .12408447V.12385559Z"/>
<path id="font_1_64" d="M.27598573 .18710327V.24511719H.010986328V.18710327H.27598573Z"/>
<path id="font_1_81" d="M.47099305 .21424866C.47099305 .34223939 .37098695 .4482422 .25 .4482422 .125 .4482422 .027999878 .3392334 .027999878 .21424866 .027999878 .085250858 .13198853-.0107421879 .24899292-.0107421879 .36999513-.0107421879 .47099305 .087249759 .47099305 .21424866M.3880005 .22224427C.3880005 .18624878 .3880005 .13224793 .3659973 .08824158 .34399415 .04324341 .2999878 .014251709 .25 .014251709 .20698548 .014251709 .16299439 .035247804 .13598633 .08125305 .11099243 .12524414 .11099243 .18624878 .11099243 .22224427 .11099243 .26124574 .11099243 .31523133 .1349945 .35923768 .1619873 .40522767 .20899964 .426239 .24899292 .426239 .29299928 .426239 .33599855 .40423585 .3619995 .36123658 .3880005 .3182373 .3880005 .26023866 .3880005 .22224427Z"/>
</defs>
<path transform="matrix(1.00002,0,0,-1.00006,2.29467,115.39096)" d="M0 0V28.3468H56.69362V0ZM56.69362 28.3468" fill="#f39c6d"/>
<path transform="matrix(1.00002,0,0,-1.00006,2.29467,115.39096)" stroke-width=".3985" stroke-linecap="butt" stroke-miterlimit="10" stroke-linejoin="miter" fill="none" stroke="#000000" d="M0 0V28.3468H56.69362V0ZM56.69362 28.3468"/>
<path transform="matrix(1.00002,0,0,-1.00006,2.29467,115.39096)" d="M0 28.3468V56.69362H28.3468V28.3468ZM28.3468 56.69362" fill="#f39c6d"/>
<path transform="matrix(1.00002,0,0,-1.00006,2.29467,115.39096)" stroke-width=".3985" stroke-linecap="butt" stroke-miterlimit="10" stroke-linejoin="miter" fill="none" stroke="#000000" d="M0 28.3468V56.69362H28.3468V28.3468ZM28.3468 56.69362"/>
<path transform="matrix(1.00002,0,0,-1.00006,2.29467,115.39096)" d="M85.04042 0V56.69362H113.38724V0ZM113.38724 56.69362" fill="#7aa4c4"/>
<path transform="matrix(1.00002,0,0,-1.00006,2.29467,115.39096)" stroke-width=".3985" stroke-linecap="butt" stroke-miterlimit="10" stroke-linejoin="miter" fill="none" stroke="#000000" d="M85.04042 0V56.69362H113.38724V0ZM113.38724 56.69362"/>
<path transform="matrix(1.00002,0,0,-1.00006,2.29467,115.39096)" d="M56.69362 28.3468V56.69362H85.04042V28.3468ZM85.04042 56.69362" fill="#7aa4c4"/>
<path transform="matrix(1.00002,0,0,-1.00006,2.29467,115.39096)" stroke-width=".3985" stroke-linecap="butt" stroke-miterlimit="10" stroke-linejoin="miter" fill="none" stroke="#000000" d="M56.69362 28.3468V56.69362H85.04042V28.3468ZM85.04042 56.69362"/>
<path transform="matrix(1.00002,0,0,-1.00006,2.29467,115.39096)" d="M0 56.69362V113.38724H28.3468V56.69362ZM28.3468 113.38724" fill="#b6636b"/>
<path transform="matrix(1.00002,0,0,-1.00006,2.29467,115.39096)" stroke-width=".3985" stroke-linecap="butt" stroke-miterlimit="10" stroke-linejoin="miter" fill="none" stroke="#000000" d="M0 56.69362V113.38724H28.3468V56.69362ZM28.3468 113.38724"/>
<path transform="matrix(1.00002,0,0,-1.00006,2.29467,115.39096)" d="M28.3468 85.04042V113.38724H56.69362V85.04042ZM56.69362 113.38724" fill="#b6636b"/>
<path transform="matrix(1.00002,0,0,-1.00006,2.29467,115.39096)" stroke-width=".3985" stroke-linecap="butt" stroke-miterlimit="10" stroke-linejoin="miter" fill="none" stroke="#000000" d="M28.3468 85.04042V113.38724H56.69362V85.04042ZM56.69362 113.38724"/>
<path transform="matrix(1.00002,0,0,-1.00006,2.29467,115.39096)" d="M28.3468 28.3468V85.04042H56.69362V28.3468ZM56.69362 85.04042" fill="#6d465a"/>
<path transform="matrix(1.00002,0,0,-1.00006,2.29467,115.39096)" stroke-width=".3985" stroke-linecap="butt" stroke-miterlimit="10" stroke-linejoin="miter" fill="none" stroke="#000000" d="M28.3468 28.3468V85.04042H56.69362V28.3468ZM56.69362 85.04042"/>
<path transform="matrix(1.00002,0,0,-1.00006,2.29467,115.39096)" d="M56.69362 56.69362V85.04042H85.04042V56.69362ZM85.04042 85.04042" fill="#6d465a"/>
<path transform="matrix(1.00002,0,0,-1.00006,2.29467,115.39096)" stroke-width=".3985" stroke-linecap="butt" stroke-miterlimit="10" stroke-linejoin="miter" fill="none" stroke="#000000" d="M56.69362 56.69362V85.04042H85.04042V56.69362ZM85.04042 85.04042"/>
<path transform="matrix(1.00002,0,0,-1.00006,2.29467,115.39096)" d="M56.69362 85.04042V113.38724H113.38724V85.04042ZM113.38724 113.38724" fill="#629081"/>
<path transform="matrix(1.00002,0,0,-1.00006,2.29467,115.39096)" stroke-width=".3985" stroke-linecap="butt" stroke-miterlimit="10" stroke-linejoin="miter" fill="none" stroke="#000000" d="M56.69362 85.04042V113.38724H113.38724V85.04042ZM113.38724 113.38724"/>
<path transform="matrix(1.00002,0,0,-1.00006,2.29467,115.39096)" d="M85.04042 56.69362V85.04042H113.38724V56.69362ZM113.38724 85.04042" fill="#629081"/>
<path transform="matrix(1.00002,0,0,-1.00006,2.29467,115.39096)" stroke-width=".3985" stroke-linecap="butt" stroke-miterlimit="10" stroke-linejoin="miter" fill="none" stroke="#000000" d="M85.04042 56.69362V85.04042H113.38724V56.69362ZM113.38724 85.04042"/>
<path transform="matrix(1.00002,0,0,-1.00006,2.29467,115.39096)" stroke-width=".79701" stroke-linecap="butt" stroke-miterlimit="10" stroke-linejoin="miter" fill="none" stroke="#000000" d="M0 0H113.38724M0 28.3468H113.38724M0 56.69362H113.38724M0 85.04042H113.38724M0 113.37727H113.38724M0 0V113.38724M28.3468 0V113.38724M56.69362 0V113.38724M85.04042 0V113.38724M113.37727 0V113.38724M113.38724 113.38724"/>
<use data-text="c" xlink:href="#font_1_43" transform="matrix(9.962799,0,0,-9.963197,94.23851,132.57399)"/>
<use data-text="u" xlink:href="#font_1_109" transform="matrix(9.962799,0,0,-9.963197,98.66199,132.57399)"/>
<use data-text="t" xlink:href="#font_1_105" transform="matrix(9.962799,0,0,-9.963197,104.20131,132.57399)"/>
<use data-text="-" xlink:href="#font_1_64" transform="matrix(9.962799,0,0,-9.963197,108.076839,132.57399)"/>
<use data-text="o" xlink:href="#font_1_81" transform="matrix(9.962799,0,0,-9.963197,111.39445,132.57399)"/>
<use data-text="u" xlink:href="#font_1_109" transform="matrix(9.962799,0,0,-9.963197,116.37585,132.57399)"/>
<use data-text="t" xlink:href="#font_1_105" transform="matrix(9.962799,0,0,-9.963197,121.91516,132.57399)"/>
<path transform="matrix(1.00002,0,0,-1.00006,2.29467,115.39096)" stroke-width=".79701" stroke-linecap="butt" stroke-miterlimit="10" stroke-linejoin="miter" fill="none" stroke="#000000" d="M88.42209-14.17339C76.51672-14.17339 70.867-1.25179 70.867 9.85657"/>
<path transform="matrix(0,-1.00006,-1.00002,-0,73.163089,105.13528)" stroke-width=".79701" stroke-linecap="round" stroke-linejoin="round" fill="none" stroke="#000000" d="M-2.55046 3.11095C-2.0845 1.24435-1.04614 .36295 0 0-1.04614-.36295-2.0845-1.24435-2.55046-3.11095"/>
</svg>
