<svg xmlns="http://www.w3.org/2000/svg" xmlns:xlink="http://www.w3.org/1999/xlink" xmlns:inkscape="http://www.inkscape.org/namespaces/inkscape" version="1.1" width="111" height="132" viewBox="0 0 111 132">
<defs>
<path id="font_1_1" d="M.42199708 .38238526C.40098573 .41540528 .36698915 .44140626 .31900025 .44140626 .19099427 .44140626 .06098938 .300354 .06098938 .15628052 .06098938 .059249879 .12599182-.009765625 .21199036-.009765625 .2659912-.009765625 .31399537 .021224976 .35398866 .0602417 .37298585 .00022888184 .43099977-.009765625 .45700074-.009765625 .49299623-.009765625 .5179901 .01222229 .5359955 .04324341 .55799868 .08226013 .57099917 .13928223 .57099917 .14328003 .57099917 .15628052 .55799868 .15628052 .5549927 .15628052 .54100039 .15628052 .5399933 .15228272 .5329895 .12527466 .5209961 .07725525 .5019989 .018234253 .45999146 .018234253 .43399049 .018234253 .4269867 .040237428 .4269867 .06724548 .4269867 .08425903 .43499757 .120269779 .44198609 .14628601 .44898988 .17329407 .45899964 .21430969 .46398927 .23632813L.48399354 .3123474C.48999024 .33836366 .5019989 .38539125 .5019989 .39038087 .5019989 .4123993 .48399354 .4223938 .46798707 .4223938 .45098878 .4223938 .42799378 .4104004 .42199708 .38238526M.35798646 .12527466C.35099793 .09725952 .32899476 .07725525 .30699159 .058242799 .2979889 .050247194 .2579956 .018234253 .21499634 .018234253 .17799378 .018234253 .14199829 .04423523 .14199829 .11526489 .14199829 .16828919 .17098999 .27833558 .19400025 .31835938 .23999024 .39839173 .29100038 .4133911 .31900025 .4133911 .3889923 .4133911 .4079895 .33737184 .4079895 .32635499 .4079895 .32235719 .4059906 .3153534 .40499879 .3123474L.35798646 .12527466Z"/>
<path id="font_1_2" d="M.2639923 .66430667C.2649994 .66630557 .2679901 .67930606 .2679901 .68029788 .2679901 .68530276 .2639923 .6943054 .2519989 .6943054 .23199463 .6943054 .14898682 .6863098 .12399292 .6843109 .115997318 .68330386 .101989749 .682312 .101989749 .66130068 .101989749 .64730837 .115997318 .64730837 .12799073 .64730837 .17599488 .64730837 .17599488 .64030459 .17599488 .63230898 .17599488 .62532046 .1659851 .58532717 .1599884 .5623474L.13699341 .4703827C.12799073 .43640138 .07299805 .21731568 .070999149 .20431519 .06599426 .18029785 .06599426 .16729737 .06599426 .1552887 .06599426 .054244996 .12998963-.009765625 .21299744-.009765625 .33799745-.009765625 .47099305 .12626648 .47099305 .27433778 .47099305 .39138795 .3899994 .44140626 .32099916 .44140626 .2689972 .44140626 .22499085 .4123993 .19499207 .38638307L.2639923 .66430667M.21398926 .018234253C.16499329 .018234253 .13699341 .06124878 .13699341 .120269779 .13699341 .1572876 .1459961 .19129944 .17399597 .3043518 .17999268 .32336427 .17999268 .32536317 .19898987 .34736634 .23699951 .39138795 .28199769 .4133911 .31799317 .4133911 .35699464 .4133911 .3909912 .38438417 .3909912 .31636048 .3909912 .27534486 .36898805 .17329407 .33898927 .11526489 .31498719 .06625366 .2649994 .018234253 .21398926 .018234253Z"/>
<path id="font_1_3" d="M.43798829 .38304139C.4019928 .37702943 .3869934 .34902955 .3869934 .32702638 .3869934 .30003358 .4079895 .29003907 .42599488 .29003907 .44799806 .29003907 .48298646 .30603028 .48298646 .35403443 .48298646 .4223938 .40499879 .44140626 .35099793 .44140626 .20098877 .44140626 .06199646 .3030243 .06199646 .16412354 .06199646 .078186038 .12199402-.009765625 .24699402-.009765625 .41600038-.009765625 .49499513 .08917236 .49499513 .10316467 .49499513 .10916138 .48599244 .120147708 .47799684 .120147708 .47200013 .120147708 .46998597 .1181488 .46199037 .11016846 .38398744 .018234253 .2669983 .018234253 .24899292 .018234253 .1769867 .018234253 .14498902 .06718445 .14498902 .12915039 .14498902 .15812683 .15899658 .26704408 .21099854 .33602906 .24899292 .3850708 .30099488 .4133911 .35099793 .4133911 .36499024 .4133911 .41299439 .41137696 .43798829 .38304139Z"/>
<path id="font_1_4" d="M.57099917 .66430667C.57199099 .66630557 .57499697 .67930606 .57499697 .68029788 .57499697 .68530276 .57099917 .6943054 .5589905 .6943054 .5389862 .6943054 .45599366 .6863098 .43099977 .6843109 .4229889 .68330386 .40899659 .682312 .40899659 .66130068 .40899659 .64730837 .4229889 .64730837 .43499757 .64730837 .48298646 .64730837 .48298646 .64030459 .48298646 .63230898 .48298646 .62532046 .48098756 .61932376 .47898866 .61032107L.42199708 .38238526C.40098573 .41540528 .36698915 .44140626 .31900025 .44140626 .19099427 .44140626 .06098938 .300354 .06098938 .15628052 .06098938 .059249879 .12599182-.009765625 .21199036-.009765625 .2659912-.009765625 .31399537 .021224976 .35398866 .0602417 .37298585 .00022888184 .43099977-.009765625 .45700074-.009765625 .49299623-.009765625 .5179901 .01222229 .5359955 .04324341 .55799868 .08226013 .57099917 .13928223 .57099917 .14328003 .57099917 .15628052 .55799868 .15628052 .5549927 .15628052 .54100039 .15628052 .5399933 .15228272 .5329895 .12527466 .5209961 .07725525 .5019989 .018234253 .45999146 .018234253 .43399049 .018234253 .4269867 .040237428 .4269867 .06724548 .4269867 .086257938 .42900086 .09526062 .43199159 .10826111L.57099917 .66430667M.35798646 .12527466C.35099793 .09725952 .32899476 .07725525 .30699159 .058242799 .2979889 .050247194 .2579956 .018234253 .21499634 .018234253 .17799378 .018234253 .14199829 .04423523 .14199829 .11526489 .14199829 .16828919 .17098999 .27833558 .19400025 .31835938 .23999024 .39839173 .29100038 .4133911 .31900025 .4133911 .3889923 .4133911 .4079895 .33737184 .4079895 .32635499 .4079895 .32235719 .4059906 .3153534 .40499879 .3123474L.35798646 .12527466Z"/>
<path id="font_2_1" d="M.33499146 .63612368C.33499146 .6630554 .33299256 .6640625 .30499269 .6640625 .24099732 .6014404 .1499939 .6004486 .10899353 .6004486V.5644531C.1329956 .5644531 .19898987 .5644531 .2539978 .592453V.08203125C.2539978 .04899597 .2539978 .035995485 .1539917 .035995485H.115997318V0C.13398743 .0009918213 .25698854 .0039978029 .2939911 .0039978029 .32499696 .0039978029 .45098878 .0009918213 .47299195 0V.035995485H.43499757C.33499146 .035995485 .33499146 .04899597 .33499146 .08203125V.63612368Z"/>
<path id="font_2_2" d="M.5049896 .18203736H.47099305C.46798707 .16001892 .45799256 .100997928 .44499208 .09098816 .43699647 .084991458 .3600006 .084991458 .34599305 .084991458H.1619873C.2669983 .17803955 .3019867 .20603943 .3619995 .25306703 .43598939 .312088 .5049896 .374115 .5049896 .46914674 .5049896 .5900879 .39898683 .6640625 .2709961 .6640625 .14698792 .6640625 .06298828 .57710269 .06298828 .4851532 .06298828 .43414308 .10598755 .42915345 .115997318 .42915345 .13999939 .42915345 .16899109 .44615174 .16899109 .48214723 .16899109 .5001526 .1619873 .53515627 .10998535 .53515627 .14099121 .6060791 .20899964 .62805178 .2559967 .62805178 .35598756 .62805178 .4079895 .5501404 .4079895 .46914674 .4079895 .38212586 .34599305 .3130951 .31399537 .27708436L.07299805 .038986207C.06298828 .02999878 .06298828 .027999878 .06298828 0H.47499085L.5049896 .18203736Z"/>
<path id="font_2_3" d="M.272995 .33428956C.35099793 .33428956 .40699769 .2803192 .40699769 .1733551 .40699769 .04940796 .33499146 .012466431 .2769928 .012466431 .23699951 .012466431 .14898682 .0234375 .10699463 .082351688 .1539917 .084350589 .16499329 .11735535 .16499329 .13835144 .16499329 .17034912 .14099121 .19335938 .10998535 .19335938 .08198547 .19335938 .053985597 .17634583 .053985597 .13534546 .053985597 .041412355 .1579895-.01953125 .2789917-.01953125 .41799928-.01953125 .5139923 .07336426 .5139923 .1733551 .5139923 .2513275 .44999696 .32929994 .33999635 .35229493 .44499208 .39024354 .48298646 .4650879 .48298646 .5260773 .48298646 .60505679 .3919983 .6640625 .2809906 .6640625 .16999817 .6640625 .084991458 .61006167 .084991458 .5300751 .084991458 .49606324 .10699463 .47706605 .13699341 .47706605 .16799927 .47706605 .18798828 .5000763 .18798828 .5280762 .18798828 .5570679 .16799927 .57806399 .13699341 .5800781 .17199707 .62405398 .24099732 .63505557 .27799989 .63505557 .32299806 .63505557 .38598634 .6130676 .38598634 .5260773 .38598634 .48406983 .37199403 .43814088 .34599305 .4072113 .31298829 .36927796 .2849884 .3672943 .23498535 .36428834 .20999146 .3623047 .20799256 .3623047 .20298767 .3612976 .20098877 .3612976 .19299317 .3592987 .19299317 .34829713 .19299317 .33428956 .20199585 .33428956 .21899414 .33428956H.272995Z"/>
<path id="font_2_4" d="M.5289917 .1640625V.20005799H.41799928V.64582827C.41799928 .66682437 .41799928 .6738281 .3959961 .6738281 .38398744 .6738281 .37998963 .6738281 .36999513 .65982058L.038986207 .20005799V.1640625H.33299256V.08201599C.33299256 .04800415 .33299256 .035995485 .2519989 .035995485H.22499085V0C.2749939 .0019989014 .33898927 .0039978029 .375 .0039978029 .4119873 .0039978029 .47599793 .0019989014 .526001 0V.035995485H.49899293C.41799928 .035995485 .41799928 .04800415 .41799928 .08201599V.1640625H.5289917M.33999635 .5658722V.20005799H.07598877L.33999635 .5658722Z"/>
<path id="font_3_1" d="M.4850006 .41075135 .40098573 .6096344C.397995 .61763 .3959961 .6216278 .3959961 .6226196 .3959961 .62861636 .41299439 .6476135 .45498658 .6516113 .46499635 .65260317 .47499085 .6536102 .47499085 .6706085 .47499085 .6826172 .46299745 .6826172 .45999146 .6826172 .4189911 .6826172 .37599183 .6796112 .33399964 .6796112 .30899049 .6796112 .24699402 .6826172 .22200012 .6826172 .21598816 .6826172 .20399475 .6826172 .20399475 .6626129 .20399475 .6516113 .21398926 .6516113 .22698975 .6516113 .2869873 .6516113 .29299928 .6416168 .3019867 .6196289L.41999818 .34080506 .20899964 .11393738 .19599915 .10295105C.14698792 .049987794 .099990848 .033996583 .04899597 .0309906 .035995485 .02999878 .026992798 .02999878 .026992798 .010986328 .026992798 .009994507 .026992798 0 .039993287 0 .069992069 0 .102996829 .0029907227 .13398743 .0029907227 .17098999 .0029907227 .20999146 0 .24598694 0 .2519989 0 .2639923 0 .2639923 .019989014 .2639923 .02999878 .2539978 .0309906 .2519989 .0309906 .24299622 .03199768 .21199036 .033996583 .21199036 .061965944 .21199036 .07795715 .22698975 .093948367 .23899842 .10694885L.34098817 .21487427 .43099977 .31282044 .5319977 .07395935C.5359955 .06297302 .5369873 .061965944 .5369873 .05996704 .5369873 .051986696 .5179901 .034988405 .47898866 .0309906 .46798707 .02999878 .45899964 .0289917 .45899964 .011993408 .45899964 0 .46998597 0 .47399903 0 .5019989 0 .57199099 .0029907227 .59999087 .0029907227 .625 .0029907227 .6859894 0 .71099856 0 .71798709 0 .7299957 0 .7299957 .018997193 .7299957 .0309906 .7200012 .0309906 .71199038 .0309906 .644989 .03199768 .6429901 .034988405 .6259918 .07496643 .58699038 .16790772 .519989 .32380677 .49699403 .3837738 .5649872 .45373536 .66999819 .5726471 .70199587 .6006317 .73098757 .62461856 .7689972 .64860537 .82899478 .6516113 .84199526 .65260317 .8509979 .65260317 .8509979 .6716156 .8509979 .6726074 .8509979 .6826172 .83799746 .6826172 .80799868 .6826172 .7749939 .6796112 .74398806 .6796112 .70700076 .6796112 .6689911 .6826172 .6329956 .6826172 .6269989 .6826172 .6139984 .6826172 .6139984 .6626129 .6139984 .65560916 .61898806 .65260317 .6259918 .6516113 .6349945 .65060427 .66600039 .64860537 .66600039 .6206207 .66600039 .6066284 .6549988 .5936432 .6469879 .5846405L.4850006 .41075135Z"/>
<path id="font_3_2" d="M.5970001 .5686493 .61099246 .5826416C.6409912 .6126251 .673996 .64660647 .74198916 .6516113 .7529907 .65260317 .7619934 .65260317 .7619934 .6706085 .7619934 .6786041 .7569885 .6826172 .7489929 .6826172 .72299197 .6826172 .69400027 .6796112 .6669922 .6796112 .6339874 .6796112 .598999 .6826172 .5669861 .6826172 .5609894 .6826172 .5479889 .6826172 .5479889 .66360476 .5479889 .65260317 .55799868 .6516113 .5629883 .6516113 .56999209 .6516113 .598999 .6496124 .598999 .62861636 .598999 .6116333 .57598879 .5856476 .57199099 .5806427L.33999635 .31381227 .22999573 .6106262C.22399903 .62461856 .22399903 .62661746 .22399903 .6276245 .22399903 .6516113 .272995 .6516113 .2829895 .6516113 .29699708 .6516113 .30699159 .6516113 .30699159 .6716156 .30699159 .6826172 .29499818 .6826172 .2919922 .6826172 .2639923 .6826172 .19400025 .6796112 .1659851 .6796112 .14099121 .6796112 .07899475 .6826172 .053985597 .6826172 .04798889 .6826172 .034988405 .6826172 .034988405 .6626129 .034988405 .6516113 .04499817 .6516113 .057998659 .6516113 .117996219 .6516113 .12199402 .64260867 .1309967 .61763L.2539978 .28883363C.25498963 .28582765 .2579956 .2748413 .2579956 .27183534 .2579956 .2688446 .21798706 .107940677 .21299744 .08995056 .19999695 .034988405 .19898987 .03199768 .11898804 .0309906 .099990848 .0309906 .09199524 .0309906 .09199524 .010986328 .09199524 0 .10398865 0 .10598755 0 .13398743 0 .20399475 .0029907227 .23199463 .0029907227 .2599945 .0029907227 .33198548 0 .3600006 0 .36698915 0 .3789978 0 .3789978 .019989014 .3789978 .0309906 .36999513 .0309906 .35099793 .0309906 .34899903 .0309906 .32998658 .0309906 .31298829 .032989503 .2919922 .034988405 .28599549 .036987306 .28599549 .048980714 .28599549 .05596924 .29499818 .09095764 .2999878 .11193848L.33499146 .2528534C.33999635 .27183534 .34098817 .2748413 .34899903 .28382875L.5970001 .5686493Z"/>
<path id="font_3_3" d="M.36698915 .3996582H.45298768C.47299195 .3996582 .48298646 .3996582 .48298646 .41966249 .48298646 .43066407 .47299195 .43066407 .45599366 .43066407H.37298585L.3939972 .5449524C.397995 .5660095 .4119873 .6370239 .41799928 .6490326 .4269867 .66804507 .44400025 .68307498 .46499635 .68307498 .46899415 .68307498 .49499513 .68307498 .5139923 .66503909 .46998597 .661026 .45999146 .6260376 .45999146 .6110382 .45999146 .58802798 .47799684 .57603457 .49699403 .57603457 .522995 .57603457 .5519867 .5980377 .5519867 .6360321 .5519867 .6820679 .5059967 .7050781 .46499635 .7050781 .43099977 .7050781 .36799623 .68707278 .33799745 .58802798 .33198548 .56700137 .32899476 .5569763 .30499269 .43066407H.23599243C.21699524 .43066407 .20599365 .43066407 .20599365 .4116516 .20599365 .3996582 .21499634 .3996582 .23399353 .3996582H.2999878L.22499085 .0048828127C.20698548-.09207153 .18998719-.18309021 .13798523-.18309021 .13398743-.18309021 .10899353-.18309021 .08999634-.16506958 .13598633-.1620636 .14498902-.12606812 .14498902-.111068729 .14498902-.08807373 .1269989-.07606506 .10798645-.07606506 .08198547-.07606506 .052993776-.09806824 .052993776-.13606262 .052993776-.18109131 .09700012-.20507813 .13798523-.20507813 .19299317-.20507813 .23298645-.14607239 .25099183-.108062747 .2829895-.04508972 .30599977 .07583618 .30699159 .082839969L.36698915 .3996582Z"/>
</defs>
<path transform="matrix(1.00005,0,0,-1.00003,20.52208,148.35309)" d="M7.08669 113.38724C7.08669 117.30115 3.91391 120.47392 0 120.47392-3.91391 120.47392-7.08669 117.30115-7.08669 113.38724-7.08669 109.47331-3.91391 106.30054 0 106.30054 3.91391 106.30054 7.08669 109.47331 7.08669 113.38724ZM0 113.38724" fill="#adadad"/>
<path transform="matrix(1.00005,0,0,-1.00003,20.52208,148.35309)" stroke-width=".3985" stroke-linecap="butt" stroke-miterlimit="10" stroke-linejoin="miter" fill="none" stroke="#000000" d="M7.08669 113.38724C7.08669 117.30115 3.91391 120.47392 0 120.47392-3.91391 120.47392-7.08669 117.30115-7.08669 113.38724-7.08669 109.47331-3.91391 106.30054 0 106.30054 3.91391 106.30054 7.08669 109.47331 7.08669 113.38724ZM0 113.38724"/>
<use data-text="a" xlink:href="#font_1_1" transform="matrix(6.9741489,0,0,-6.9740097,18.36097,36.463724)"/>
<path transform="matrix(1.00005,0,0,-1.00003,20.52208,148.35309)" d="M7.08669 85.04042C7.08669 88.95435 3.91391 92.1271 0 92.1271-3.91391 92.1271-7.08669 88.95435-7.08669 85.04042-7.08669 81.12651-3.91391 77.95374 0 77.95374 3.91391 77.95374 7.08669 81.12651 7.08669 85.04042ZM0 85.04042" fill="#adadad"/>
<path transform="matrix(1.00005,0,0,-1.00003,20.52208,148.35309)" stroke-width=".3985" stroke-linecap="butt" stroke-miterlimit="10" stroke-linejoin="miter" fill="none" stroke="#000000" d="M7.08669 85.04042C7.08669 88.95435 3.91391 92.1271 0 92.1271-3.91391 92.1271-7.08669 88.95435-7.08669 85.04042-7.08669 81.12651-3.91391 77.95374 0 77.95374 3.91391 77.95374 7.08669 81.12651 7.08669 85.04042ZM0 85.04042"/>
<use data-text="b" xlink:href="#font_1_2" transform="matrix(6.9741489,0,0,-6.9740097,18.769989,65.731609)"/>
<path transform="matrix(1.00005,0,0,-1.00003,20.52208,148.35309)" d="M7.08669 56.69362C7.08669 60.60753 3.91391 63.7803 0 63.7803-3.91391 63.7803-7.08669 60.60753-7.08669 56.69362-7.08669 52.7797-3.91391 49.60692 0 49.60692 3.91391 49.60692 7.08669 52.7797 7.08669 56.69362ZM0 56.69362" fill="#adadad"/>
<path transform="matrix(1.00005,0,0,-1.00003,20.52208,148.35309)" stroke-width=".3985" stroke-linecap="butt" stroke-miterlimit="10" stroke-linejoin="miter" fill="none" stroke="#000000" d="M7.08669 56.69362C7.08669 60.60753 3.91391 63.7803 0 63.7803-3.91391 63.7803-7.08669 60.60753-7.08669 56.69362-7.08669 52.7797-3.91391 49.60692 0 49.60692 3.91391 49.60692 7.08669 52.7797 7.08669 56.69362ZM0 56.69362"/>
<use data-text="c" xlink:href="#font_1_3" transform="matrix(6.9741489,0,0,-6.9740097,18.74199,93.159427)"/>
<path transform="matrix(1.00005,0,0,-1.00003,20.52208,148.35309)" d="M7.08669 28.3468C7.08669 32.26071 3.91391 35.43349 0 35.43349-3.91391 35.43349-7.08669 32.26071-7.08669 28.3468-7.08669 24.43289-3.91391 21.26012 0 21.26012 3.91391 21.26012 7.08669 24.43289 7.08669 28.3468ZM0 28.3468" fill="#adadad"/>
<path transform="matrix(1.00005,0,0,-1.00003,20.52208,148.35309)" stroke-width=".3985" stroke-linecap="butt" stroke-miterlimit="10" stroke-linejoin="miter" fill="none" stroke="#000000" d="M7.08669 28.3468C7.08669 32.26071 3.91391 35.43349 0 35.43349-3.91391 35.43349-7.08669 32.26071-7.08669 28.3468-7.08669 24.43289-3.91391 21.26012 0 21.26012 3.91391 21.26012 7.08669 24.43289 7.08669 28.3468ZM0 28.3468"/>
<use data-text="d" xlink:href="#font_1_4" transform="matrix(6.9741489,0,0,-6.9740097,18.447976,122.42731)"/>
<path transform="matrix(1.00005,0,0,-1.00003,20.52208,148.35309)" d="M77.9537 113.38724C77.9537 117.30115 74.78093 120.47392 70.867 120.47392 66.9531 120.47392 63.78032 117.30115 63.78032 113.38724 63.78032 109.47331 66.9531 106.30054 70.867 106.30054 74.78093 106.30054 77.9537 109.47331 77.9537 113.38724ZM70.867 113.38724" fill="#adadad"/>
<path transform="matrix(1.00005,0,0,-1.00003,20.52208,148.35309)" stroke-width=".3985" stroke-linecap="butt" stroke-miterlimit="10" stroke-linejoin="miter" fill="none" stroke="#000000" d="M77.9537 113.38724C77.9537 117.30115 74.78093 120.47392 70.867 120.47392 66.9531 120.47392 63.78032 117.30115 63.78032 113.38724 63.78032 109.47331 66.9531 106.30054 70.867 106.30054 74.78093 106.30054 77.9537 109.47331 77.9537 113.38724ZM70.867 113.38724"/>
<use data-text="1" xlink:href="#font_2_1" transform="matrix(6.9741489,0,0,-6.9740097,89.40652,37.209749)"/>
<path transform="matrix(1.00005,0,0,-1.00003,20.52208,148.35309)" d="M77.9537 85.04042C77.9537 88.95435 74.78093 92.1271 70.867 92.1271 66.9531 92.1271 63.78032 88.95435 63.78032 85.04042 63.78032 81.12651 66.9531 77.95374 70.867 77.95374 74.78093 77.95374 77.9537 81.12651 77.9537 85.04042ZM70.867 85.04042" fill="#adadad"/>
<path transform="matrix(1.00005,0,0,-1.00003,20.52208,148.35309)" stroke-width=".3985" stroke-linecap="butt" stroke-miterlimit="10" stroke-linejoin="miter" fill="none" stroke="#000000" d="M77.9537 85.04042C77.9537 88.95435 74.78093 92.1271 70.867 92.1271 66.9531 92.1271 63.78032 88.95435 63.78032 85.04042 63.78032 81.12651 66.9531 77.95374 70.867 77.95374 74.78093 77.95374 77.9537 81.12651 77.9537 85.04042ZM70.867 85.04042"/>
<use data-text="2" xlink:href="#font_2_2" transform="matrix(6.9741489,0,0,-6.9740097,89.40652,65.5576)"/>
<path transform="matrix(1.00005,0,0,-1.00003,20.52208,148.35309)" d="M77.9537 56.69362C77.9537 60.60753 74.78093 63.7803 70.867 63.7803 66.9531 63.7803 63.78032 60.60753 63.78032 56.69362 63.78032 52.7797 66.9531 49.60692 70.867 49.60692 74.78093 49.60692 77.9537 52.7797 77.9537 56.69362ZM70.867 56.69362" fill="#adadad"/>
<path transform="matrix(1.00005,0,0,-1.00003,20.52208,148.35309)" stroke-width=".3985" stroke-linecap="butt" stroke-miterlimit="10" stroke-linejoin="miter" fill="none" stroke="#000000" d="M77.9537 56.69362C77.9537 60.60753 74.78093 63.7803 70.867 63.7803 66.9531 63.7803 63.78032 60.60753 63.78032 56.69362 63.78032 52.7797 66.9531 49.60692 70.867 49.60692 74.78093 49.60692 77.9537 52.7797 77.9537 56.69362ZM70.867 56.69362"/>
<use data-text="3" xlink:href="#font_2_3" transform="matrix(6.9741489,0,0,-6.9740097,89.40652,93.90546)"/>
<path transform="matrix(1.00005,0,0,-1.00003,20.52208,148.35309)" d="M77.9537 28.3468C77.9537 32.26071 74.78093 35.43349 70.867 35.43349 66.9531 35.43349 63.78032 32.26071 63.78032 28.3468 63.78032 24.43289 66.9531 21.26012 70.867 21.26012 74.78093 21.26012 77.9537 24.43289 77.9537 28.3468ZM70.867 28.3468" fill="#adadad"/>
<path transform="matrix(1.00005,0,0,-1.00003,20.52208,148.35309)" stroke-width=".3985" stroke-linecap="butt" stroke-miterlimit="10" stroke-linejoin="miter" fill="none" stroke="#000000" d="M77.9537 28.3468C77.9537 32.26071 74.78093 35.43349 70.867 35.43349 66.9531 35.43349 63.78032 32.26071 63.78032 28.3468 63.78032 24.43289 66.9531 21.26012 70.867 21.26012 74.78093 21.26012 77.9537 24.43289 77.9537 28.3468ZM70.867 28.3468"/>
<use data-text="4" xlink:href="#font_2_4" transform="matrix(6.9741489,0,0,-6.9740097,89.40652,122.252307)"/>
<path transform="matrix(1.00005,0,0,-1.00003,20.52208,148.35309)" stroke-width=".3985" stroke-linecap="butt" stroke-miterlimit="10" stroke-linejoin="miter" fill="none" stroke="#000000" d="M6.76453 110.68147 64.10248 87.74617"/>
<path transform="matrix(1.00005,0,0,-1.00003,20.52208,148.35309)" stroke-width=".3985" stroke-linecap="butt" stroke-miterlimit="10" stroke-linejoin="miter" fill="none" stroke="#000000" d="M5.68901 80.48917 65.178 32.89806"/>
<path transform="matrix(1.00005,0,0,-1.00003,20.52208,148.35309)" stroke-width=".3985" stroke-linecap="butt" stroke-miterlimit="10" stroke-linejoin="miter" fill="none" stroke="#000000" d="M6.76453 53.98785 64.10248 31.05255"/>
<path transform="matrix(1.00005,0,0,-1.00003,20.52208,148.35309)" stroke-width=".3985" stroke-linecap="butt" stroke-miterlimit="10" stroke-linejoin="miter" fill="none" stroke="#000000" d="M4.6641 33.94377 66.20291 107.79025"/>
<path transform="matrix(1.00005,0,0,-1.00003,20.52208,148.35309)" stroke-width=".3985" stroke-linecap="butt" stroke-miterlimit="10" stroke-linejoin="miter" fill="none" stroke="#7f807f" d="M14.44035 123.99373H-14.44035C-16.6413 123.99373-18.42546 122.20956-18.42546 120.00862V21.7254C-18.42546 19.52446-16.6413 17.7403-14.44035 17.7403H14.44035C16.6413 17.7403 18.42546 19.52446 18.42546 21.7254V120.00862C18.42546 122.20956 16.6413 123.99373 14.44035 123.99373ZM-18.42546 17.7403"/>
<path transform="matrix(1.00005,0,0,-1.00003,20.52208,148.35309)" stroke-width=".3985" stroke-linecap="butt" stroke-miterlimit="10" stroke-linejoin="miter" fill="none" stroke="#7f807f" d="M85.30737 123.99373H56.42665C54.22571 123.99373 52.44154 122.20956 52.44154 120.00862V21.7254C52.44154 19.52446 54.22571 17.7403 56.42665 17.7403H85.30737C87.50832 17.7403 89.29248 19.52446 89.29248 21.7254V120.00862C89.29248 122.20956 87.50832 123.99373 85.30737 123.99373ZM52.44154 17.7403"/>
<use data-text="X" xlink:href="#font_3_1" transform="matrix(9.963098,0,0,-9.962899,16.003853,21.357277)"/>
<use data-text="Y" xlink:href="#font_3_2" transform="matrix(9.963098,0,0,-9.962899,87.39342,21.357277)"/>
<path transform="matrix(1.00005,0,0,-1.00003,20.52208,148.35309)" stroke-width=".3985" stroke-linecap="butt" stroke-miterlimit="10" stroke-linejoin="miter" fill="none" stroke="#000000" d="M8.03764 135.0322C26.84782 145.75679 44.65533 145.6606 63.34825 134.73285"/>
<use data-text="f" xlink:href="#font_3_3" transform="matrix(9.963098,0,0,-9.962899,53.285718,7.83786)"/>
</svg>
