<svg xmlns="http://www.w3.org/2000/svg" xmlns:xlink="http://www.w3.org/1999/xlink" xmlns:inkscape="http://www.inkscape.org/namespaces/inkscape" version="1.1" width="144" height="127" viewBox="0 0 144 127">
<defs>
<path id="font_1_3" d="M.46199037 .33935548C.46699525 .36135865 .47698976 .3983612 .47698976 .40437318 .47698976 .42237855 .46299745 .43138124 .44799806 .43138124 .43598939 .43138124 .41799928 .42337037 .41099549 .4033661 .4079895 .3963623 .36099244 .205307 .35398866 .17930603 .34700013 .14929199 .34498597 .13128662 .34498597 .11328125 .34498597 .10227966 .34498597 .10028076 .34599305 .09527588 .32299806 .042266847 .29299928 .011245728 .2539978 .011245728 .17399597 .011245728 .17399597 .08526611 .17399597 .10227966 .17399597 .1342926 .1789856 .17329407 .22599793 .29634095 .23699951 .32633973 .24299622 .3403473 .24299622 .36035157 .24299622 .405365 .20999146 .4423828 .16099549 .4423828 .06599426 .4423828 .0289917 .29733277 .0289917 .28833009 .0289917 .27833558 .038986207 .27833558 .040985109 .27833558 .050994874 .27833558 .051986696 .28033448 .056991579 .29634095 .083999637 .38935853 .12298584 .42037965 .1579895 .42037965 .16699219 .42037965 .18299866 .41937257 .18299866 .38735963 .18299866 .36235047 .17199707 .3343506 .16499329 .31733705 .12098694 .1993103 .10899353 .1532898 .10899353 .11528015 .10899353 .024261475 .17599488-.0107421879 .25099183-.0107421879 .2679901-.0107421879 .31498719-.0107421879 .35499574 .059265138 .3809967-.0047454836 .44999696-.0107421879 .47999574-.0107421879 .5549927-.0107421879 .598999 .052261354 .625 .11227417 .6589966 .19030762 .69099429 .32434083 .69099429 .37236024 .69099429 .42736817 .6639862 .4423828 .6469879 .4423828 .621994 .4423828 .5970001 .41636659 .5970001 .3943634 .5970001 .38136292 .6029968 .3753662 .6119995 .36735536 .6230011 .35635377 .647995 .33035279 .647995 .28233338 .647995 .24832154 .61898806 .15029907 .59298709 .09927368 .5669861 .04626465 .5319977 .011245728 .48298646 .011245728 .43598939 .011245728 .40899659 .041259767 .40899659 .09828186 .40899659 .12628174 .41600038 .1572876 .41999818 .17129517L.46199037 .33935548Z"/>
<path id="font_2_1" d="M.33099366-.2400055C.33099366-.23701477 .33099366-.23500061 .31399537-.21800232 .18899536-.0920105 .15699768 .09700012 .15699768 .25 .15699768 .42399598 .19499207 .59799197 .31799317 .72299197 .33099366 .73498538 .33099366 .7369995 .33099366 .73999026 .33099366 .746994 .32699586 .75 .32099916 .75 .31098939 .75 .22099304 .6819916 .1619873 .5549927 .11099243 .44499208 .09899902 .33399964 .09899902 .25 .09899902 .17199707 .10998535 .050994874 .16499329-.06201172 .22499085-.18501282 .31098939-.25 .32099916-.25 .32699586-.25 .33099366-.24700928 .33099366-.2400055Z"/>
<path id="font_2_3" d="M.2939911 .64004519C.2939911 .66400149 .2939911 .6660156 .2709961 .6660156 .20899964 .60227969 .12098694 .60227969 .08898926 .60227969V.57128909C.10899353 .57128909 .16799927 .57128909 .21998596 .5972748V.07902527C.21998596 .042999269 .21699524 .0309906 .1269989 .0309906H.09498596V0C.12998963 .0029907227 .21699524 .0029907227 .25698854 .0029907227 .29699708 .0029907227 .38398744 .0029907227 .4189911 0V.0309906H.3869934C.29699708 .0309906 .2939911 .041992189 .2939911 .07902527V.64004519Z"/>
<path id="font_2_2" d="M.2889862 .25C.2889862 .32798768 .27799989 .44898988 .22299195 .56199648 .16299439 .68499758 .07699585 .75 .066986087 .75 .06098938 .75 .056991579 .74598696 .056991579 .73999026 .056991579 .7369995 .056991579 .73498538 .07598877 .71699526 .17399597 .6179962 .23098755 .45899964 .23098755 .25 .23098755 .07899475 .19400025-.09700012 .069992069-.2230072 .056991579-.23500061 .056991579-.23701477 .056991579-.2400055 .056991579-.2460022 .06098938-.25 .066986087-.25 .07699585-.25 .16699219-.18200684 .22599793-.055007936 .2769928 .054992677 .2889862 .16600037 .2889862 .25Z"/>
<path id="font_2_4" d="M.1269989 .07699585 .23298645 .18003845C.3889923 .31811524 .44898988 .3721466 .44898988 .47216798 .44898988 .5860901 .35899354 .6660156 .23699951 .6660156 .12399292 .6660156 .049987794 .57411196 .049987794 .48516847 .049987794 .4291687 .099990848 .4291687 .102996829 .4291687 .11999512 .4291687 .15499878 .44117738 .15499878 .48217774 .15499878 .5081787 .13699341 .5341797 .101989749 .5341797 .09399414 .5341797 .09199524 .5341797 .08898926 .5331726 .11199951 .59806826 .1659851 .63500979 .22399903 .63500979 .31498719 .63500979 .35798646 .5541382 .35798646 .47216798 .35798646 .39215089 .30799867 .31311036 .25299073 .25108338L.06098938 .036987306C.049987794 .025985718 .049987794 .023986817 .049987794 0H.42099L.44898988 .17404175H.42399598C.4189911 .14402771 .4119873 .1000061 .4019928 .084991458 .394989 .07699585 .32899476 .07699585 .30699159 .07699585H.1269989Z"/>
<path id="font_2_5" d="M.2899933 .35191346C.37199403 .37893678 .42999269 .4490509 .42999269 .52809146 .42999269 .6100464 .34199525 .6660156 .24598694 .6660156 .14498902 .6660156 .068984989 .60606387 .068984989 .53009036 .068984989 .49710084 .09098816 .47808839 .11999512 .47808839 .15098572 .47808839 .17098999 .50009158 .17098999 .5290985 .17098999 .57910159 .12399292 .57910159 .10899353 .57910159 .13999939 .62802127 .20599365 .64100649 .24198914 .64100649 .2829895 .64100649 .33799745 .6190338 .33799745 .5290985 .33799745 .51708987 .33599855 .45906068 .30999757 .4149933 .27999879 .36691285 .24598694 .36390687 .22099304 .36291505 .21299744 .36190797 .18899536 .35990907 .18199158 .35990907 .17399597 .35890199 .16699219 .35791017 .16699219 .3479004 .16699219 .33691407 .17399597 .33691407 .19099427 .33691407H.23498535C.31698609 .33691407 .35398866 .2686615 .35398866 .17037964 .35398866 .034469606 .2849884 .0055389406 .24099732 .0055389406 .19799805 .0055389406 .12298584 .022491456 .08799744 .08137512 .12298584 .07637024 .1539917 .09837341 .1539917 .1363678 .1539917 .17237854 .1269989 .19238281 .09799194 .19238281 .07398987 .19238281 .041992189 .17837525 .041992189 .1343689 .041992189 .043441774 .1349945-.022460938 .24398804-.022460938 .3659973-.022460938 .45700074 .06838989 .45700074 .17037964 .45700074 .252594 .3939972 .33088685 .2899933 .35191346Z"/>
<path id="font_3_2" d="M.19198609 .2502594C.19198609 .2792511 .16799927 .30325318 .13899231 .30325318 .10998535 .30325318 .085998538 .2792511 .085998538 .2502594 .085998538 .22125244 .10998535 .19726563 .13899231 .19726563 .16799927 .19726563 .19198609 .22125244 .19198609 .2502594Z"/>
<path id="font_1_1" d="M.28399659 .6252594C.28399659 .6452637 .269989 .6612549 .24699402 .6612549 .21998596 .6612549 .19299317 .6352539 .19299317 .6082611 .19299317 .5892639 .20698548 .5722656 .23098755 .5722656 .2539978 .5722656 .28399659 .5952606 .28399659 .6252594M.20799256 .24932862C.21998596 .27833558 .21998596 .28033448 .22999573 .30734254 .23799134 .3273468 .24299622 .34135438 .24299622 .36035157 .24299622 .405365 .21099854 .4423828 .16099549 .4423828 .066986087 .4423828 .0289917 .29733277 .0289917 .28833009 .0289917 .27833558 .038986207 .27833558 .040985109 .27833558 .050994874 .27833558 .051986696 .28033448 .056991579 .29634095 .083999637 .3903656 .12399292 .42037965 .1579895 .42037965 .1659851 .42037965 .18299866 .42037965 .18299866 .3883667 .18299866 .36735536 .17599488 .346344 .17199707 .3363495 .1639862 .31033326 .11898804 .19430542 .102996829 .1512909 .09298706 .12528992 .07998657 .0922699 .07998657 .0712738 .07998657 .024261475 .11399841-.0107421879 .1619873-.0107421879 .2559967-.0107421879 .29299928 .1342926 .29299928 .14329529 .29299928 .1532898 .28399659 .1532898 .2809906 .1532898 .2709961 .1532898 .2709961 .15029907 .2659912 .13528443 .24798584 .072265628 .21499634 .011245728 .1639862 .011245728 .14698792 .011245728 .13999939 .021255494 .13999939 .044265748 .13999939 .0692749 .1459961 .08326721 .16899109 .14428711L.20799256 .24932862Z"/>
<path id="font_1_2" d="M.08799744 .059265138C.084991458 .044265748 .07899475 .021255494 .07899475 .01625061 .07899475-.0017547608 .09298706-.0107421879 .10798645-.0107421879 .11999512-.0107421879 .13798523-.002746582 .14498902 .01725769 .1459961 .019256592 .1579895 .06626892 .1639862 .091278079L.18598938 .18130493C.19198609 .2033081 .19799805 .22531128 .20298767 .24832154 .20698548 .26531983 .21499634 .29434205 .21598816 .29833985 .23098755 .3293457 .28399659 .42037965 .3789978 .42037965 .42399598 .42037965 .43299867 .38336183 .43299867 .35035707 .43299867 .28833009 .38398744 .16029358 .36799623 .11727905 .35899354 .0942688 .35798646 .08227539 .35798646 .0712738 .35798646 .024261475 .3929901-.0107421879 .43998719-.0107421879 .5339966-.0107421879 .57099917 .13528443 .57099917 .14329529 .57099917 .1532898 .56199648 .1532898 .5589905 .1532898 .548996 .1532898 .548996 .15029907 .5439911 .13528443 .5239868 .06726074 .4909973 .011245728 .44198609 .011245728 .4249878 .011245728 .41799928 .021255494 .41799928 .044265748 .41799928 .0692749 .4269867 .09327698 .43598939 .11528015 .45498658 .16830445 .49699403 .27833558 .49699403 .3353424 .49699403 .40237428 .45399476 .4423828 .38198854 .4423828 .2919922 .4423828 .24299622 .37835694 .22599793 .35534669 .22099304 .41137696 .17999268 .4423828 .13398743 .4423828 .08799744 .4423828 .068984989 .4033661 .05899048 .38536073 .042999269 .35134889 .0289917 .29232789 .0289917 .28833009 .0289917 .27833558 .038986207 .27833558 .040985109 .27833558 .050994874 .27833558 .051986696 .2793274 .057998659 .30133058 .07499695 .37236024 .09498596 .42037965 .1309967 .42037965 .15098572 .42037965 .1619873 .4073639 .1619873 .37435914 .1619873 .35334779 .15899658 .3423462 .1459961 .29032899L.08799744 .059265138Z"/>
<path id="font_3_1" d="M.6589966 .23046875C.6759949 .23046875 .69400027 .23046875 .69400027 .25045777 .69400027 .27046205 .6759949 .27046205 .6589966 .27046205H.117996219C.100997928 .27046205 .08299255 .27046205 .08299255 .25045777 .08299255 .23046875 .100997928 .23046875 .117996219 .23046875H.6589966Z"/>
</defs>
<use data-text="w" xlink:href="#font_1_3" transform="matrix(9.9626,0,0,-9.963197,66.989,9.39278)"/>
<use data-text="(" xlink:href="#font_2_1" transform="matrix(9.9626,0,0,-9.963197,74.38899,9.39278)"/>
<use data-text="1" xlink:href="#font_2_3" transform="matrix(9.9626,0,0,-9.963197,78.254489,9.39278)"/>
<use data-text=")" xlink:href="#font_2_2" transform="matrix(9.9626,0,0,-9.963197,83.23578,9.39278)"/>
<use data-text="w" xlink:href="#font_1_3" transform="matrix(9.9626,0,0,-9.963197,107.077,25.998776)"/>
<use data-text="(" xlink:href="#font_2_1" transform="matrix(9.9626,0,0,-9.963197,114.477,25.998776)"/>
<use data-text="2" xlink:href="#font_2_4" transform="matrix(9.9626,0,0,-9.963197,118.34249,25.998776)"/>
<use data-text=")" xlink:href="#font_2_2" transform="matrix(9.9626,0,0,-9.963197,123.323787,25.998776)"/>
<use data-text="w" xlink:href="#font_1_3" transform="matrix(9.9626,0,0,-9.963197,123.682,66.09018)"/>
<use data-text="(" xlink:href="#font_2_1" transform="matrix(9.9626,0,0,-9.963197,131.082,66.09018)"/>
<use data-text="3" xlink:href="#font_2_5" transform="matrix(9.9626,0,0,-9.963197,134.94748,66.09018)"/>
<use data-text=")" xlink:href="#font_2_2" transform="matrix(9.9626,0,0,-9.963197,139.92877,66.09018)"/>
<use data-text="&#x00b7;" xlink:href="#font_3_2" transform="matrix(7.044654,-7.045076,-7.044654,-7.045076,114.01232,109.95161)"/>
<use data-text="&#x00b7;" xlink:href="#font_3_2" transform="matrix(7.044654,-7.045076,-7.044654,-7.045076,117.13311,106.830638)"/>
<use data-text="&#x00b7;" xlink:href="#font_3_2" transform="matrix(7.044654,-7.045076,-7.044654,-7.045076,120.26093,103.702617)"/>
<use data-text="w" xlink:href="#font_1_3" transform="matrix(9.9626,0,0,-9.963197,67.763,122.786579)"/>
<use data-text="(" xlink:href="#font_2_1" transform="matrix(9.9626,0,0,-9.963197,75.162998,122.786579)"/>
<use data-text="i" xlink:href="#font_1_1" transform="matrix(9.9626,0,0,-9.963197,79.03699,122.786579)"/>
<use data-text=")" xlink:href="#font_2_2" transform="matrix(9.9626,0,0,-9.963197,82.469989,122.786579)"/>
<use data-text="&#x00b7;" xlink:href="#font_3_2" transform="matrix(7.044654,7.045076,7.044654,-7.045076,30.703934,100.5603)"/>
<use data-text="&#x00b7;" xlink:href="#font_3_2" transform="matrix(7.044654,7.045076,7.044654,-7.045076,33.824724,103.681278)"/>
<use data-text="&#x00b7;" xlink:href="#font_3_2" transform="matrix(7.044654,7.045076,7.044654,-7.045076,36.952554,106.809299)"/>
<use data-text="w" xlink:href="#font_1_3" transform="matrix(9.9626,0,0,-9.963197,1.2169952,66.09018)"/>
<use data-text="(" xlink:href="#font_2_1" transform="matrix(9.9626,0,0,-9.963197,8.616989,66.09018)"/>
<use data-text="n" xlink:href="#font_1_2" transform="matrix(9.9626,0,0,-9.963197,12.490982,66.09018)"/>
<use data-text="&#x2212;" xlink:href="#font_3_1" transform="matrix(9.9626,0,0,-9.963197,20.684983,66.09018)"/>
<use data-text="1" xlink:href="#font_2_3" transform="matrix(9.9626,0,0,-9.963197,30.64798,66.09018)"/>
<use data-text=")" xlink:href="#font_2_2" transform="matrix(9.9626,0,0,-9.963197,35.629274,66.09018)"/>
<use data-text="w" xlink:href="#font_1_3" transform="matrix(9.9626,0,0,-9.963197,26.401001,25.998776)"/>
<use data-text="(" xlink:href="#font_2_1" transform="matrix(9.9626,0,0,-9.963197,33.800996,25.998776)"/>
<use data-text="n" xlink:href="#font_1_2" transform="matrix(9.9626,0,0,-9.963197,37.674989,25.998776)"/>
<use data-text=")" xlink:href="#font_2_2" transform="matrix(9.9626,0,0,-9.963197,43.654985,25.998776)"/>
<path transform="matrix(1,0,0,-1.00006,77.054,63.59903)" stroke-width=".3985" stroke-linecap="butt" stroke-miterlimit="10" stroke-linejoin="miter" fill="none" stroke="#000000" d="M13.58522 53.68227C18.99986 52.61484 22.02365 51.4446 26.74672 48.58968"/>
<path transform="matrix(1,0,0,-1.00006,77.054,63.59903)" stroke-width=".3985" stroke-linecap="butt" stroke-miterlimit="10" stroke-linejoin="miter" fill="none" stroke="#000000" d="M45.50381 31.58727C50.64862 23.33875 52.79575 18.01189 54.80922 8.50119"/>
<path transform="matrix(1,0,0,-1.00006,77.054,63.59903)" stroke-width=".3985" stroke-linecap="butt" stroke-miterlimit="10" stroke-linejoin="miter" fill="none" stroke="#000000" d="M54.80922-8.50119C53.02193-17.46838 51.06586-22.49168 46.31946-30.30684"/>
<path transform="matrix(1,0,0,-1.00006,77.054,63.59903)" stroke-width=".3985" stroke-linecap="butt" stroke-miterlimit="10" stroke-linejoin="miter" fill="none" stroke="#000000" d="M30.30684-46.31946C24.0968-50.3983 20.04123-52.14496 12.81068-53.85396"/>
<path transform="matrix(1,0,0,-1.00006,77.054,63.59903)" stroke-width=".3985" stroke-linecap="butt" stroke-miterlimit="10" stroke-linejoin="miter" fill="none" stroke="#000000" d="M-12.81068-53.85396C-20.04123-52.14496-24.0968-50.3983-30.30684-46.31946"/>
<path transform="matrix(1,0,0,-1.00006,77.054,63.59903)" stroke-width=".3985" stroke-linecap="butt" stroke-miterlimit="10" stroke-linejoin="miter" fill="none" stroke="#000000" d="M-46.31946-30.30684C-51.06586-22.49168-53.02193-17.46838-54.80922-8.50119"/>
<path transform="matrix(1,0,0,-1.00006,77.054,63.59903)" stroke-width=".3985" stroke-linecap="butt" stroke-miterlimit="10" stroke-linejoin="miter" fill="none" stroke="#000000" d="M-54.80922 8.50119C-52.79575 18.01189-50.64862 23.33875-45.50381 31.58727"/>
<path transform="matrix(1,0,0,-1.00006,77.054,63.59903)" stroke-width=".3985" stroke-linecap="butt" stroke-miterlimit="10" stroke-linejoin="miter" fill="none" stroke="#000000" d="M-26.74672 48.58968C-22.02365 51.4446-18.99986 52.61484-13.58522 53.68227"/>
</svg>
