<svg xmlns="http://www.w3.org/2000/svg" xmlns:xlink="http://www.w3.org/1999/xlink" xmlns:inkscape="http://www.inkscape.org/namespaces/inkscape" version="1.1" width="75" height="74" viewBox="0 0 75 74">
<defs>
<path id="font_1_1" d="M.2639923 .66430667C.2649994 .66630557 .2679901 .67930606 .2679901 .68029788 .2679901 .68530276 .2639923 .6943054 .2519989 .6943054 .23199463 .6943054 .14898682 .6863098 .12399292 .6843109 .115997318 .68330386 .101989749 .682312 .101989749 .66130068 .101989749 .64730837 .115997318 .64730837 .12799073 .64730837 .17599488 .64730837 .17599488 .64030459 .17599488 .63230898 .17599488 .62532046 .1659851 .58532717 .1599884 .5623474L.13699341 .4703827C.12799073 .43640138 .07299805 .21731568 .070999149 .20431519 .06599426 .18029785 .06599426 .16729737 .06599426 .1552887 .06599426 .054244996 .12998963-.009765625 .21299744-.009765625 .33799745-.009765625 .47099305 .12626648 .47099305 .27433778 .47099305 .39138795 .3899994 .44140626 .32099916 .44140626 .2689972 .44140626 .22499085 .4123993 .19499207 .38638307L.2639923 .66430667M.21398926 .018234253C.16499329 .018234253 .13699341 .06124878 .13699341 .120269779 .13699341 .1572876 .1459961 .19129944 .17399597 .3043518 .17999268 .32336427 .17999268 .32536317 .19898987 .34736634 .23699951 .39138795 .28199769 .4133911 .31799317 .4133911 .35699464 .4133911 .3909912 .38438417 .3909912 .31636048 .3909912 .27534486 .36898805 .17329407 .33898927 .11526489 .31498719 .06625366 .2649994 .018234253 .21398926 .018234253Z"/>
<path id="font_2_1" d="M.397995 .63591006C.397995 .6660156 .394989 .6660156 .3619995 .6660156 .29100038 .6016083 .17999268 .6016083 .1599884 .6016083H.14299011V.5576172H.1599884C.18299866 .5576172 .24798584 .5606079 .30599977 .58561709V.08596802C.30599977 .054977418 .30599977 .04399109 .19999695 .04399109H.1499939V0C.20498657 .0039978029 .2939911 .0039978029 .35198976 .0039978029 .4099884 .0039978029 .49899293 .0039978029 .55400088 0V.04399109H.5039978C.397995 .04399109 .397995 .054977418 .397995 .08596802V.63591006Z"/>
<path id="font_2_2" d="M.58898928 .19296265H.5469971C.5439911 .17396546 .5339966 .11198425 .5179901 .101989749 .5099945 .09599304 .42599488 .09599304 .41099549 .09599304H.21499634C.2809906 .14497376 .35499574 .20095825 .4149933 .24093628 .5049896 .30291749 .58898928 .36090089 .58898928 .46687318 .58898928 .59495547 .46798707 .6660156 .32499696 .6660156 .18998719 .6660156 .09098816 .58795168 .09098816 .48986817 .09098816 .4378662 .1349945 .42886354 .14898682 .42886354 .17599488 .42886354 .20799256 .4468689 .20799256 .48786927 .20799256 .52386477 .18199158 .543869 .15098572 .546875 .1789856 .59194949 .23699951 .6220093 .3039856 .6220093 .40098573 .6220093 .48199464 .5639038 .48199464 .4658661 .48199464 .3818817 .42399598 .31791688 .34700013 .2529297L.102996829 .04598999C.09298706 .036987306 .09199524 .036987306 .09098816 .02999878V0H.55599978L.58898928 .19296265Z"/>
<path id="font_2_3" d="M.32998658 .3310547C.42199708 .3310547 .48298646 .2737732 .48298646 .17437744 .48298646 .07237244 .41999818 .01852417 .33099366 .01852417 .31999208 .01852417 .20098877 .01852417 .1499939 .070373538 .19099427 .07637024 .20298767 .1073761 .20298767 .13137818 .20298767 .16838074 .1749878 .19238281 .14199829 .19238281 .10998535 .19238281 .07998657 .17137146 .07998657 .12937927 .07998657 .025512696 .19799805-.022460938 .33399964-.022460938 .49798585-.022460938 .59999087 .07637024 .59999087 .17337036 .59999087 .25567628 .5269928 .3260193 .41299439 .35205079 .5329895 .3909912 .5649872 .46684266 .5649872 .5228424 .5649872 .60491946 .46299745 .6660156 .33699037 .6660156 .21398926 .6660156 .114990238 .61395266 .114990238 .5238342 .114990238 .47683717 .15299988 .46484376 .17199707 .46484376 .20098877 .46484376 .22898865 .48583985 .22898865 .5218353 .22898865 .5448303 .21699524 .5728302 .18099976 .57884219 .22399903 .625 .31298829 .628006 .33399964 .628006 .40699769 .628006 .45899964 .5908661 .45899964 .5228424 .45899964 .46484376 .42099 .37402345 .31599427 .368042 .28799439 .3670349 .28399659 .3660431 .2579956 .365036 .24699402 .3640442 .23599243 .36305238 .23599243 .34805299 .23599243 .3310547 .24598694 .3310547 .2639923 .3310547H.32998658Z"/>
<path id="font_2_4" d="M.61698916 .1630249V.20703125H.49198915V.64675906C.49198915 .67074587 .4909973 .6767578 .46499635 .6767578 .44499208 .6767578 .44400025 .67575076 .43299867 .66174319L.06298828 .20703125V.1630249H.3959961V.085006717C.3959961 .054000856 .3959961 .04399109 .30899049 .04399109H.27398683V0C.32099916 .0019989014 .38598634 .0039978029 .44400025 .0039978029 .5019989 .0039978029 .56599429 .0019989014 .6139984 0V.04399109H.57899478C.49198915 .04399109 .49198915 .054000856 .49198915 .085006717V.1630249H.61698916M.4039917 .5688019V.20703125H.10998535L.4039917 .5688019Z"/>
<path id="font_2_5" d="M.19599915 .55078127C.24899292 .53778079 .2939911 .53778079 .30499269 .53778079 .37298585 .53778079 .4229889 .55778506 .44898988 .57177737 .47299195 .583786 .54100039 .6267853 .54100039 .64878848 .54100039 .66378787 .5299988 .66578677 .5269928 .66578677 .5249939 .66578677 .522995 .66578677 .5119934 .66078189 .47399903 .6477814 .4119873 .63378909 .34599305 .63378909 .2889862 .63378909 .23399353 .64378359 .18099976 .66178897 .16999817 .66578677 .16799927 .66578677 .1659851 .66578677 .1519928 .66578677 .1519928 .6537781 .1519928 .63778689V.33763124C.1519928 .32061769 .1519928 .30760194 .17098999 .30760194 .18199158 .30760194 .18299866 .30960084 .19198609 .32061769 .22999573 .36468507 .2829895 .38671876 .35099793 .38671876 .40899659 .38671876 .44099427 .35266114 .45498658 .33163453 .47799684 .2975769 .48298646 .2525177 .48298646 .20446778 .48298646 .16246033 .47898866 .10646057 .43998719 .067489627 .394989 .021530152 .33799745 .01852417 .31599427 .01852417 .25099183 .01852417 .17799378 .04650879 .14698792 .10546875 .18899536 .10845947 .20298767 .13845825 .20298767 .1614685 .20298767 .19346619 .1789856 .21746826 .14698792 .21746826 .125 .21746826 .09098816 .20446778 .09098816 .15846253 .09098816 .0605011 .18699646-.022460938 .31799317-.022460938 .46699525-.022460938 .58898928 .07748413 .58898928 .20146179 .58898928 .3146057 .49198915 .41970826 .35299684 .41970826 .2899933 .41970826 .23899842 .40371705 .19599915 .37068177V.55078127Z"/>
<path id="font_2_6" d="M.18598938 .32769776C.18699646 .37371827 .18798828 .4528656 .22399903 .51808169 .25299073 .5720825 .31799317 .628006 .41099549 .628006 .42999269 .628006 .47499085 .6260071 .5049896 .6020813 .4889984 .5980835 .46299745 .5830841 .46299745 .5490875 .46299745 .51708987 .4869995 .49609376 .5159912 .49609376 .5329895 .49609376 .56900027 .5050812 .56900027 .5520935 .56900027 .6060791 .5309906 .6660156 .4099884 .6660156 .23799134 .6660156 .07998657 .52508547 .07998657 .317688 .07998657 .078567508 .19699097-.022460938 .34298707-.022460938 .44198609-.022460938 .4889984 .014526367 .522995 .042541505 .58699038 .095565799 .59999087 .15460205 .59999087 .20463562 .59999087 .26565553 .5799866 .314682 .5279999 .36071778 .48399354 .40072633 .43798829 .42773438 .35099793 .42773438 .29299928 .42773438 .22799683 .39971925 .18598938 .32769776M.34298707 .01852417C.18899536 .01852417 .18899536 .18461609 .18899536 .2266388 .18899536 .30368043 .24398804 .39372254 .34899903 .39372254 .3999939 .39372254 .43199159 .38072206 .46299745 .34069825 .49299623 .30368043 .49398805 .2616577 .49398805 .20562744 .49398805 .14759827 .49398805 .109573367 .46199037 .06956482 .43399049 .0365448 .39898683 .01852417 .34298707 .01852417Z"/>
</defs>
<path transform="matrix(1.00003,0,0,-1,9.182709,65.578998)" d="M7.08669 0C7.08669 3.91391 3.91391 7.08669 0 7.08669-3.91391 7.08669-7.08669 3.91391-7.08669 0-7.08669-3.91391-3.91391-7.08669 0-7.08669 3.91391-7.08669 7.08669-3.91391 7.08669 0ZM0 0" fill="#adadad"/>
<path transform="matrix(1.00003,0,0,-1,9.182709,65.578998)" stroke-width=".3985" stroke-linecap="butt" stroke-miterlimit="10" stroke-linejoin="miter" fill="none" stroke="#000000" d="M7.08669 0C7.08669 3.91391 3.91391 7.08669 0 7.08669-3.91391 7.08669-7.08669 3.91391-7.08669 0-7.08669-3.91391-3.91391-7.08669 0-7.08669 3.91391-7.08669 7.08669-3.91391 7.08669 0ZM0 0"/>
<use data-text="b" xlink:href="#font_1_1" transform="matrix(6.9740097,0,0,-6.9738,5.486595,67.502)"/>
<use data-text="1" xlink:href="#font_2_1" transform="matrix(4.9814498,0,0,-4.9813,8.9907,68.49799)"/>
<path transform="matrix(1.00003,0,0,-1,9.182709,65.578998)" d="M7.08669 28.3468C7.08669 32.26071 3.91391 35.43349 0 35.43349-3.91391 35.43349-7.08669 32.26071-7.08669 28.3468-7.08669 24.43289-3.91391 21.26012 0 21.26012 3.91391 21.26012 7.08669 24.43289 7.08669 28.3468ZM0 28.3468" fill="#adadad"/>
<path transform="matrix(1.00003,0,0,-1,9.182709,65.578998)" stroke-width=".3985" stroke-linecap="butt" stroke-miterlimit="10" stroke-linejoin="miter" fill="none" stroke="#000000" d="M7.08669 28.3468C7.08669 32.26071 3.91391 35.43349 0 35.43349-3.91391 35.43349-7.08669 32.26071-7.08669 28.3468-7.08669 24.43289-3.91391 21.26012 0 21.26012 3.91391 21.26012 7.08669 24.43289 7.08669 28.3468ZM0 28.3468"/>
<use data-text="b" xlink:href="#font_1_1" transform="matrix(6.9740097,0,0,-6.9738,5.486595,39.155996)"/>
<use data-text="2" xlink:href="#font_2_2" transform="matrix(4.9814498,0,0,-4.9813,8.9907,40.151994)"/>
<path transform="matrix(1.00003,0,0,-1,9.182709,65.578998)" d="M7.08669 56.69362C7.08669 60.60753 3.91391 63.7803 0 63.7803-3.91391 63.7803-7.08669 60.60753-7.08669 56.69362-7.08669 52.7797-3.91391 49.60692 0 49.60692 3.91391 49.60692 7.08669 52.7797 7.08669 56.69362ZM0 56.69362" fill="#adadad"/>
<path transform="matrix(1.00003,0,0,-1,9.182709,65.578998)" stroke-width=".3985" stroke-linecap="butt" stroke-miterlimit="10" stroke-linejoin="miter" fill="none" stroke="#000000" d="M7.08669 56.69362C7.08669 60.60753 3.91391 63.7803 0 63.7803-3.91391 63.7803-7.08669 60.60753-7.08669 56.69362-7.08669 52.7797-3.91391 49.60692 0 49.60692 3.91391 49.60692 7.08669 52.7797 7.08669 56.69362ZM0 56.69362"/>
<use data-text="b" xlink:href="#font_1_1" transform="matrix(6.9740097,0,0,-6.9738,5.486595,10.808994)"/>
<use data-text="3" xlink:href="#font_2_3" transform="matrix(4.9814498,0,0,-4.9813,8.9907,11.804993)"/>
<path transform="matrix(1.00003,0,0,-1,9.182709,65.578998)" d="M63.7803 0C63.7803 3.91391 60.60753 7.08669 56.69362 7.08669 52.7797 7.08669 49.60692 3.91391 49.60692 0 49.60692-3.91391 52.7797-7.08669 56.69362-7.08669 60.60753-7.08669 63.7803-3.91391 63.7803 0ZM56.69362 0" fill="#adadad"/>
<path transform="matrix(1.00003,0,0,-1,9.182709,65.578998)" stroke-width=".3985" stroke-linecap="butt" stroke-miterlimit="10" stroke-linejoin="miter" fill="none" stroke="#000000" d="M63.7803 0C63.7803 3.91391 60.60753 7.08669 56.69362 7.08669 52.7797 7.08669 49.60692 3.91391 49.60692 0 49.60692-3.91391 52.7797-7.08669 56.69362-7.08669 60.60753-7.08669 63.7803-3.91391 63.7803 0ZM56.69362 0"/>
<use data-text="b" xlink:href="#font_1_1" transform="matrix(6.9740097,0,0,-6.9738,62.1823,67.502)"/>
<use data-text="4" xlink:href="#font_2_4" transform="matrix(4.9814498,0,0,-4.9813,65.6864,68.49799)"/>
<path transform="matrix(1.00003,0,0,-1,9.182709,65.578998)" d="M63.7803 28.3468C63.7803 32.26071 60.60753 35.43349 56.69362 35.43349 52.7797 35.43349 49.60692 32.26071 49.60692 28.3468 49.60692 24.43289 52.7797 21.26012 56.69362 21.26012 60.60753 21.26012 63.7803 24.43289 63.7803 28.3468ZM56.69362 28.3468" fill="#adadad"/>
<path transform="matrix(1.00003,0,0,-1,9.182709,65.578998)" stroke-width=".3985" stroke-linecap="butt" stroke-miterlimit="10" stroke-linejoin="miter" fill="none" stroke="#000000" d="M63.7803 28.3468C63.7803 32.26071 60.60753 35.43349 56.69362 35.43349 52.7797 35.43349 49.60692 32.26071 49.60692 28.3468 49.60692 24.43289 52.7797 21.26012 56.69362 21.26012 60.60753 21.26012 63.7803 24.43289 63.7803 28.3468ZM56.69362 28.3468"/>
<use data-text="b" xlink:href="#font_1_1" transform="matrix(6.9740097,0,0,-6.9738,62.1823,39.155996)"/>
<use data-text="5" xlink:href="#font_2_5" transform="matrix(4.9814498,0,0,-4.9813,65.6864,40.151994)"/>
<path transform="matrix(1.00003,0,0,-1,9.182709,65.578998)" d="M63.7803 56.69362C63.7803 60.60753 60.60753 63.7803 56.69362 63.7803 52.7797 63.7803 49.60692 60.60753 49.60692 56.69362 49.60692 52.7797 52.7797 49.60692 56.69362 49.60692 60.60753 49.60692 63.7803 52.7797 63.7803 56.69362ZM56.69362 56.69362" fill="#adadad"/>
<path transform="matrix(1.00003,0,0,-1,9.182709,65.578998)" stroke-width=".3985" stroke-linecap="butt" stroke-miterlimit="10" stroke-linejoin="miter" fill="none" stroke="#000000" d="M63.7803 56.69362C63.7803 60.60753 60.60753 63.7803 56.69362 63.7803 52.7797 63.7803 49.60692 60.60753 49.60692 56.69362 49.60692 52.7797 52.7797 49.60692 56.69362 49.60692 60.60753 49.60692 63.7803 52.7797 63.7803 56.69362ZM56.69362 56.69362"/>
<use data-text="b" xlink:href="#font_1_1" transform="matrix(6.9740097,0,0,-6.9738,62.1823,10.808994)"/>
<use data-text="6" xlink:href="#font_2_6" transform="matrix(4.9814498,0,0,-4.9813,65.6864,11.804993)"/>
<path transform="matrix(1.00003,0,0,-1,9.182709,65.578998)" stroke-width=".79701" stroke-linecap="butt" stroke-miterlimit="10" stroke-linejoin="miter" fill="none" stroke="#000000" d="M0 7.28593V21.06085M0 35.63275V49.40767M7.28593 56.69362H49.40767M56.69362 49.40767V35.63275M56.69362 21.06085V7.28593M49.40767 0H7.28593"/>
<path transform="matrix(1.00003,0,0,-1,9.182709,65.578998)" stroke-width=".79701" stroke-linecap="butt" stroke-miterlimit="10" stroke-linejoin="miter" fill="none" stroke="#000000" d="M5.15193 5.15193 51.54167 51.54167"/>
</svg>
