<svg xmlns="http://www.w3.org/2000/svg" xmlns:xlink="http://www.w3.org/1999/xlink" xmlns:inkscape="http://www.inkscape.org/namespaces/inkscape" version="1.1" width="103" height="74" viewBox="0 0 103 74">
<defs>
<path id="font_1_6" d="M.40699769 .39465333H.5049896C.5249939 .39465333 .5379944 .39465333 .5379944 .4166565 .5379944 .43066407 .5249939 .43066407 .5069885 .43066407H.4139862C.43699647 .5580139 .44499208 .6040497 .45298768 .63305667 .45799256 .6550598 .47999574 .6760864 .5039978 .6760864 .5049896 .6760864 .5319977 .6760864 .5509949 .6640625 .5099945 .651062 .5069885 .61505129 .5069885 .60905459 .5069885 .5870514 .5239868 .572052 .5469971 .572052 .57398989 .572052 .60398867 .59506228 .60398867 .63305667 .60398867 .6790924 .5549927 .70410159 .5039978 .70410159 .45999146 .70410159 .41099549 .6790924 .38398744 .62905886 .3639984 .5920563 .35598756 .5469818 .33499146 .43066407H.2559967C.23599243 .43066407 .22299195 .43066407 .22299195 .4086609 .22299195 .39465333 .23599243 .39465333 .2539978 .39465333H.32798768C.32699586 .38865663 .2639923 .028869629 .23999024-.078063968 .23498535-.10006714 .21798706-.17610169 .16999817-.17610169 .16899109-.17610169 .14498902-.17610169 .12599182-.1640625 .16699219-.15107727 .16999817-.11506653 .16999817-.109069827 .16999817-.08706665 .15299988-.07206726 .12998963-.07206726 .102996829-.07206726 .07299805-.095077518 .07299805-.1330719 .07299805-.17811585 .11999512-.20410156 .16999817-.20410156 .23399353-.20410156 .27799989-.13807678 .2899933-.11607361 .32598878-.049087526 .34899903 .07385254 .35099793 .08584595L.40699769 .39465333Z"/>
<path id="font_1_3" d="M.43798829 .38304139C.4019928 .37702943 .3869934 .34902955 .3869934 .32702638 .3869934 .30003358 .4079895 .29003907 .42599488 .29003907 .44799806 .29003907 .48298646 .30603028 .48298646 .35403443 .48298646 .4223938 .40499879 .44140626 .35099793 .44140626 .20098877 .44140626 .06199646 .3030243 .06199646 .16412354 .06199646 .078186038 .12199402-.009765625 .24699402-.009765625 .41600038-.009765625 .49499513 .08917236 .49499513 .10316467 .49499513 .10916138 .48599244 .120147708 .47799684 .120147708 .47200013 .120147708 .46998597 .1181488 .46199037 .11016846 .38398744 .018234253 .2669983 .018234253 .24899292 .018234253 .1769867 .018234253 .14498902 .06718445 .14498902 .12915039 .14498902 .15812683 .15899658 .26704408 .21099854 .33602906 .24899292 .3850708 .30099488 .4133911 .35099793 .4133911 .36499024 .4133911 .41299439 .41137696 .43798829 .38304139Z"/>
<path id="font_1_4" d="M.57099917 .66430667C.57199099 .66630557 .57499697 .67930606 .57499697 .68029788 .57499697 .68530276 .57099917 .6943054 .5589905 .6943054 .5389862 .6943054 .45599366 .6863098 .43099977 .6843109 .4229889 .68330386 .40899659 .682312 .40899659 .66130068 .40899659 .64730837 .4229889 .64730837 .43499757 .64730837 .48298646 .64730837 .48298646 .64030459 .48298646 .63230898 .48298646 .62532046 .48098756 .61932376 .47898866 .61032107L.42199708 .38238526C.40098573 .41540528 .36698915 .44140626 .31900025 .44140626 .19099427 .44140626 .06098938 .300354 .06098938 .15628052 .06098938 .059249879 .12599182-.009765625 .21199036-.009765625 .2659912-.009765625 .31399537 .021224976 .35398866 .0602417 .37298585 .00022888184 .43099977-.009765625 .45700074-.009765625 .49299623-.009765625 .5179901 .01222229 .5359955 .04324341 .55799868 .08226013 .57099917 .13928223 .57099917 .14328003 .57099917 .15628052 .55799868 .15628052 .5549927 .15628052 .54100039 .15628052 .5399933 .15228272 .5329895 .12527466 .5209961 .07725525 .5019989 .018234253 .45999146 .018234253 .43399049 .018234253 .4269867 .040237428 .4269867 .06724548 .4269867 .086257938 .42900086 .09526062 .43199159 .10826111L.57099917 .66430667M.35798646 .12527466C.35099793 .09725952 .32899476 .07725525 .30699159 .058242799 .2979889 .050247194 .2579956 .018234253 .21499634 .018234253 .17799378 .018234253 .14199829 .04423523 .14199829 .11526489 .14199829 .16828919 .17098999 .27833558 .19400025 .31835938 .23999024 .39839173 .29100038 .4133911 .31900025 .4133911 .3889923 .4133911 .4079895 .33737184 .4079895 .32635499 .4079895 .32235719 .4059906 .3153534 .40499879 .3123474L.35798646 .12527466Z"/>
<path id="font_1_1" d="M.42199708 .38238526C.40098573 .41540528 .36698915 .44140626 .31900025 .44140626 .19099427 .44140626 .06098938 .300354 .06098938 .15628052 .06098938 .059249879 .12599182-.009765625 .21199036-.009765625 .2659912-.009765625 .31399537 .021224976 .35398866 .0602417 .37298585 .00022888184 .43099977-.009765625 .45700074-.009765625 .49299623-.009765625 .5179901 .01222229 .5359955 .04324341 .55799868 .08226013 .57099917 .13928223 .57099917 .14328003 .57099917 .15628052 .55799868 .15628052 .5549927 .15628052 .54100039 .15628052 .5399933 .15228272 .5329895 .12527466 .5209961 .07725525 .5019989 .018234253 .45999146 .018234253 .43399049 .018234253 .4269867 .040237428 .4269867 .06724548 .4269867 .08425903 .43499757 .120269779 .44198609 .14628601 .44898988 .17329407 .45899964 .21430969 .46398927 .23632813L.48399354 .3123474C.48999024 .33836366 .5019989 .38539125 .5019989 .39038087 .5019989 .4123993 .48399354 .4223938 .46798707 .4223938 .45098878 .4223938 .42799378 .4104004 .42199708 .38238526M.35798646 .12527466C.35099793 .09725952 .32899476 .07725525 .30699159 .058242799 .2979889 .050247194 .2579956 .018234253 .21499634 .018234253 .17799378 .018234253 .14199829 .04423523 .14199829 .11526489 .14199829 .16828919 .17098999 .27833558 .19400025 .31835938 .23999024 .39839173 .29100038 .4133911 .31900025 .4133911 .3889923 .4133911 .4079895 .33737184 .4079895 .32635499 .4079895 .32235719 .4059906 .3153534 .40499879 .3123474L.35798646 .12527466Z"/>
<path id="font_1_5" d="M.22399903 .22851563C.2519989 .22851563 .33099366 .23051453 .3849945 .24951172 .45899964 .27549745 .47299195 .3234558 .47299195 .35343934 .47299195 .4084015 .41799928 .44140626 .34899903 .44140626 .22898865 .44140626 .066986087 .34944154 .066986087 .17843628 .066986087 .077301029 .12998963-.009765625 .24699402-.009765625 .41600038-.009765625 .49499513 .08932495 .49499513 .10334778 .49499513 .10934448 .48599244 .12036133 .47799684 .12036133 .47200013 .12036133 .46998597 .11836243 .46199037 .11035156 .38398744 .018234253 .2669983 .018234253 .24899292 .018234253 .18899536 .018234253 .14898682 .058273317 .14898682 .13938904 .14898682 .15341187 .14898682 .1734314 .16099549 .22851563H.22399903M.16899109 .2565155C.20999146 .40141297 .32099916 .4133911 .34899903 .4133911 .3929901 .4133911 .42999269 .39141847 .42999269 .35343934 .42999269 .2565155 .26098634 .2565155 .21798706 .2565155H.16899109Z"/>
<path id="font_1_2" d="M.2639923 .66430667C.2649994 .66630557 .2679901 .67930606 .2679901 .68029788 .2679901 .68530276 .2639923 .6943054 .2519989 .6943054 .23199463 .6943054 .14898682 .6863098 .12399292 .6843109 .115997318 .68330386 .101989749 .682312 .101989749 .66130068 .101989749 .64730837 .115997318 .64730837 .12799073 .64730837 .17599488 .64730837 .17599488 .64030459 .17599488 .63230898 .17599488 .62532046 .1659851 .58532717 .1599884 .5623474L.13699341 .4703827C.12799073 .43640138 .07299805 .21731568 .070999149 .20431519 .06599426 .18029785 .06599426 .16729737 .06599426 .1552887 .06599426 .054244996 .12998963-.009765625 .21299744-.009765625 .33799745-.009765625 .47099305 .12626648 .47099305 .27433778 .47099305 .39138795 .3899994 .44140626 .32099916 .44140626 .2689972 .44140626 .22499085 .4123993 .19499207 .38638307L.2639923 .66430667M.21398926 .018234253C.16499329 .018234253 .13699341 .06124878 .13699341 .120269779 .13699341 .1572876 .1459961 .19129944 .17399597 .3043518 .17999268 .32336427 .17999268 .32536317 .19898987 .34736634 .23699951 .39138795 .28199769 .4133911 .31799317 .4133911 .35699464 .4133911 .3909912 .38438417 .3909912 .31636048 .3909912 .27534486 .36898805 .17329407 .33898927 .11526489 .31498719 .06625366 .2649994 .018234253 .21398926 .018234253Z"/>
</defs>
<path transform="matrix(1.00002,0,0,-1,37.529375,65.578998)" d="M7.08669 0C7.08669 3.91391 3.91391 7.08669 0 7.08669-3.91391 7.08669-7.08669 3.91391-7.08669 0-7.08669-3.91391-3.91391-7.08669 0-7.08669 3.91391-7.08669 7.08669-3.91391 7.08669 0ZM0 0" fill="#adadad"/>
<path transform="matrix(1.00002,0,0,-1,37.529375,65.578998)" stroke-width=".3985" stroke-linecap="butt" stroke-miterlimit="10" stroke-linejoin="miter" fill="none" stroke="#000000" d="M7.08669 0C7.08669 3.91391 3.91391 7.08669 0 7.08669-3.91391 7.08669-7.08669 3.91391-7.08669 0-7.08669-3.91391-3.91391-7.08669 0-7.08669 3.91391-7.08669 7.08669-3.91391 7.08669 0ZM0 0"/>
<use data-text="f" xlink:href="#font_1_6" transform="matrix(6.97394,0,0,-6.9738,35.196329,67.32199)"/>
<path transform="matrix(1.00002,0,0,-1,37.529375,65.578998)" d="M-21.26012 28.3468C-21.26012 32.26071-24.43289 35.43349-28.3468 35.43349-32.26071 35.43349-35.43349 32.26071-35.43349 28.3468-35.43349 24.43289-32.26071 21.26012-28.3468 21.26012-24.43289 21.26012-21.26012 24.43289-21.26012 28.3468ZM-28.3468 28.3468" fill="#adadad"/>
<path transform="matrix(1.00002,0,0,-1,37.529375,65.578998)" stroke-width=".3985" stroke-linecap="butt" stroke-miterlimit="10" stroke-linejoin="miter" fill="none" stroke="#000000" d="M-21.26012 28.3468C-21.26012 32.26071-24.43289 35.43349-28.3468 35.43349-32.26071 35.43349-35.43349 32.26071-35.43349 28.3468-35.43349 24.43289-32.26071 21.26012-28.3468 21.26012-24.43289 21.26012-21.26012 24.43289-21.26012 28.3468ZM-28.3468 28.3468"/>
<use data-text="c" xlink:href="#font_1_3" transform="matrix(6.97394,0,0,-6.9738,7.4017717,38.733995)"/>
<path transform="matrix(1.00002,0,0,-1,37.529375,65.578998)" d="M35.43349 28.3468C35.43349 32.26071 32.26071 35.43349 28.3468 35.43349 24.43289 35.43349 21.26012 32.26071 21.26012 28.3468 21.26012 24.43289 24.43289 21.26012 28.3468 21.26012 32.26071 21.26012 35.43349 24.43289 35.43349 28.3468ZM28.3468 28.3468" fill="#adadad"/>
<path transform="matrix(1.00002,0,0,-1,37.529375,65.578998)" stroke-width=".3985" stroke-linecap="butt" stroke-miterlimit="10" stroke-linejoin="miter" fill="none" stroke="#000000" d="M35.43349 28.3468C35.43349 32.26071 32.26071 35.43349 28.3468 35.43349 24.43289 35.43349 21.26012 32.26071 21.26012 28.3468 21.26012 24.43289 24.43289 21.26012 28.3468 21.26012 32.26071 21.26012 35.43349 24.43289 35.43349 28.3468ZM28.3468 28.3468"/>
<use data-text="d" xlink:href="#font_1_4" transform="matrix(6.97394,0,0,-6.9738,63.802904,39.653997)"/>
<path transform="matrix(1.00002,0,0,-1,37.529375,65.578998)" d="M7.08669 56.69362C7.08669 60.60753 3.91391 63.7803 0 63.7803-3.91391 63.7803-7.08669 60.60753-7.08669 56.69362-7.08669 52.7797-3.91391 49.60692 0 49.60692 3.91391 49.60692 7.08669 52.7797 7.08669 56.69362ZM0 56.69362" fill="#adadad"/>
<path transform="matrix(1.00002,0,0,-1,37.529375,65.578998)" stroke-width=".3985" stroke-linecap="butt" stroke-miterlimit="10" stroke-linejoin="miter" fill="none" stroke="#000000" d="M7.08669 56.69362C7.08669 60.60753 3.91391 63.7803 0 63.7803-3.91391 63.7803-7.08669 60.60753-7.08669 56.69362-7.08669 52.7797-3.91391 49.60692 0 49.60692 3.91391 49.60692 7.08669 52.7797 7.08669 56.69362ZM0 56.69362"/>
<use data-text="a" xlink:href="#font_1_1" transform="matrix(6.97394,0,0,-6.9738,35.368333,10.386993)"/>
<path transform="matrix(1.00002,0,0,-1,37.529375,65.578998)" d="M63.7803 28.3468C63.7803 32.26071 60.60753 35.43349 56.69362 35.43349 52.7797 35.43349 49.60692 32.26071 49.60692 28.3468 49.60692 24.43289 52.7797 21.26012 56.69362 21.26012 60.60753 21.26012 63.7803 24.43289 63.7803 28.3468ZM56.69362 28.3468" fill="#adadad"/>
<path transform="matrix(1.00002,0,0,-1,37.529375,65.578998)" stroke-width=".3985" stroke-linecap="butt" stroke-miterlimit="10" stroke-linejoin="miter" fill="none" stroke="#000000" d="M63.7803 28.3468C63.7803 32.26071 60.60753 35.43349 56.69362 35.43349 52.7797 35.43349 49.60692 32.26071 49.60692 28.3468 49.60692 24.43289 52.7797 21.26012 56.69362 21.26012 60.60753 21.26012 63.7803 24.43289 63.7803 28.3468ZM56.69362 28.3468"/>
<use data-text="e" xlink:href="#font_1_5" transform="matrix(6.97394,0,0,-6.9738,92.33447,38.733995)"/>
<path transform="matrix(1.00002,0,0,-1,37.529375,65.578998)" d="M63.7803 56.69362C63.7803 60.60753 60.60753 63.7803 56.69362 63.7803 52.7797 63.7803 49.60692 60.60753 49.60692 56.69362 49.60692 52.7797 52.7797 49.60692 56.69362 49.60692 60.60753 49.60692 63.7803 52.7797 63.7803 56.69362ZM56.69362 56.69362" fill="#adadad"/>
<path transform="matrix(1.00002,0,0,-1,37.529375,65.578998)" stroke-width=".3985" stroke-linecap="butt" stroke-miterlimit="10" stroke-linejoin="miter" fill="none" stroke="#000000" d="M63.7803 56.69362C63.7803 60.60753 60.60753 63.7803 56.69362 63.7803 52.7797 63.7803 49.60692 60.60753 49.60692 56.69362 49.60692 52.7797 52.7797 49.60692 56.69362 49.60692 60.60753 49.60692 63.7803 52.7797 63.7803 56.69362ZM56.69362 56.69362"/>
<use data-text="b" xlink:href="#font_1_2" transform="matrix(6.97394,0,0,-6.9738,92.47247,11.306995)"/>
<path transform="matrix(1.00002,0,0,-1,37.529375,65.578998)" stroke-width=".79701" stroke-linecap="butt" stroke-miterlimit="10" stroke-linejoin="miter" fill="none" stroke="#000000" d="M5.15193 51.54167 23.19487 33.49873M23.19487 23.19487 5.15193 5.15193M-5.15193 5.15193-23.19487 23.19487M-23.19487 33.49873-5.15193 51.54167M7.28593 56.69362H49.40767M56.69362 49.40767V35.63275"/>
<path transform="matrix(1.00002,0,0,-1,37.529375,65.578998)" stroke-width=".79701" stroke-linecap="butt" stroke-miterlimit="10" stroke-linejoin="miter" fill="none" stroke="#000000" d="M-21.06085 28.3468H21.06085"/>
</svg>
