<svg xmlns="http://www.w3.org/2000/svg" xmlns:xlink="http://www.w3.org/1999/xlink" xmlns:inkscape="http://www.inkscape.org/namespaces/inkscape" version="1.1" width="103" height="74" viewBox="0 0 103 74">
<defs>
<path id="font_1_1" d="M.42199708 .38238526C.40098573 .41540528 .36698915 .44140626 .31900025 .44140626 .19099427 .44140626 .06098938 .300354 .06098938 .15628052 .06098938 .059249879 .12599182-.009765625 .21199036-.009765625 .2659912-.009765625 .31399537 .021224976 .35398866 .0602417 .37298585 .00022888184 .43099977-.009765625 .45700074-.009765625 .49299623-.009765625 .5179901 .01222229 .5359955 .04324341 .55799868 .08226013 .57099917 .13928223 .57099917 .14328003 .57099917 .15628052 .55799868 .15628052 .5549927 .15628052 .54100039 .15628052 .5399933 .15228272 .5329895 .12527466 .5209961 .07725525 .5019989 .018234253 .45999146 .018234253 .43399049 .018234253 .4269867 .040237428 .4269867 .06724548 .4269867 .08425903 .43499757 .120269779 .44198609 .14628601 .44898988 .17329407 .45899964 .21430969 .46398927 .23632813L.48399354 .3123474C.48999024 .33836366 .5019989 .38539125 .5019989 .39038087 .5019989 .4123993 .48399354 .4223938 .46798707 .4223938 .45098878 .4223938 .42799378 .4104004 .42199708 .38238526M.35798646 .12527466C.35099793 .09725952 .32899476 .07725525 .30699159 .058242799 .2979889 .050247194 .2579956 .018234253 .21499634 .018234253 .17799378 .018234253 .14199829 .04423523 .14199829 .11526489 .14199829 .16828919 .17098999 .27833558 .19400025 .31835938 .23999024 .39839173 .29100038 .4133911 .31900025 .4133911 .3889923 .4133911 .4079895 .33737184 .4079895 .32635499 .4079895 .32235719 .4059906 .3153534 .40499879 .3123474L.35798646 .12527466Z"/>
<path id="font_2_2" d="M.397995 .63591006C.397995 .6660156 .394989 .6660156 .3619995 .6660156 .29100038 .6016083 .17999268 .6016083 .1599884 .6016083H.14299011V.5576172H.1599884C.18299866 .5576172 .24798584 .5606079 .30599977 .58561709V.08596802C.30599977 .054977418 .30599977 .04399109 .19999695 .04399109H.1499939V0C.20498657 .0039978029 .2939911 .0039978029 .35198976 .0039978029 .4099884 .0039978029 .49899293 .0039978029 .55400088 0V.04399109H.5039978C.397995 .04399109 .397995 .054977418 .397995 .08596802V.63591006Z"/>
<path id="font_2_3" d="M.58898928 .19296265H.5469971C.5439911 .17396546 .5339966 .11198425 .5179901 .101989749 .5099945 .09599304 .42599488 .09599304 .41099549 .09599304H.21499634C.2809906 .14497376 .35499574 .20095825 .4149933 .24093628 .5049896 .30291749 .58898928 .36090089 .58898928 .46687318 .58898928 .59495547 .46798707 .6660156 .32499696 .6660156 .18998719 .6660156 .09098816 .58795168 .09098816 .48986817 .09098816 .4378662 .1349945 .42886354 .14898682 .42886354 .17599488 .42886354 .20799256 .4468689 .20799256 .48786927 .20799256 .52386477 .18199158 .543869 .15098572 .546875 .1789856 .59194949 .23699951 .6220093 .3039856 .6220093 .40098573 .6220093 .48199464 .5639038 .48199464 .4658661 .48199464 .3818817 .42399598 .31791688 .34700013 .2529297L.102996829 .04598999C.09298706 .036987306 .09199524 .036987306 .09098816 .02999878V0H.55599978L.58898928 .19296265Z"/>
<path id="font_2_4" d="M.32998658 .3310547C.42199708 .3310547 .48298646 .2737732 .48298646 .17437744 .48298646 .07237244 .41999818 .01852417 .33099366 .01852417 .31999208 .01852417 .20098877 .01852417 .1499939 .070373538 .19099427 .07637024 .20298767 .1073761 .20298767 .13137818 .20298767 .16838074 .1749878 .19238281 .14199829 .19238281 .10998535 .19238281 .07998657 .17137146 .07998657 .12937927 .07998657 .025512696 .19799805-.022460938 .33399964-.022460938 .49798585-.022460938 .59999087 .07637024 .59999087 .17337036 .59999087 .25567628 .5269928 .3260193 .41299439 .35205079 .5329895 .3909912 .5649872 .46684266 .5649872 .5228424 .5649872 .60491946 .46299745 .6660156 .33699037 .6660156 .21398926 .6660156 .114990238 .61395266 .114990238 .5238342 .114990238 .47683717 .15299988 .46484376 .17199707 .46484376 .20098877 .46484376 .22898865 .48583985 .22898865 .5218353 .22898865 .5448303 .21699524 .5728302 .18099976 .57884219 .22399903 .625 .31298829 .628006 .33399964 .628006 .40699769 .628006 .45899964 .5908661 .45899964 .5228424 .45899964 .46484376 .42099 .37402345 .31599427 .368042 .28799439 .3670349 .28399659 .3660431 .2579956 .365036 .24699402 .3640442 .23599243 .36305238 .23599243 .34805299 .23599243 .3310547 .24598694 .3310547 .2639923 .3310547H.32998658Z"/>
<path id="font_2_5" d="M.61698916 .1630249V.20703125H.49198915V.64675906C.49198915 .67074587 .4909973 .6767578 .46499635 .6767578 .44499208 .6767578 .44400025 .67575076 .43299867 .66174319L.06298828 .20703125V.1630249H.3959961V.085006717C.3959961 .054000856 .3959961 .04399109 .30899049 .04399109H.27398683V0C.32099916 .0019989014 .38598634 .0039978029 .44400025 .0039978029 .5019989 .0039978029 .56599429 .0019989014 .6139984 0V.04399109H.57899478C.49198915 .04399109 .49198915 .054000856 .49198915 .085006717V.1630249H.61698916M.4039917 .5688019V.20703125H.10998535L.4039917 .5688019Z"/>
<path id="font_2_6" d="M.19599915 .55078127C.24899292 .53778079 .2939911 .53778079 .30499269 .53778079 .37298585 .53778079 .4229889 .55778506 .44898988 .57177737 .47299195 .583786 .54100039 .6267853 .54100039 .64878848 .54100039 .66378787 .5299988 .66578677 .5269928 .66578677 .5249939 .66578677 .522995 .66578677 .5119934 .66078189 .47399903 .6477814 .4119873 .63378909 .34599305 .63378909 .2889862 .63378909 .23399353 .64378359 .18099976 .66178897 .16999817 .66578677 .16799927 .66578677 .1659851 .66578677 .1519928 .66578677 .1519928 .6537781 .1519928 .63778689V.33763124C.1519928 .32061769 .1519928 .30760194 .17098999 .30760194 .18199158 .30760194 .18299866 .30960084 .19198609 .32061769 .22999573 .36468507 .2829895 .38671876 .35099793 .38671876 .40899659 .38671876 .44099427 .35266114 .45498658 .33163453 .47799684 .2975769 .48298646 .2525177 .48298646 .20446778 .48298646 .16246033 .47898866 .10646057 .43998719 .067489627 .394989 .021530152 .33799745 .01852417 .31599427 .01852417 .25099183 .01852417 .17799378 .04650879 .14698792 .10546875 .18899536 .10845947 .20298767 .13845825 .20298767 .1614685 .20298767 .19346619 .1789856 .21746826 .14698792 .21746826 .125 .21746826 .09098816 .20446778 .09098816 .15846253 .09098816 .0605011 .18699646-.022460938 .31799317-.022460938 .46699525-.022460938 .58898928 .07748413 .58898928 .20146179 .58898928 .3146057 .49198915 .41970826 .35299684 .41970826 .2899933 .41970826 .23899842 .40371705 .19599915 .37068177V.55078127Z"/>
<path id="font_2_7" d="M.18598938 .32769776C.18699646 .37371827 .18798828 .4528656 .22399903 .51808169 .25299073 .5720825 .31799317 .628006 .41099549 .628006 .42999269 .628006 .47499085 .6260071 .5049896 .6020813 .4889984 .5980835 .46299745 .5830841 .46299745 .5490875 .46299745 .51708987 .4869995 .49609376 .5159912 .49609376 .5329895 .49609376 .56900027 .5050812 .56900027 .5520935 .56900027 .6060791 .5309906 .6660156 .4099884 .6660156 .23799134 .6660156 .07998657 .52508547 .07998657 .317688 .07998657 .078567508 .19699097-.022460938 .34298707-.022460938 .44198609-.022460938 .4889984 .014526367 .522995 .042541505 .58699038 .095565799 .59999087 .15460205 .59999087 .20463562 .59999087 .26565553 .5799866 .314682 .5279999 .36071778 .48399354 .40072633 .43798829 .42773438 .35099793 .42773438 .29299928 .42773438 .22799683 .39971925 .18598938 .32769776M.34298707 .01852417C.18899536 .01852417 .18899536 .18461609 .18899536 .2266388 .18899536 .30368043 .24398804 .39372254 .34899903 .39372254 .3999939 .39372254 .43199159 .38072206 .46299745 .34069825 .49299623 .30368043 .49398805 .2616577 .49398805 .20562744 .49398805 .14759827 .49398805 .109573367 .46199037 .06956482 .43399049 .0365448 .39898683 .01852417 .34298707 .01852417Z"/>
<path id="font_2_8" d="M.625 .59983828C.6339874 .60884097 .6339874 .61083987 .6349945 .6158447V.6438446H.3929901C.36698915 .6438446 .22099304 .64782717 .20298767 .6508026 .17999268 .655777 .1789856 .6657715 .1769867 .67578127H.1349945L.09700012 .4507904H.13899231C.14099121 .4657898 .1519928 .530838 .16899109 .5418396 .1749878 .5468445 .2689972 .54785159 .28399659 .54785159H.5219879C.47999574 .4988098 .42599488 .44477845 .3869934 .39575196 .2679901 .2436676 .25299073 .099594119 .25299073 .03855896 .25299073-.016464234 .28799439-.022460938 .30599977-.022460938 .35899354-.022460938 .35899354 .028549195 .35899354 .04055786V.060562135C.35899354 .23866272 .39698792 .34872438 .45700074 .4147644L.625 .59983828Z"/>
<path id="font_2_9" d="M.42900086 .36079408C.5319977 .40382386 .5649872 .45687867 .5649872 .513916 .5649872 .6179962 .44999696 .6660156 .34098817 .6660156 .21699524 .6660156 .114990238 .5959778 .114990238 .4958954 .114990238 .40382386 .19400025 .36279298 .24598694 .3357849 .13999939 .29473878 .07998657 .23570252 .07998657 .15364075 .07998657 .03353882 .21299744-.022460938 .33898927-.022460938 .47898866-.022460938 .59999087 .05255127 .59999087 .1706543 .59999087 .27973939 .49598695 .33078004 .42900086 .36079408M.23298645 .46287538C.18998719 .4848938 .1769867 .51091006 .1769867 .53492739 .1769867 .59898379 .25898744 .628006 .33898927 .628006 .4189911 .628006 .5029907 .588974 .5029907 .51290896 .5029907 .42485047 .3889923 .38381959 .3880005 .38381959 .3869934 .38381959 .38598634 .38381959 .3769989 .38882447L.23298645 .46287538M.2889862 .31376649 .44400025 .23469544C.47999574 .21568299 .5309906 .18865967 .5309906 .1346283 .5309906 .05355835 .42999269 .01852417 .34098817 .01852417 .25 .01852417 .14898682 .063568118 .14898682 .15463257 .14898682 .2537079 .25698854 .29974366 .2889862 .31376649Z"/>
<path id="font_2_10" d="M.49398805 .31782533C.49398805 .25479127 .48999024 .17860413 .45599366 .1194458 .4229889 .061447145 .3639984 .01852417 .2829895 .01852417 .27198792 .01852417 .21099854 .01852417 .1769867 .04244995 .20199585 .049453737 .21699524 .06845093 .21699524 .094451908 .21699524 .12644959 .19299317 .14746094 .1639862 .14746094 .14698792 .14746094 .11099243 .13845825 .11099243 .09144592 .11099243-.022460938 .2579956-.022460938 .2849884-.022460938 .45298768-.022460938 .59999087 .12045288 .59999087 .32783509 .59999087 .5699768 .48199464 .6660156 .34399415 .6660156 .24398804 .6660156 .19499207 .63101199 .15499878 .59698489 .09298706 .5459595 .07998657 .49093629 .07998657 .43989564 .07998657 .38287355 .09700012 .3318329 .15098572 .2848053 .19799805 .2427826 .24398804 .21679688 .32899476 .21679688 .36999513 .21679688 .44198609 .23078919 .49398805 .31782533M.33099366 .25079347C.29100038 .25079347 .25299073 .25779725 .21699524 .30282594 .18699646 .33984376 .18598938 .38085938 .18598938 .43989564 .18598938 .51194766 .18899536 .54196169 .22698975 .5819855 .24198914 .598999 .27198792 .628006 .34399415 .628006 .4909973 .628006 .4909973 .46290589 .4909973 .41989137 .4909973 .33683778 .43199159 .25079347 .33099366 .25079347Z"/>
<path id="font_2_1" d="M.6009979 .31976319C.6009979 .3918152 .6009979 .6660156 .33999635 .6660156 .07899475 .6660156 .07899475 .3918152 .07899475 .31976319 .07899475 .2467041 .07899475-.022460938 .33999635-.022460938 .6009979-.022460938 .6009979 .2467041 .6009979 .31976319M.33999635 .010528564C.30299378 .010528564 .21899414 .023544312 .19400025 .12461853 .17999268 .17866516 .1789856 .24971009 .1789856 .33177186 .1789856 .405838 .1789856 .47488404 .19499207 .5319214 .21998596 .6159973 .29699708 .63301089 .33999635 .63301089 .4139862 .63301089 .46699525 .5949707 .4869995 .5249176 .5009918 .47387696 .5009918 .39082337 .5009918 .33177186 .5009918 .26371766 .5009918 .18266297 .48599244 .12261963 .45999146 .025543213 .37998963 .010528564 .33999635 .010528564Z"/>
</defs>
<path transform="matrix(1.00002,0,0,-1,9.181808,65.578998)" d="M7.08669 0C7.08669 3.91391 3.91391 7.08669 0 7.08669-3.91391 7.08669-7.08669 3.91391-7.08669 0-7.08669-3.91391-3.91391-7.08669 0-7.08669 3.91391-7.08669 7.08669-3.91391 7.08669 0ZM0 0" fill="#adadad"/>
<path transform="matrix(1.00002,0,0,-1,9.181808,65.578998)" stroke-width=".3985" stroke-linecap="butt" stroke-miterlimit="10" stroke-linejoin="miter" fill="none" stroke="#000000" d="M7.08669 0C7.08669 3.91391 3.91391 7.08669 0 7.08669-3.91391 7.08669-7.08669 3.91391-7.08669 0-7.08669-3.91391-3.91391-7.08669 0-7.08669 3.91391-7.08669 7.08669-3.91391 7.08669 0ZM0 0"/>
<use data-text="a" xlink:href="#font_1_1" transform="matrix(6.97394,0,0,-6.9738,5.076729,66.58199)"/>
<use data-text="1" xlink:href="#font_2_2" transform="matrix(4.9813997,0,0,-4.9813,9.398811,67.577999)"/>
<path transform="matrix(1.00002,0,0,-1,9.181808,65.578998)" d="M7.08669 28.3468C7.08669 32.26071 3.91391 35.43349 0 35.43349-3.91391 35.43349-7.08669 32.26071-7.08669 28.3468-7.08669 24.43289-3.91391 21.26012 0 21.26012 3.91391 21.26012 7.08669 24.43289 7.08669 28.3468ZM0 28.3468" fill="#adadad"/>
<path transform="matrix(1.00002,0,0,-1,9.181808,65.578998)" stroke-width=".3985" stroke-linecap="butt" stroke-miterlimit="10" stroke-linejoin="miter" fill="none" stroke="#000000" d="M7.08669 28.3468C7.08669 32.26071 3.91391 35.43349 0 35.43349-3.91391 35.43349-7.08669 32.26071-7.08669 28.3468-7.08669 24.43289-3.91391 21.26012 0 21.26012 3.91391 21.26012 7.08669 24.43289 7.08669 28.3468ZM0 28.3468"/>
<use data-text="a" xlink:href="#font_1_1" transform="matrix(6.97394,0,0,-6.9738,5.076729,38.234994)"/>
<use data-text="2" xlink:href="#font_2_3" transform="matrix(4.9813997,0,0,-4.9813,9.398811,39.230997)"/>
<path transform="matrix(1.00002,0,0,-1,9.181808,65.578998)" d="M7.08669 56.69362C7.08669 60.60753 3.91391 63.7803 0 63.7803-3.91391 63.7803-7.08669 60.60753-7.08669 56.69362-7.08669 52.7797-3.91391 49.60692 0 49.60692 3.91391 49.60692 7.08669 52.7797 7.08669 56.69362ZM0 56.69362" fill="#adadad"/>
<path transform="matrix(1.00002,0,0,-1,9.181808,65.578998)" stroke-width=".3985" stroke-linecap="butt" stroke-miterlimit="10" stroke-linejoin="miter" fill="none" stroke="#000000" d="M7.08669 56.69362C7.08669 60.60753 3.91391 63.7803 0 63.7803-3.91391 63.7803-7.08669 60.60753-7.08669 56.69362-7.08669 52.7797-3.91391 49.60692 0 49.60692 3.91391 49.60692 7.08669 52.7797 7.08669 56.69362ZM0 56.69362"/>
<use data-text="a" xlink:href="#font_1_1" transform="matrix(6.97394,0,0,-6.9738,5.076729,9.888996)"/>
<use data-text="3" xlink:href="#font_2_4" transform="matrix(4.9813997,0,0,-4.9813,9.398811,10.8849949)"/>
<path transform="matrix(1.00002,0,0,-1,9.181808,65.578998)" d="M35.43349 0C35.43349 3.91391 32.26071 7.08669 28.3468 7.08669 24.43289 7.08669 21.26012 3.91391 21.26012 0 21.26012-3.91391 24.43289-7.08669 28.3468-7.08669 32.26071-7.08669 35.43349-3.91391 35.43349 0ZM28.3468 0" fill="#adadad"/>
<path transform="matrix(1.00002,0,0,-1,9.181808,65.578998)" stroke-width=".3985" stroke-linecap="butt" stroke-miterlimit="10" stroke-linejoin="miter" fill="none" stroke="#000000" d="M35.43349 0C35.43349 3.91391 32.26071 7.08669 28.3468 7.08669 24.43289 7.08669 21.26012 3.91391 21.26012 0 21.26012-3.91391 24.43289-7.08669 28.3468-7.08669 32.26071-7.08669 35.43349-3.91391 35.43349 0ZM28.3468 0"/>
<use data-text="a" xlink:href="#font_1_1" transform="matrix(6.97394,0,0,-6.9738,33.424295,66.58199)"/>
<use data-text="4" xlink:href="#font_2_5" transform="matrix(4.9813997,0,0,-4.9813,37.746377,67.577999)"/>
<path transform="matrix(1.00002,0,0,-1,9.181808,65.578998)" d="M35.43349 28.3468C35.43349 32.26071 32.26071 35.43349 28.3468 35.43349 24.43289 35.43349 21.26012 32.26071 21.26012 28.3468 21.26012 24.43289 24.43289 21.26012 28.3468 21.26012 32.26071 21.26012 35.43349 24.43289 35.43349 28.3468ZM28.3468 28.3468" fill="#adadad"/>
<path transform="matrix(1.00002,0,0,-1,9.181808,65.578998)" stroke-width=".3985" stroke-linecap="butt" stroke-miterlimit="10" stroke-linejoin="miter" fill="none" stroke="#000000" d="M35.43349 28.3468C35.43349 32.26071 32.26071 35.43349 28.3468 35.43349 24.43289 35.43349 21.26012 32.26071 21.26012 28.3468 21.26012 24.43289 24.43289 21.26012 28.3468 21.26012 32.26071 21.26012 35.43349 24.43289 35.43349 28.3468ZM28.3468 28.3468"/>
<use data-text="a" xlink:href="#font_1_1" transform="matrix(6.97394,0,0,-6.9738,33.424295,38.234994)"/>
<use data-text="5" xlink:href="#font_2_6" transform="matrix(4.9813997,0,0,-4.9813,37.746377,39.230997)"/>
<path transform="matrix(1.00002,0,0,-1,9.181808,65.578998)" d="M35.43349 56.69362C35.43349 60.60753 32.26071 63.7803 28.3468 63.7803 24.43289 63.7803 21.26012 60.60753 21.26012 56.69362 21.26012 52.7797 24.43289 49.60692 28.3468 49.60692 32.26071 49.60692 35.43349 52.7797 35.43349 56.69362ZM28.3468 56.69362" fill="#adadad"/>
<path transform="matrix(1.00002,0,0,-1,9.181808,65.578998)" stroke-width=".3985" stroke-linecap="butt" stroke-miterlimit="10" stroke-linejoin="miter" fill="none" stroke="#000000" d="M35.43349 56.69362C35.43349 60.60753 32.26071 63.7803 28.3468 63.7803 24.43289 63.7803 21.26012 60.60753 21.26012 56.69362 21.26012 52.7797 24.43289 49.60692 28.3468 49.60692 32.26071 49.60692 35.43349 52.7797 35.43349 56.69362ZM28.3468 56.69362"/>
<use data-text="a" xlink:href="#font_1_1" transform="matrix(6.97394,0,0,-6.9738,33.424295,9.888996)"/>
<use data-text="6" xlink:href="#font_2_7" transform="matrix(4.9813997,0,0,-4.9813,37.746377,10.8849949)"/>
<path transform="matrix(1.00002,0,0,-1,9.181808,65.578998)" d="M63.7803 0C63.7803 3.91391 60.60753 7.08669 56.69362 7.08669 52.7797 7.08669 49.60692 3.91391 49.60692 0 49.60692-3.91391 52.7797-7.08669 56.69362-7.08669 60.60753-7.08669 63.7803-3.91391 63.7803 0ZM56.69362 0" fill="#adadad"/>
<path transform="matrix(1.00002,0,0,-1,9.181808,65.578998)" stroke-width=".3985" stroke-linecap="butt" stroke-miterlimit="10" stroke-linejoin="miter" fill="none" stroke="#000000" d="M63.7803 0C63.7803 3.91391 60.60753 7.08669 56.69362 7.08669 52.7797 7.08669 49.60692 3.91391 49.60692 0 49.60692-3.91391 52.7797-7.08669 56.69362-7.08669 60.60753-7.08669 63.7803-3.91391 63.7803 0ZM56.69362 0"/>
<use data-text="a" xlink:href="#font_1_1" transform="matrix(6.97394,0,0,-6.9738,61.771863,66.58199)"/>
<use data-text="7" xlink:href="#font_2_8" transform="matrix(4.9813997,0,0,-4.9813,66.09395,67.577999)"/>
<path transform="matrix(1.00002,0,0,-1,9.181808,65.578998)" d="M63.7803 28.3468C63.7803 32.26071 60.60753 35.43349 56.69362 35.43349 52.7797 35.43349 49.60692 32.26071 49.60692 28.3468 49.60692 24.43289 52.7797 21.26012 56.69362 21.26012 60.60753 21.26012 63.7803 24.43289 63.7803 28.3468ZM56.69362 28.3468" fill="#adadad"/>
<path transform="matrix(1.00002,0,0,-1,9.181808,65.578998)" stroke-width=".3985" stroke-linecap="butt" stroke-miterlimit="10" stroke-linejoin="miter" fill="none" stroke="#000000" d="M63.7803 28.3468C63.7803 32.26071 60.60753 35.43349 56.69362 35.43349 52.7797 35.43349 49.60692 32.26071 49.60692 28.3468 49.60692 24.43289 52.7797 21.26012 56.69362 21.26012 60.60753 21.26012 63.7803 24.43289 63.7803 28.3468ZM56.69362 28.3468"/>
<use data-text="a" xlink:href="#font_1_1" transform="matrix(6.97394,0,0,-6.9738,61.771863,38.234994)"/>
<use data-text="8" xlink:href="#font_2_9" transform="matrix(4.9813997,0,0,-4.9813,66.09395,39.230997)"/>
<path transform="matrix(1.00002,0,0,-1,9.181808,65.578998)" d="M63.7803 56.69362C63.7803 60.60753 60.60753 63.7803 56.69362 63.7803 52.7797 63.7803 49.60692 60.60753 49.60692 56.69362 49.60692 52.7797 52.7797 49.60692 56.69362 49.60692 60.60753 49.60692 63.7803 52.7797 63.7803 56.69362ZM56.69362 56.69362" fill="#adadad"/>
<path transform="matrix(1.00002,0,0,-1,9.181808,65.578998)" stroke-width=".3985" stroke-linecap="butt" stroke-miterlimit="10" stroke-linejoin="miter" fill="none" stroke="#000000" d="M63.7803 56.69362C63.7803 60.60753 60.60753 63.7803 56.69362 63.7803 52.7797 63.7803 49.60692 60.60753 49.60692 56.69362 49.60692 52.7797 52.7797 49.60692 56.69362 49.60692 60.60753 49.60692 63.7803 52.7797 63.7803 56.69362ZM56.69362 56.69362"/>
<use data-text="a" xlink:href="#font_1_1" transform="matrix(6.97394,0,0,-6.9738,61.771863,9.888996)"/>
<use data-text="9" xlink:href="#font_2_10" transform="matrix(4.9813997,0,0,-4.9813,66.09395,10.8849949)"/>
<path transform="matrix(1.00002,0,0,-1,9.181808,65.578998)" d="M92.1271 0C92.1271 3.91391 88.95435 7.08669 85.04042 7.08669 81.12651 7.08669 77.95374 3.91391 77.95374 0 77.95374-3.91391 81.12651-7.08669 85.04042-7.08669 88.95435-7.08669 92.1271-3.91391 92.1271 0ZM85.04042 0" fill="#adadad"/>
<path transform="matrix(1.00002,0,0,-1,9.181808,65.578998)" stroke-width=".3985" stroke-linecap="butt" stroke-miterlimit="10" stroke-linejoin="miter" fill="none" stroke="#000000" d="M92.1271 0C92.1271 3.91391 88.95435 7.08669 85.04042 7.08669 81.12651 7.08669 77.95374 3.91391 77.95374 0 77.95374-3.91391 81.12651-7.08669 85.04042-7.08669 88.95435-7.08669 92.1271-3.91391 92.1271 0ZM85.04042 0"/>
<use data-text="a" xlink:href="#font_1_1" transform="matrix(6.97394,0,0,-6.9738,88.42339,66.58199)"/>
<use data-text="1" xlink:href="#font_2_2" transform="matrix(4.9813997,0,0,-4.9813,92.745479,67.577999)"/>
<use data-text="0" xlink:href="#font_2_1" transform="matrix(4.9813997,0,0,-4.9813,96.13283,67.577999)"/>
<path transform="matrix(1.00002,0,0,-1,9.181808,65.578998)" d="M92.1271 28.3468C92.1271 32.26071 88.95435 35.43349 85.04042 35.43349 81.12651 35.43349 77.95374 32.26071 77.95374 28.3468 77.95374 24.43289 81.12651 21.26012 85.04042 21.26012 88.95435 21.26012 92.1271 24.43289 92.1271 28.3468ZM85.04042 28.3468" fill="#adadad"/>
<path transform="matrix(1.00002,0,0,-1,9.181808,65.578998)" stroke-width=".3985" stroke-linecap="butt" stroke-miterlimit="10" stroke-linejoin="miter" fill="none" stroke="#000000" d="M92.1271 28.3468C92.1271 32.26071 88.95435 35.43349 85.04042 35.43349 81.12651 35.43349 77.95374 32.26071 77.95374 28.3468 77.95374 24.43289 81.12651 21.26012 85.04042 21.26012 88.95435 21.26012 92.1271 24.43289 92.1271 28.3468ZM85.04042 28.3468"/>
<use data-text="a" xlink:href="#font_1_1" transform="matrix(6.97394,0,0,-6.9738,88.42339,38.234994)"/>
<use data-text="1" xlink:href="#font_2_2" transform="matrix(4.9813997,0,0,-4.9813,92.745479,39.230997)"/>
<use data-text="1" xlink:href="#font_2_2" transform="matrix(4.9813997,0,0,-4.9813,96.13283,39.230997)"/>
<path transform="matrix(1.00002,0,0,-1,9.181808,65.578998)" d="M92.1271 56.69362C92.1271 60.60753 88.95435 63.7803 85.04042 63.7803 81.12651 63.7803 77.95374 60.60753 77.95374 56.69362 77.95374 52.7797 81.12651 49.60692 85.04042 49.60692 88.95435 49.60692 92.1271 52.7797 92.1271 56.69362ZM85.04042 56.69362" fill="#adadad"/>
<path transform="matrix(1.00002,0,0,-1,9.181808,65.578998)" stroke-width=".3985" stroke-linecap="butt" stroke-miterlimit="10" stroke-linejoin="miter" fill="none" stroke="#000000" d="M92.1271 56.69362C92.1271 60.60753 88.95435 63.7803 85.04042 63.7803 81.12651 63.7803 77.95374 60.60753 77.95374 56.69362 77.95374 52.7797 81.12651 49.60692 85.04042 49.60692 88.95435 49.60692 92.1271 52.7797 92.1271 56.69362ZM85.04042 56.69362"/>
<use data-text="a" xlink:href="#font_1_1" transform="matrix(6.97394,0,0,-6.9738,88.42339,9.888996)"/>
<use data-text="1" xlink:href="#font_2_2" transform="matrix(4.9813997,0,0,-4.9813,92.745479,10.8849949)"/>
<use data-text="2" xlink:href="#font_2_3" transform="matrix(4.9813997,0,0,-4.9813,96.13283,10.8849949)"/>
<path transform="matrix(1.00002,0,0,-1,9.181808,65.578998)" stroke-width=".79701" stroke-linecap="butt" stroke-miterlimit="10" stroke-linejoin="miter" fill="none" stroke="#000000" d="M0 7.28593V21.06085M0 35.63275V49.40767M7.28593 56.69362H21.06085M28.3468 49.40767V35.63275M28.3468 21.06085V7.28593M21.06085 0H7.28593"/>
<path transform="matrix(1.00002,0,0,-1,9.181808,65.578998)" stroke-width=".79701" stroke-linecap="butt" stroke-miterlimit="10" stroke-linejoin="miter" fill="none" stroke="#000000" d="M7.28593 28.3468H21.06085"/>
<path transform="matrix(1.00002,0,0,-1,9.181808,65.578998)" stroke-width=".79701" stroke-linecap="butt" stroke-miterlimit="10" stroke-linejoin="miter" fill="none" stroke="#000000" d="M35.63275 56.69362H49.40767M63.97955 56.69362H77.75449M85.04042 49.40767V35.63275M85.04042 21.06085V7.28593M77.75449 0H63.97955M49.40767 0H35.63275"/>
<path transform="matrix(1.00002,0,0,-1,9.181808,65.578998)" stroke-width=".79701" stroke-linecap="butt" stroke-miterlimit="10" stroke-linejoin="miter" fill="none" stroke="#000000" d="M56.69362 7.28593V21.06085M56.69362 35.63275V49.40767"/>
<path transform="matrix(1.00002,0,0,-1,9.181808,65.578998)" stroke-width=".79701" stroke-linecap="butt" stroke-miterlimit="10" stroke-linejoin="miter" fill="none" stroke="#000000" d="M35.63275 28.3468H49.40767M63.97955 28.3468H77.75449"/>
</svg>
