<svg xmlns="http://www.w3.org/2000/svg" xmlns:xlink="http://www.w3.org/1999/xlink" xmlns:inkscape="http://www.inkscape.org/namespaces/inkscape" version="1.1" width="160" height="63" viewBox="0 0 160 63">
<defs>
<path id="font_1_1" d="M.5319977 .36935426C.5359955 .3843689 .5359955 .38937379 .5359955 .39038087 .5359955 .4123993 .5179901 .4223938 .5019989 .4223938 .47898866 .4223938 .45999146 .4033966 .45599366 .3843689 .43899537 .4113922 .40499879 .44140626 .35299684 .44140626 .22799683 .44140626 .09700012 .3072815 .09700012 .1641388 .09700012 .061019899 .16699219 0 .24899292 0 .29499818 0 .33898927 .022994996 .37399293 .054016115L.35198976-.036026C.34098817-.07803345 .33399964-.105041507 .29599-.13903809 .2519989-.17610169 .20899964-.17610169 .18399048-.17610169 .13798523-.17610169 .125-.17308045 .10699463-.16903687 .13198853-.15704346 .13899231-.13304138 .13899231-.11903381 .13899231-.09503174 .11999512-.08203125 .099990848-.08203125 .07199097-.08203125 .042999269-.105041507 .042999269-.14303589 .042999269-.20310974 .1289978-.20410156 .18499756-.20410156 .34199525-.20410156 .40899659-.1240387 .4229889-.06703186L.5319977 .36935426M.3939972 .13310242C.3899994 .11808777 .3899994 .11608887 .37298585 .096069339 .33799745 .054016115 .2899933 .027999878 .2519989 .027999878 .20098877 .027999878 .1769867 .07104492 .1769867 .12309265 .1769867 .16714478 .20399475 .2792511 .22999573 .32330323 .27198792 .39338685 .31900025 .4133911 .35299684 .4133911 .4229889 .4133911 .44198609 .33831788 .44198609 .3283081 .44198609 .3263092 .44198609 .3243103 .43899537 .31329347L.3939972 .13310242Z"/>
<path id="font_1_2" d="M.31298829 .66430667C.31399537 .66630557 .31698609 .67930606 .31698609 .68029788 .31698609 .68530276 .31298829 .6943054 .30099488 .6943054 .2809906 .6943054 .19799805 .6863098 .17298889 .6843109 .16499329 .68330386 .15098572 .682312 .15098572 .66130068 .15098572 .64730837 .16499329 .64730837 .1769867 .64730837 .22499085 .64730837 .22499085 .64030459 .22499085 .63230898 .22499085 .62532046 .22299195 .61932376 .22099304 .61032107L.07998657 .04423523C.07499695 .026229859 .07499695 .024230957 .07499695 .022232056 .07499695 .007232666 .08699036-.009765625 .10899353-.009765625 .11999512-.009765625 .13899231-.004776001 .1499939 .016220093 .15299988 .022232056 .1619873 .058242799 .16699219 .07925415L.18998719 .16828919C.19299317 .18330384 .20298767 .22131348 .20599365 .23632813 .21598816 .27433778 .21598816 .27534486 .23599243 .3073578 .2679901 .35636903 .31799317 .4133911 .3959961 .4133911 .45199586 .4133911 .45498658 .36738587 .45498658 .34336854 .45498658 .28334046 .4119873 .17228699 .3959961 .13027954 .3849945 .102264408 .3809967 .09326172 .3809967 .07624817 .3809967 .023223877 .4249878-.009765625 .47599793-.009765625 .57598879-.009765625 .6199951 .12828064 .6199951 .14328003 .6199951 .15628052 .6069946 .15628052 .60398867 .15628052 .58999636 .15628052 .58898928 .15028382 .58499148 .13928223 .56199648 .059249879 .5179901 .018234253 .47898866 .018234253 .45799256 .018234253 .45399476 .032226564 .45399476 .053237916 .45399476 .07624817 .45899964 .089263919 .47698976 .13427735 .4889984 .1652832 .5299988 .2713318 .5299988 .32736207 .5299988 .34336854 .5299988 .38539125 .49299623 .4143982 .47599793 .42739869 .44699098 .44140626 .3999939 .44140626 .32699586 .44140626 .27398683 .4013977 .23699951 .35836793L.31298829 .66430667Z"/>
<path id="font_1_3" d="M.32398988 .6253052C.32398988 .64131167 .31199647 .66329959 .28399659 .66329959 .25698854 .66329959 .22799683 .6372986 .22799683 .6083069 .22799683 .5913086 .24099732 .5703125 .2679901 .5703125 .29699708 .5703125 .32398988 .5983124 .32398988 .6253052M.11999512 .117263797C.115997318 .104263309 .11099243 .09225464 .11099243 .07525635 .11099243 .02822876 .15098572-.009765625 .20599365-.009765625 .30599977-.009765625 .34999085 .12828064 .34999085 .14328003 .34999085 .15628052 .33699037 .15628052 .33399964 .15628052 .31999208 .15628052 .31900025 .15028382 .31498719 .13928223 .2919922 .059249879 .24798584 .018234253 .20899964 .018234253 .18899536 .018234253 .18399048 .031234742 .18399048 .053237916 .18399048 .07624817 .19099427 .09526062 .19999695 .117263797 .20999146 .14428711 .22099304 .17129517 .23199463 .1973114 .24099732 .22131348 .2769928 .3123474 .2809906 .32435609 .28399659 .33436585 .2869873 .3463745 .2869873 .35636903 .2869873 .4033966 .24699402 .44140626 .19198609 .44140626 .09298706 .44140626 .04699707 .3053589 .04699707 .28834535 .04699707 .27534486 .06098938 .27534486 .06399536 .27534486 .07798767 .27534486 .07899475 .28033448 .08198547 .29135133 .10798645 .37738038 .1519928 .4133911 .18899536 .4133911 .20498657 .4133911 .21398926 .4053955 .21398926 .37838746 .21398926 .3553772 .20799256 .34036256 .18299866 .27833558L.11999512 .117263797Z"/>
<path id="font_1_4" d="M.43899537 .6253052C.43899537 .64230349 .42599488 .66329959 .39898683 .66329959 .36999513 .66329959 .34298707 .6352997 .34298707 .6083069 .34298707 .5923004 .35499574 .5703125 .3829956 .5703125 .4099884 .5703125 .43899537 .5962982 .43899537 .6253052M.22698975-.04901123C.20999146-.11804199 .15699768-.17610169 .09799194-.17610169 .084991458-.17610169 .07299805-.17408753 .06199646-.17004395 .08799744-.15803528 .09599304-.1340332 .09599304-.11903381 .09599304-.09503174 .07699585-.08203125 .056991579-.08203125 .025985718-.08203125 0-.10903931 0-.14103699 0-.17910767 .038986207-.20410156 .09899902-.20410156 .15899658-.20410156 .27598573-.16804505 .30699159-.04600525L.39698792 .31230165C.3999939 .32331849 .4019928 .33232118 .4019928 .34733583 .4019928 .40238954 .35499574 .44140626 .29499818 .44140626 .18399048 .44140626 .11999512 .30230714 .11999512 .2882843 .11999512 .27526856 .13398743 .27526856 .13699341 .27526856 .14898682 .27526856 .1499939 .27827455 .15699768 .29328919 .18199158 .35134889 .23399353 .4133911 .2919922 .4133911 .31698609 .4133911 .32598878 .39637757 .32598878 .36434938 .32598878 .35334779 .32398988 .33932496 .32299806 .33433534L.22698975-.04901123Z"/>
<path id="font_1_5" d="M.31298829 .66430667C.31399537 .66630557 .31698609 .67930606 .31698609 .68029788 .31698609 .68530276 .31298829 .6943054 .30099488 .6943054 .2809906 .6943054 .19799805 .6863098 .17298889 .6843109 .16499329 .68330386 .15098572 .682312 .15098572 .66130068 .15098572 .64730837 .16499329 .64730837 .1769867 .64730837 .22499085 .64730837 .22499085 .64030459 .22499085 .63230898 .22499085 .62532046 .22299195 .61932376 .22099304 .61032107L.07998657 .04425049C.07499695 .026229859 .07499695 .024230957 .07499695 .022232056 .07499695 .007232666 .08699036-.009765625 .10899353-.009765625 .13598633-.009765625 .14898682 .010223389 .15499878 .03224182 .15699768 .036239625 .19999695 .21234131 .20399475 .22636414 .2749939 .21936035 .33198548 .19633484 .33198548 .14430237 .33198548 .13929749 .33198548 .1342926 .32998658 .124298099 .32598878 .10928345 .32598878 .104278568 .32598878 .09327698 .32598878 .022232056 .38398744-.009765625 .43199159-.009765625 .5289917-.009765625 .5589905 .14230347 .5589905 .14331055 .5589905 .15631104 .54599 .15631104 .54299929 .15631104 .5289917 .15631104 .5279999 .15130615 .522995 .1322937 .5109863 .089263919 .48399354 .018234253 .43499757 .018234253 .4079895 .018234253 .3999939 .04324341 .3999939 .07026672 .3999939 .087265018 .3999939 .089263919 .4059906 .11528015 .40699769 .11828613 .41099549 .13529969 .41099549 .14630127 .41099549 .23536682 .29100038 .24937439 .24899292 .25238038 .27799989 .27038575 .31498719 .30340577 .33198548 .31840516 .3829956 .3664093 .43299867 .4133911 .4889984 .4133911 .5009918 .4133911 .5139923 .4104004 .5219879 .40040589 .47898866 .3934021 .46998597 .35940553 .46998597 .34440614 .46998597 .32240296 .4869995 .30740357 .5099945 .30740357 .5369873 .30740357 .5669861 .32940675 .5669861 .37139894 .5669861 .4044037 .54299929 .44140626 .48999024 .44140626 .43299867 .44140626 .3809967 .40040589 .32998658 .3534088 .28799439 .31340028 .25498963 .2823944 .21398926 .26538087L.31298829 .66430667Z"/>
<path id="font_1_6" d="M.28199769 .66430667C.2829895 .66630557 .28599549 .67930606 .28599549 .68029788 .28599549 .68530276 .28199769 .6943054 .269989 .6943054 .25 .6943054 .16699219 .6863098 .14199829 .6843109 .1349945 .68330386 .12098694 .682312 .12098694 .66130068 .12098694 .64730837 .1349945 .64730837 .1459961 .64730837 .19400025 .64730837 .19400025 .64030459 .19400025 .6322937 .19400025 .6253052 .19198609 .6192932 .18998719 .6103058L.06599426 .116241458C.06298828 .10623169 .06199646 .0952301 .06199646 .085235599 .06199646 .021224976 .11898804-.009765625 .16699219-.009765625 .19099427-.009765625 .22099304-.0017700195 .24699402 .04322815 .2679901 .08023071 .28199769 .13923645 .28199769 .14324951 .28199769 .15625 .2689972 .15625 .2659912 .15625 .2519989 .15625 .25 .15023804 .24598694 .13224793 .23298645 .082229617 .21398926 .018234253 .17098999 .018234253 .14399719 .018234253 .13699341 .04322815 .13699341 .067230228 .13699341 .07823181 .13999939 .097229007 .14299011 .10823059L.28199769 .66430667Z"/>
</defs>
<path transform="matrix(1,0,0,-1.00005,9.181999,28.576979)" d="M7.08669 0C7.08669 3.91391 3.91391 7.08669 0 7.08669-3.91391 7.08669-7.08669 3.91391-7.08669 0-7.08669-3.91391-3.91391-7.08669 0-7.08669 3.91391-7.08669 7.08669-3.91391 7.08669 0ZM0 0" fill="#adadad"/>
<path transform="matrix(1,0,0,-1.00005,9.181999,28.576979)" stroke-width=".3985" stroke-linecap="butt" stroke-miterlimit="10" stroke-linejoin="miter" fill="none" stroke="#000000" d="M7.08669 0C7.08669 3.91391 3.91391 7.08669 0 7.08669-3.91391 7.08669-7.08669 3.91391-7.08669 0-7.08669-3.91391-3.91391-7.08669 0-7.08669 3.91391-7.08669 7.08669-3.91391 7.08669 0ZM0 0"/>
<use data-text="g" xlink:href="#font_1_1" transform="matrix(6.9738,0,0,-6.9741489,7.1139986,29.40002)"/>
<path transform="matrix(1,0,0,-1.00005,9.181999,28.576979)" d="M35.43349 0C35.43349 3.91391 32.26071 7.08669 28.3468 7.08669 24.43289 7.08669 21.26012 3.91391 21.26012 0 21.26012-3.91391 24.43289-7.08669 28.3468-7.08669 32.26071-7.08669 35.43349-3.91391 35.43349 0ZM28.3468 0" fill="#adadad"/>
<path transform="matrix(1,0,0,-1.00005,9.181999,28.576979)" stroke-width=".3985" stroke-linecap="butt" stroke-miterlimit="10" stroke-linejoin="miter" fill="none" stroke="#000000" d="M35.43349 0C35.43349 3.91391 32.26071 7.08669 28.3468 7.08669 24.43289 7.08669 21.26012 3.91391 21.26012 0 21.26012-3.91391 24.43289-7.08669 28.3468-7.08669 32.26071-7.08669 35.43349-3.91391 35.43349 0ZM28.3468 0"/>
<use data-text="h" xlink:href="#font_1_2" transform="matrix(6.9738,0,0,-6.9741489,35.197,30.9981)"/>
<path transform="matrix(1,0,0,-1.00005,9.181999,28.576979)" d="M63.7803 0C63.7803 3.91391 60.60753 7.08669 56.69362 7.08669 52.7797 7.08669 49.60692 3.91391 49.60692 0 49.60692-3.91391 52.7797-7.08669 56.69362-7.08669 60.60753-7.08669 63.7803-3.91391 63.7803 0ZM56.69362 0" fill="#adadad"/>
<path transform="matrix(1,0,0,-1.00005,9.181999,28.576979)" stroke-width=".3985" stroke-linecap="butt" stroke-miterlimit="10" stroke-linejoin="miter" fill="none" stroke="#000000" d="M63.7803 0C63.7803 3.91391 60.60753 7.08669 56.69362 7.08669 52.7797 7.08669 49.60692 3.91391 49.60692 0 49.60692-3.91391 52.7797-7.08669 56.69362-7.08669 60.60753-7.08669 63.7803-3.91391 63.7803 0ZM56.69362 0"/>
<use data-text="i" xlink:href="#font_1_3" transform="matrix(6.9738,0,0,-6.9741489,64.466,30.884095)"/>
<path transform="matrix(1,0,0,-1.00005,9.181999,28.576979)" d="M92.1271 0C92.1271 3.91391 88.95435 7.08669 85.04042 7.08669 81.12651 7.08669 77.95374 3.91391 77.95374 0 77.95374-3.91391 81.12651-7.08669 85.04042-7.08669 88.95435-7.08669 92.1271-3.91391 92.1271 0ZM85.04042 0" fill="#adadad"/>
<path transform="matrix(1,0,0,-1.00005,9.181999,28.576979)" stroke-width=".3985" stroke-linecap="butt" stroke-miterlimit="10" stroke-linejoin="miter" fill="none" stroke="#000000" d="M92.1271 0C92.1271 3.91391 88.95435 7.08669 85.04042 7.08669 81.12651 7.08669 77.95374 3.91391 77.95374 0 77.95374-3.91391 81.12651-7.08669 85.04042-7.08669 88.95435-7.08669 92.1271-3.91391 92.1271 0ZM85.04042 0"/>
<use data-text="j" xlink:href="#font_1_4" transform="matrix(6.9738,0,0,-6.9741489,92.373,30.20606)"/>
<path transform="matrix(1,0,0,-1.00005,9.181999,28.576979)" d="M120.47392 0C120.47392 3.91391 117.30115 7.08669 113.38724 7.08669 109.47331 7.08669 106.30054 3.91391 106.30054 0 106.30054-3.91391 109.47331-7.08669 113.38724-7.08669 117.30115-7.08669 120.47392-3.91391 120.47392 0ZM113.38724 0" fill="#adadad"/>
<path transform="matrix(1,0,0,-1.00005,9.181999,28.576979)" stroke-width=".3985" stroke-linecap="butt" stroke-miterlimit="10" stroke-linejoin="miter" fill="none" stroke="#000000" d="M120.47392 0C120.47392 3.91391 117.30115 7.08669 113.38724 7.08669 109.47331 7.08669 106.30054 3.91391 106.30054 0 106.30054-3.91391 109.47331-7.08669 113.38724-7.08669 117.30115-7.08669 120.47392-3.91391 120.47392 0ZM113.38724 0"/>
<use data-text="k" xlink:href="#font_1_5" transform="matrix(6.9738,0,0,-6.9741489,120.367,30.9981)"/>
<path transform="matrix(1,0,0,-1.00005,9.181999,28.576979)" d="M148.82074 0C148.82074 3.91391 145.64797 7.08669 141.73404 7.08669 137.82013 7.08669 134.64736 3.91391 134.64736 0 134.64736-3.91391 137.82013-7.08669 141.73404-7.08669 145.64797-7.08669 148.82074-3.91391 148.82074 0ZM141.73404 0" fill="#adadad"/>
<path transform="matrix(1,0,0,-1.00005,9.181999,28.576979)" stroke-width=".3985" stroke-linecap="butt" stroke-miterlimit="10" stroke-linejoin="miter" fill="none" stroke="#000000" d="M148.82074 0C148.82074 3.91391 145.64797 7.08669 141.73404 7.08669 137.82013 7.08669 134.64736 3.91391 134.64736 0 134.64736-3.91391 137.82013-7.08669 141.73404-7.08669 145.64797-7.08669 148.82074-3.91391 148.82074 0ZM141.73404 0"/>
<use data-text="l" xlink:href="#font_1_6" transform="matrix(6.9738,0,0,-6.9741489,149.63599,30.9981)"/>
<path transform="matrix(1,0,0,-1.00005,9.181999,28.576979)" stroke-width=".79701" stroke-linecap="butt" stroke-miterlimit="10" stroke-linejoin="miter" fill="none" stroke="#000000" d="M35.63275 0H49.40767M63.97955 0H77.75449M92.32637 0H106.10129M120.67317 0H134.4481"/>
<path transform="matrix(1,0,0,-1.00005,9.181999,28.576979)" stroke-width=".79701" stroke-linecap="butt" stroke-miterlimit="10" stroke-linejoin="miter" fill="none" stroke="#000000" d="M5.15193-5.15193C41.39401-41.3939 100.34003-41.3939 136.5821-5.15193"/>
<path transform="matrix(1,0,0,-1.00005,9.181999,28.576979)" stroke-width=".79701" stroke-linecap="butt" stroke-miterlimit="10" stroke-linejoin="miter" fill="none" stroke="#000000" d="M33.49873 5.15182C61.92413 33.57721 108.15672 33.57721 136.5821 5.15182"/>
<path transform="matrix(1,0,0,-1.00005,9.181999,28.576979)" stroke-width=".79701" stroke-linecap="butt" stroke-miterlimit="10" stroke-linejoin="miter" fill="none" stroke="#000000" d="M61.84555-5.15182C74.63756-17.94383 95.44328-17.94383 108.23529-5.15182"/>
</svg>
