<svg xmlns="http://www.w3.org/2000/svg" xmlns:xlink="http://www.w3.org/1999/xlink" xmlns:inkscape="http://www.inkscape.org/namespaces/inkscape" version="1.1" width="103" height="46" viewBox="0 0 103 46">
<defs>
<path id="font_1_1" d="M.07499695-.12220764C.067993167-.15031433 .06599426-.15834046 .025985718-.15834046 .0129852299-.15834046-.0010070801-.15834046-.0010070801-.17933655-.0010070801-.19033814 .0079956059-.19433594 .0129852299-.19433594 .038986207-.19433594 .07199097-.19033814 .09899902-.19033814 .1329956-.19033814 .17098999-.19433594 .20399475-.19433594 .21299744-.19433594 .22399903-.19134522 .22399903-.17234802 .22399903-.15834046 .20999146-.15834046 .19799805-.15834046 .17599488-.15834046 .14898682-.15834046 .14898682-.14630127 .14898682-.14128113 .1559906-.11517334 .1599884-.100112918 .17199707-.046920778 .18598938 .007232666 .19699097 .049240114 .20899964 .02923584 .23999024-.009765625 .2999878-.009765625 .42199708-.009765625 .5569916 .12527466 .5569916 .27433778 .5569916 .39138795 .47599793 .44140626 .40699769 .44140626 .34498597 .44140626 .2919922 .3993988 .2649994 .37138368 .24798584 .42840577 .19198609 .44140626 .1619873 .44140626 .12298584 .44140626 .09899902 .41540528 .08299255 .38838197 .06298828 .35437013 .04699707 .29434205 .04699707 .28834535 .04699707 .27534486 .06098938 .27534486 .06399536 .27534486 .07798767 .27534486 .07899475 .27833558 .085998538 .3053589 .100997928 .3633728 .11999512 .4133911 .15899658 .4133911 .18499756 .4133911 .19198609 .39138795 .19198609 .36437989 .19198609 .3533783 .18998719 .34036256 .18899536 .33436585L.07499695-.12220764M.2639923 .32136537C.32199098 .39839173 .37199403 .4133911 .4039917 .4133911 .44299317 .4133911 .47698976 .38438417 .47698976 .31636048 .47698976 .27534486 .45498658 .17329407 .4249878 .11526489 .3999939 .06625366 .35099793 .018234253 .2999878 .018234253 .22898865 .018234253 .21099854 .09526062 .21099854 .105270389 .21099854 .10926819 .21299744 .11627197 .21398926 .120269779L.2639923 .32136537Z"/>
<path id="font_1_2" d="M.5089874 .4123993C.5099945 .4163971 .5109863 .4223938 .5109863 .42739869 .5109863 .4333954 .5069885 .44140626 .49798585 .44140626 .48799134 .44140626 .44599916 .4073944 .42599488 .37538148 .41600038 .39538575 .3829956 .44140626 .31900025 .44140626 .19099427 .44140626 .06098938 .300354 .06098938 .15628052 .06098938 .059249879 .12599182-.009765625 .21199036-.009765625 .2689972-.009765625 .31599427 .026229859 .33799745 .04524231 .33699037 .042236329 .30599977-.08406067 .3019867-.101119998 .28799439-.15634156 .2869873-.15733338 .22499085-.15834046 .21299744-.15834046 .19898987-.15834046 .19898987-.18034363 .19898987-.18634033 .20399475-.19433594 .21398926-.19433594 .24699402-.19433594 .28399659-.19033814 .31799317-.19033814 .35198976-.19033814 .3939972-.19433594 .4249878-.19433594 .43399049-.19433594 .44499208-.19134522 .44499208-.17234802 .44499208-.15834046 .43099977-.15834046 .4189911-.15834046 .39698792-.15834046 .36999513-.15834046 .36999513-.14630127 .36999513-.14328003 .36999513-.14128113 .375-.12420654L.5089874 .4123993M.35798646 .12626648C.35299684 .10926819 .35299684 .10726929 .33999635 .09126282 .30099488 .04524231 .2539978 .018234253 .21499634 .018234253 .17799378 .018234253 .14199829 .04423523 .14199829 .11526489 .14199829 .16828919 .17098999 .27833558 .19400025 .31835938 .23999024 .39839173 .29100038 .4133911 .31900025 .4133911 .3889923 .4133911 .4079895 .33636476 .4079895 .32635499 .4079895 .32136537 .4059906 .3153534 .40499879 .3113556L.35798646 .12626648Z"/>
<path id="font_1_3" d="M.23498535 .2023468C.23599243 .2083435 .25898744 .29840089 .26098634 .30340577 .2630005 .31140138 .2919922 .36140443 .32398988 .3854065 .33499146 .3934021 .3619995 .4133911 .40499879 .4133911 .4149933 .4133911 .43998719 .4123993 .45999146 .39941407 .42799378 .39041139 .41600038 .3624115 .41600038 .34440614 .41600038 .32240296 .43299867 .30740357 .45599366 .30740357 .47898866 .30740357 .5119934 .32640077 .5119934 .3684082 .5119934 .4203949 .45700074 .44140626 .4059906 .44140626 .35398866 .44140626 .30899049 .4203949 .2649994 .3704071 .24699402 .43139649 .18598938 .44140626 .1619873 .44140626 .125 .44140626 .099990848 .418396 .083999637 .39041139 .06098938 .3514099 .04699707 .293396 .04699707 .2883911 .04699707 .27539063 .06098938 .27539063 .06399536 .27539063 .07798767 .27539063 .07899475 .2783966 .085998538 .30540467 .100997928 .3664093 .11999512 .4133911 .15899658 .4133911 .18499756 .4133911 .19198609 .3914032 .19198609 .3644104 .19198609 .3454132 .18299866 .30841065 .17599488 .28138734 .16899109 .25437928 .15899658 .21334839 .1539917 .19132996L.12199402 .06326294C.117996219 .050247194 .11199951 .025238038 .11199951 .022232056 .11199951 .00022888184 .12998963-.009765625 .1459961-.009765625 .16099549-.009765625 .18099976-.00077819827 .18899536 .019226075 .19099427 .025238038 .20199585 .06925964 .20799256 .09428406L.23498535 .2023468Z"/>
<path id="font_1_4" d="M.43099977 .37594605C.40499879 .36994935 .3889923 .348938 .3889923 .32894898 .3889923 .30593873 .40899659 .2969513 .42199708 .2969513 .43199159 .2969513 .46998597 .302948 .46998597 .35394288 .46998597 .41940309 .397995 .44140626 .33699037 .44140626 .18099976 .44140626 .15299988 .325943 .15299988 .2949524 .15299988 .25804139 .17399597 .23410034 .18798828 .22212219 .21398926 .20217896 .23199463 .19818115 .30099488 .18621826 .32199098 .18222046 .38598634 .17025757 .38598634 .120285037 .38598634 .10328674 .375 .06529236 .33299256 .040252687 .2939911 .018234253 .24499512 .018234253 .23298645 .018234253 .19299317 .018234253 .13598633 .027236939 .11299133 .060287477 .1459961 .06428528 .16799927 .08929443 .16799927 .11729431 .16799927 .14228821 .1499939 .15429688 .1289978 .15429688 .099990848 .15429688 .070999149 .13128662 .070999149 .08729553 .070999149 .027236939 .1349945-.009765625 .23199463-.009765625 .41600038-.009765625 .44999696 .11628723 .44999696 .1552887 .44999696 .24707031 .34899903 .26501466 .31199647 .27200318 .30299378 .27400209 .27799989 .27798463 .27198792 .27998353 .23498535 .28697206 .21699524 .30795289 .21699524 .3299408 .21699524 .35295106 .23498535 .37998963 .25698854 .39416505 .28399659 .41137696 .31900025 .4133911 .33599855 .4133911 .35699464 .4133911 .40899659 .4103546 .43099977 .37594605Z"/>
<path id="font_1_5" d="M.24598694 .39465333H.34799195C.36698915 .39465333 .37998963 .39465333 .37998963 .4166565 .37998963 .43066407 .36698915 .43066407 .34999085 .43066407H.25498963L.2919922 .57850649C.29299928 .58351138 .29499818 .588501 .29499818 .5924988 .29499818 .6104889 .2809906 .6244812 .26098634 .6244812 .23599243 .6244812 .22099304 .6074829 .21398926 .58151248 .20698548 .5565338 .21998596 .6044922 .17599488 .43066407H.07398987C.054992677 .43066407 .041992189 .43066407 .041992189 .4086609 .041992189 .39465333 .053985597 .39465333 .07199097 .39465333H.16699219L.10798645 .15901184C.101989749 .13404846 .09298706 .098098758 .09298706 .085128787 .09298706 .0262146 .14299011-.009765625 .19999695-.009765625 .31098939-.009765625 .37399293 .13005066 .37399293 .14303589 .37399293 .15602112 .36099244 .15602112 .35798646 .15602112 .34599305 .15602112 .34498597 .15402222 .33699037 .13703919 .30899049 .074142459 .2579956 .018234253 .20298767 .018234253 .18199158 .018234253 .16799927 .031204224 .16799927 .06715393 .16799927 .07713318 .17199707 .098098758 .17399597 .10809326L.24598694 .39465333Z"/>
<path id="font_1_6" d="M.4229889 .16229248C.41799928 .14228821 .40899659 .104263309 .40699769 .103256229 .3880005 .072250369 .34799195 .018234253 .28599549 .018234253 .21699524 .018234253 .21699524 .08325195 .21699524 .101257327 .21699524 .16029358 .24499512 .23132324 .272995 .3043518 .2809906 .32435609 .2869873 .33937074 .2869873 .3553772 .2869873 .4073944 .24299622 .44140626 .19198609 .44140626 .09199524 .44140626 .04699707 .3043518 .04699707 .28834535 .04699707 .27534486 .06098938 .27534486 .06399536 .27534486 .07798767 .27534486 .07899475 .28033448 .08198547 .29135133 .10598755 .37338258 .1499939 .4133911 .18899536 .4133911 .20599365 .4133911 .21398926 .40238954 .21398926 .37838746 .21398926 .3553772 .20599365 .33436585 .19599915 .3113556 .14199829 .17329407 .14199829 .14428711 .14199829 .117263797 .14199829 .1002655 .14199829 .054244996 .1789856 .022232056 .20799256-.0017700195 .24699402-.009765625 .28199769-.009765625 .34498597-.009765625 .3789978 .024230957 .4119873 .056243898 .43399049-.0077667238 .5009918-.009765625 .5130005-.009765625 .5469971-.009765625 .57299807 .010223389 .59199526 .04324341 .6139984 .08226013 .6279907 .14027405 .6279907 .14328003 .6279907 .15628052 .6139984 .15628052 .61099246 .15628052 .5970001 .15628052 .59599307 .15228272 .58898928 .12527466 .57699587 .07824707 .55799868 .018234253 .5159912 .018234253 .48999024 .018234253 .48298646 .041229249 .48298646 .06724548 .48298646 .08425903 .4909973 .120269779 .49798585 .14628601 .5049896 .17329407 .5149994 .21430969 .519989 .23632813L.54299929 .32536317C.548996 .3503723 .55999758 .39439393 .55999758 .3993988 .55999758 .41940309 .5439911 .43139649 .5269928 .43139649 .48999024 .43139649 .48298646 .40238954 .47499085 .3703766L.4229889 .16229248Z"/>
</defs>
<path transform="matrix(1.00002,0,0,-1.00002,9.181808,37.232427)" d="M7.08669 28.3468C7.08669 32.26071 3.91391 35.43349 0 35.43349-3.91391 35.43349-7.08669 32.26071-7.08669 28.3468-7.08669 24.43289-3.91391 21.26012 0 21.26012 3.91391 21.26012 7.08669 24.43289 7.08669 28.3468ZM0 28.3468" fill="#adadad"/>
<path transform="matrix(1.00002,0,0,-1.00002,9.181808,37.232427)" stroke-width=".3985" stroke-linecap="butt" stroke-miterlimit="10" stroke-linejoin="miter" fill="none" stroke="#000000" d="M7.08669 28.3468C7.08669 32.26071 3.91391 35.43349 0 35.43349-3.91391 35.43349-7.08669 32.26071-7.08669 28.3468-7.08669 24.43289-3.91391 21.26012 0 21.26012 3.91391 21.26012 7.08669 24.43289 7.08669 28.3468ZM0 28.3468"/>
<use data-text="p" xlink:href="#font_1_1" transform="matrix(6.97394,0,0,-6.97394,7.1277697,9.708874)"/>
<path transform="matrix(1.00002,0,0,-1.00002,9.181808,37.232427)" d="M35.43349 28.3468C35.43349 32.26071 32.26071 35.43349 28.3468 35.43349 24.43289 35.43349 21.26012 32.26071 21.26012 28.3468 21.26012 24.43289 24.43289 21.26012 28.3468 21.26012 32.26071 21.26012 35.43349 24.43289 35.43349 28.3468ZM28.3468 28.3468" fill="#adadad"/>
<path transform="matrix(1.00002,0,0,-1.00002,9.181808,37.232427)" stroke-width=".3985" stroke-linecap="butt" stroke-miterlimit="10" stroke-linejoin="miter" fill="none" stroke="#000000" d="M35.43349 28.3468C35.43349 32.26071 32.26071 35.43349 28.3468 35.43349 24.43289 35.43349 21.26012 32.26071 21.26012 28.3468 21.26012 24.43289 24.43289 21.26012 28.3468 21.26012 32.26071 21.26012 35.43349 24.43289 35.43349 28.3468ZM28.3468 28.3468"/>
<use data-text="q" xlink:href="#font_1_2" transform="matrix(6.97394,0,0,-6.97394,35.57834,9.708874)"/>
<path transform="matrix(1.00002,0,0,-1.00002,9.181808,37.232427)" d="M63.7803 28.3468C63.7803 32.26071 60.60753 35.43349 56.69362 35.43349 52.7797 35.43349 49.60692 32.26071 49.60692 28.3468 49.60692 24.43289 52.7797 21.26012 56.69362 21.26012 60.60753 21.26012 63.7803 24.43289 63.7803 28.3468ZM56.69362 28.3468" fill="#adadad"/>
<path transform="matrix(1.00002,0,0,-1.00002,9.181808,37.232427)" stroke-width=".3985" stroke-linecap="butt" stroke-miterlimit="10" stroke-linejoin="miter" fill="none" stroke="#000000" d="M63.7803 28.3468C63.7803 32.26071 60.60753 35.43349 56.69362 35.43349 52.7797 35.43349 49.60692 32.26071 49.60692 28.3468 49.60692 24.43289 52.7797 21.26012 56.69362 21.26012 60.60753 21.26012 63.7803 24.43289 63.7803 28.3468ZM56.69362 28.3468"/>
<use data-text="r" xlink:href="#font_1_3" transform="matrix(6.97394,0,0,-6.97394,63.919904,10.3868889)"/>
<path transform="matrix(1.00002,0,0,-1.00002,9.181808,37.232427)" d="M92.1271 28.3468C92.1271 32.26071 88.95435 35.43349 85.04042 35.43349 81.12651 35.43349 77.95374 32.26071 77.95374 28.3468 77.95374 24.43289 81.12651 21.26012 85.04042 21.26012 88.95435 21.26012 92.1271 24.43289 92.1271 28.3468ZM85.04042 28.3468" fill="#adadad"/>
<path transform="matrix(1.00002,0,0,-1.00002,9.181808,37.232427)" stroke-width=".3985" stroke-linecap="butt" stroke-miterlimit="10" stroke-linejoin="miter" fill="none" stroke="#000000" d="M92.1271 28.3468C92.1271 32.26071 88.95435 35.43349 85.04042 35.43349 81.12651 35.43349 77.95374 32.26071 77.95374 28.3468 77.95374 24.43289 81.12651 21.26012 85.04042 21.26012 88.95435 21.26012 92.1271 24.43289 92.1271 28.3468ZM85.04042 28.3468"/>
<use data-text="s" xlink:href="#font_1_4" transform="matrix(6.97394,0,0,-6.97394,92.343479,10.3868889)"/>
<path transform="matrix(1.00002,0,0,-1.00002,9.181808,37.232427)" d="M21.26009 0C21.26009 3.91391 18.08731 7.08669 14.17339 7.08669 10.25948 7.08669 7.0867 3.91391 7.0867 0 7.0867-3.91391 10.25948-7.08669 14.17339-7.08669 18.08731-7.08669 21.26009-3.91391 21.26009 0ZM14.17339 0" fill="#adadad"/>
<path transform="matrix(1.00002,0,0,-1.00002,9.181808,37.232427)" stroke-width=".3985" stroke-linecap="butt" stroke-miterlimit="10" stroke-linejoin="miter" fill="none" stroke="#000000" d="M21.26009 0C21.26009 3.91391 18.08731 7.08669 14.17339 7.08669 10.25948 7.08669 7.0867 3.91391 7.0867 0 7.0867-3.91391 10.25948-7.08669 14.17339-7.08669 18.08731-7.08669 21.26009-3.91391 21.26009 0ZM14.17339 0"/>
<use data-text="t" xlink:href="#font_1_5" transform="matrix(6.97394,0,0,-6.97394,21.851059,39.37747)"/>
<path transform="matrix(1.00002,0,0,-1.00002,9.181808,37.232427)" d="M49.60689 0C49.60689 3.91391 46.43411 7.08669 42.5202 7.08669 38.60628 7.08669 35.4335 3.91391 35.4335 0 35.4335-3.91391 38.60628-7.08669 42.5202-7.08669 46.43411-7.08669 49.60689-3.91391 49.60689 0ZM42.5202 0" fill="#adadad"/>
<path transform="matrix(1.00002,0,0,-1.00002,9.181808,37.232427)" stroke-width=".3985" stroke-linecap="butt" stroke-miterlimit="10" stroke-linejoin="miter" fill="none" stroke="#000000" d="M49.60689 0C49.60689 3.91391 46.43411 7.08669 42.5202 7.08669 38.60628 7.08669 35.4335 3.91391 35.4335 0 35.4335-3.91391 38.60628-7.08669 42.5202-7.08669 46.43411-7.08669 49.60689-3.91391 49.60689 0ZM42.5202 0"/>
<use data-text="u" xlink:href="#font_1_6" transform="matrix(6.97394,0,0,-6.97394,49.347616,38.733457)"/>
<path transform="matrix(1.00002,0,0,-1.00002,9.181808,37.232427)" stroke-width=".79701" stroke-linecap="butt" stroke-miterlimit="10" stroke-linejoin="miter" fill="none" stroke="#000000" d="M77.75449 28.3468H63.97955M49.40767 28.3468H35.63275M21.06085 28.3468H7.28593M3.25807 21.83054 10.91531 6.51639M21.45934 0H35.23425M45.77827 6.51627 53.43555 21.83054"/>
<path transform="matrix(1.00002,0,0,-1.00002,9.181808,37.232427)" stroke-width=".79701" stroke-linecap="butt" stroke-miterlimit="10" stroke-linejoin="miter" fill="none" stroke="#000000" d="M17.43146 6.51627 25.08873 21.83054"/>
</svg>
