<svg xmlns="http://www.w3.org/2000/svg" xmlns:xlink="http://www.w3.org/1999/xlink" xmlns:inkscape="http://www.inkscape.org/namespaces/inkscape" version="1.1" width="126" height="120" viewBox="0 0 126 120">
<defs>
<path id="font_1_1" d="M.5339966 .3633728C.5339966 .44140626 .4869995 .44239808 .48399354 .44239808 .45799256 .44239808 .42999269 .41540528 .42999269 .38938905 .42999269 .3723755 .43998719 .36437989 .44699098 .35836793 .46398927 .3443756 .48399354 .31835938 .48399354 .27833558 .48399354 .23332215 .41799928 .018234253 .29899598 .018234253 .21798706 .018234253 .21798706 .09025574 .21798706 .10726929 .21798706 .1532898 .23599243 .20930481 .272995 .3023529 .2809906 .32336427 .2869873 .33836366 .2869873 .3553772 .2869873 .4073944 .24299622 .44140626 .19198609 .44140626 .09199524 .44140626 .04699707 .3043518 .04699707 .28834535 .04699707 .27534486 .06098938 .27534486 .06399536 .27534486 .07798767 .27534486 .07899475 .28033448 .08198547 .29135133 .10598755 .37338258 .14898682 .4133911 .18899536 .4133911 .20599365 .4133911 .21398926 .40238954 .21398926 .37838746 .21398926 .3553772 .20599365 .33436585 .19599915 .3113556 .15299988 .20030213 .14199829 .1572876 .14199829 .121276859 .14199829 .022232056 .21998596-.009765625 .29599-.009765625 .46398927-.009765625 .5339966 .28134156 .5339966 .3633728Z"/>
<path id="font_2_1" d="M.397995 .63591006C.397995 .6660156 .394989 .6660156 .3619995 .6660156 .29100038 .6016083 .17999268 .6016083 .1599884 .6016083H.14299011V.5576172H.1599884C.18299866 .5576172 .24798584 .5606079 .30599977 .58561709V.08596802C.30599977 .054977418 .30599977 .04399109 .19999695 .04399109H.1499939V0C.20498657 .0039978029 .2939911 .0039978029 .35198976 .0039978029 .4099884 .0039978029 .49899293 .0039978029 .55400088 0V.04399109H.5039978C.397995 .04399109 .397995 .054977418 .397995 .08596802V.63591006Z"/>
<path id="font_2_2" d="M.58898928 .19296265H.5469971C.5439911 .17396546 .5339966 .11198425 .5179901 .101989749 .5099945 .09599304 .42599488 .09599304 .41099549 .09599304H.21499634C.2809906 .14497376 .35499574 .20095825 .4149933 .24093628 .5049896 .30291749 .58898928 .36090089 .58898928 .46687318 .58898928 .59495547 .46798707 .6660156 .32499696 .6660156 .18998719 .6660156 .09098816 .58795168 .09098816 .48986817 .09098816 .4378662 .1349945 .42886354 .14898682 .42886354 .17599488 .42886354 .20799256 .4468689 .20799256 .48786927 .20799256 .52386477 .18199158 .543869 .15098572 .546875 .1789856 .59194949 .23699951 .6220093 .3039856 .6220093 .40098573 .6220093 .48199464 .5639038 .48199464 .4658661 .48199464 .3818817 .42399598 .31791688 .34700013 .2529297L.102996829 .04598999C.09298706 .036987306 .09199524 .036987306 .09098816 .02999878V0H.55599978L.58898928 .19296265Z"/>
<path id="font_2_3" d="M.32998658 .3310547C.42199708 .3310547 .48298646 .2737732 .48298646 .17437744 .48298646 .07237244 .41999818 .01852417 .33099366 .01852417 .31999208 .01852417 .20098877 .01852417 .1499939 .070373538 .19099427 .07637024 .20298767 .1073761 .20298767 .13137818 .20298767 .16838074 .1749878 .19238281 .14199829 .19238281 .10998535 .19238281 .07998657 .17137146 .07998657 .12937927 .07998657 .025512696 .19799805-.022460938 .33399964-.022460938 .49798585-.022460938 .59999087 .07637024 .59999087 .17337036 .59999087 .25567628 .5269928 .3260193 .41299439 .35205079 .5329895 .3909912 .5649872 .46684266 .5649872 .5228424 .5649872 .60491946 .46299745 .6660156 .33699037 .6660156 .21398926 .6660156 .114990238 .61395266 .114990238 .5238342 .114990238 .47683717 .15299988 .46484376 .17199707 .46484376 .20098877 .46484376 .22898865 .48583985 .22898865 .5218353 .22898865 .5448303 .21699524 .5728302 .18099976 .57884219 .22399903 .625 .31298829 .628006 .33399964 .628006 .40699769 .628006 .45899964 .5908661 .45899964 .5228424 .45899964 .46484376 .42099 .37402345 .31599427 .368042 .28799439 .3670349 .28399659 .3660431 .2579956 .365036 .24699402 .3640442 .23599243 .36305238 .23599243 .34805299 .23599243 .3310547 .24598694 .3310547 .2639923 .3310547H.32998658Z"/>
<path id="font_2_4" d="M.61698916 .1630249V.20703125H.49198915V.64675906C.49198915 .67074587 .4909973 .6767578 .46499635 .6767578 .44499208 .6767578 .44400025 .67575076 .43299867 .66174319L.06298828 .20703125V.1630249H.3959961V.085006717C.3959961 .054000856 .3959961 .04399109 .30899049 .04399109H.27398683V0C.32099916 .0019989014 .38598634 .0039978029 .44400025 .0039978029 .5019989 .0039978029 .56599429 .0019989014 .6139984 0V.04399109H.57899478C.49198915 .04399109 .49198915 .054000856 .49198915 .085006717V.1630249H.61698916M.4039917 .5688019V.20703125H.10998535L.4039917 .5688019Z"/>
<path id="font_2_5" d="M.19599915 .55078127C.24899292 .53778079 .2939911 .53778079 .30499269 .53778079 .37298585 .53778079 .4229889 .55778506 .44898988 .57177737 .47299195 .583786 .54100039 .6267853 .54100039 .64878848 .54100039 .66378787 .5299988 .66578677 .5269928 .66578677 .5249939 .66578677 .522995 .66578677 .5119934 .66078189 .47399903 .6477814 .4119873 .63378909 .34599305 .63378909 .2889862 .63378909 .23399353 .64378359 .18099976 .66178897 .16999817 .66578677 .16799927 .66578677 .1659851 .66578677 .1519928 .66578677 .1519928 .6537781 .1519928 .63778689V.33763124C.1519928 .32061769 .1519928 .30760194 .17098999 .30760194 .18199158 .30760194 .18299866 .30960084 .19198609 .32061769 .22999573 .36468507 .2829895 .38671876 .35099793 .38671876 .40899659 .38671876 .44099427 .35266114 .45498658 .33163453 .47799684 .2975769 .48298646 .2525177 .48298646 .20446778 .48298646 .16246033 .47898866 .10646057 .43998719 .067489627 .394989 .021530152 .33799745 .01852417 .31599427 .01852417 .25099183 .01852417 .17799378 .04650879 .14698792 .10546875 .18899536 .10845947 .20298767 .13845825 .20298767 .1614685 .20298767 .19346619 .1789856 .21746826 .14698792 .21746826 .125 .21746826 .09098816 .20446778 .09098816 .15846253 .09098816 .0605011 .18699646-.022460938 .31799317-.022460938 .46699525-.022460938 .58898928 .07748413 .58898928 .20146179 .58898928 .3146057 .49198915 .41970826 .35299684 .41970826 .2899933 .41970826 .23899842 .40371705 .19599915 .37068177V.55078127Z"/>
</defs>
<path transform="matrix(1.00002,0,0,-1.00005,63.101884,65.581478)" d="M61.006 17.5195C61.006 21.43341 57.83322 24.60619 53.91931 24.60619 50.0054 24.60619 46.83263 21.43341 46.83263 17.5195 46.83263 13.60558 50.0054 10.4328 53.91931 10.4328 57.83322 10.4328 61.006 13.60558 61.006 17.5195ZM53.91931 17.5195" fill="#adadad"/>
<path transform="matrix(1.00002,0,0,-1.00005,63.101884,65.581478)" stroke-width=".3985" stroke-linecap="butt" stroke-miterlimit="10" stroke-linejoin="miter" fill="none" stroke="#000000" d="M61.006 17.5195C61.006 21.43341 57.83322 24.60619 53.91931 24.60619 50.0054 24.60619 46.83263 21.43341 46.83263 17.5195 46.83263 13.60558 50.0054 10.4328 53.91931 10.4328 57.83322 10.4328 61.006 13.60558 61.006 17.5195ZM53.91931 17.5195"/>
<use data-text="v" xlink:href="#font_1_1" transform="matrix(6.97394,0,0,-6.9741489,113.085887,49.064649)"/>
<use data-text="1" xlink:href="#font_2_1" transform="matrix(4.9813997,0,0,-4.981549,117.07096,50.060697)"/>
<path transform="matrix(1.00002,0,0,-1.00005,63.101884,65.581478)" d="M7.08669 56.69362C7.08669 60.60753 3.91391 63.7803 0 63.7803-3.91391 63.7803-7.08669 60.60753-7.08669 56.69362-7.08669 52.7797-3.91391 49.60692 0 49.60692 3.91391 49.60692 7.08669 52.7797 7.08669 56.69362ZM0 56.69362" fill="#adadad"/>
<path transform="matrix(1.00002,0,0,-1.00005,63.101884,65.581478)" stroke-width=".3985" stroke-linecap="butt" stroke-miterlimit="10" stroke-linejoin="miter" fill="none" stroke="#000000" d="M7.08669 56.69362C7.08669 60.60753 3.91391 63.7803 0 63.7803-3.91391 63.7803-7.08669 60.60753-7.08669 56.69362-7.08669 52.7797-3.91391 49.60692 0 49.60692 3.91391 49.60692 7.08669 52.7797 7.08669 56.69362ZM0 56.69362"/>
<use data-text="v" xlink:href="#font_1_1" transform="matrix(6.97394,0,0,-6.9741489,59.164804,9.888695)"/>
<use data-text="2" xlink:href="#font_2_2" transform="matrix(4.9813997,0,0,-4.981549,63.14988,10.884743)"/>
<path transform="matrix(1.00002,0,0,-1.00005,63.101884,65.581478)" d="M-46.83263 17.5195C-46.83263 21.43341-50.0054 24.60619-53.91931 24.60619-57.83322 24.60619-61.006 21.43341-61.006 17.5195-61.006 13.60558-57.83322 10.4328-53.91931 10.4328-50.0054 10.4328-46.83263 13.60558-46.83263 17.5195ZM-53.91931 17.5195" fill="#adadad"/>
<path transform="matrix(1.00002,0,0,-1.00005,63.101884,65.581478)" stroke-width=".3985" stroke-linecap="butt" stroke-miterlimit="10" stroke-linejoin="miter" fill="none" stroke="#000000" d="M-46.83263 17.5195C-46.83263 21.43341-50.0054 24.60619-53.91931 24.60619-57.83322 24.60619-61.006 21.43341-61.006 17.5195-61.006 13.60558-57.83322 10.4328-53.91931 10.4328-50.0054 10.4328-46.83263 13.60558-46.83263 17.5195ZM-53.91931 17.5195"/>
<use data-text="v" xlink:href="#font_1_1" transform="matrix(6.97394,0,0,-6.9741489,5.2447206,49.064649)"/>
<use data-text="3" xlink:href="#font_2_3" transform="matrix(4.9813997,0,0,-4.981549,9.229797,50.060697)"/>
<path transform="matrix(1.00002,0,0,-1.00005,63.101884,65.581478)" d="M-26.2369-45.8663C-26.2369-41.9524-29.40967-38.77962-33.32358-38.77962-37.2375-38.77962-40.41028-41.9524-40.41028-45.8663-40.41028-49.78023-37.2375-52.953-33.32358-52.953-29.40967-52.953-26.2369-49.78023-26.2369-45.8663ZM-33.32358-45.8663" fill="#adadad"/>
<path transform="matrix(1.00002,0,0,-1.00005,63.101884,65.581478)" stroke-width=".3985" stroke-linecap="butt" stroke-miterlimit="10" stroke-linejoin="miter" fill="none" stroke="#000000" d="M-26.2369-45.8663C-26.2369-41.9524-29.40967-38.77962-33.32358-38.77962-37.2375-38.77962-40.41028-41.9524-40.41028-45.8663-40.41028-49.78023-37.2375-52.953-33.32358-52.953-29.40967-52.953-26.2369-49.78023-26.2369-45.8663ZM-33.32358-45.8663"/>
<use data-text="v" xlink:href="#font_1_1" transform="matrix(6.97394,0,0,-6.9741489,25.84114,112.45381)"/>
<use data-text="4" xlink:href="#font_2_4" transform="matrix(4.9813997,0,0,-4.981549,29.826218,113.44986)"/>
<path transform="matrix(1.00002,0,0,-1.00005,63.101884,65.581478)" d="M40.41028-45.8663C40.41028-41.9524 37.2375-38.77962 33.32358-38.77962 29.40967-38.77962 26.2369-41.9524 26.2369-45.8663 26.2369-49.78023 29.40967-52.953 33.32358-52.953 37.2375-52.953 40.41028-49.78023 40.41028-45.8663ZM33.32358-45.8663" fill="#adadad"/>
<path transform="matrix(1.00002,0,0,-1.00005,63.101884,65.581478)" stroke-width=".3985" stroke-linecap="butt" stroke-miterlimit="10" stroke-linejoin="miter" fill="none" stroke="#000000" d="M40.41028-45.8663C40.41028-41.9524 37.2375-38.77962 33.32358-38.77962 29.40967-38.77962 26.2369-41.9524 26.2369-45.8663 26.2369-49.78023 29.40967-52.953 33.32358-52.953 37.2375-52.953 40.41028-49.78023 40.41028-45.8663ZM33.32358-45.8663"/>
<use data-text="v" xlink:href="#font_1_1" transform="matrix(6.97394,0,0,-6.9741489,92.48947,112.45381)"/>
<use data-text="5" xlink:href="#font_2_5" transform="matrix(4.9813997,0,0,-4.981549,96.47455,113.44986)"/>
<path transform="matrix(1.00002,0,0,-1.00005,63.101884,65.581478)" stroke-width=".79701" stroke-linecap="butt" stroke-miterlimit="10" stroke-linejoin="miter" fill="none" stroke="#000000" d="M-5.89447 52.41116-48.02484 21.80194M-51.66791 10.59021-35.57498-38.93701M-26.03764-45.8663H26.03764M35.57498-38.93701 51.66791 10.59021"/>
<path transform="matrix(1.00002,0,0,-1.00005,63.101884,65.581478)" stroke-width=".79701" stroke-linecap="butt" stroke-miterlimit="10" stroke-linejoin="miter" fill="none" stroke="#000000" d="M-2.25139 49.76433-31.07219-38.93701"/>
<path transform="matrix(1.00002,0,0,-1.00005,63.101884,65.581478)" stroke-width=".79701" stroke-linecap="butt" stroke-miterlimit="10" stroke-linejoin="miter" fill="none" stroke="#000000" d="M-46.63336 17.5195H46.63336"/>
<path transform="matrix(1.00002,0,0,-1.00005,63.101884,65.581478)" stroke-width=".79701" stroke-linecap="butt" stroke-miterlimit="10" stroke-linejoin="miter" fill="none" stroke="#000000" d="M-48.02495 13.23695 27.42921-41.58376"/>
</svg>
