<svg xmlns="http://www.w3.org/2000/svg" xmlns:xlink="http://www.w3.org/1999/xlink" xmlns:inkscape="http://www.inkscape.org/namespaces/inkscape" version="1.1" width="131" height="74" viewBox="0 0 131 74">
<defs>
<path id="font_1_2" d="M.2639923 .66430667C.2649994 .66630557 .2679901 .67930606 .2679901 .68029788 .2679901 .68530276 .2639923 .6943054 .2519989 .6943054 .23199463 .6943054 .14898682 .6863098 .12399292 .6843109 .115997318 .68330386 .101989749 .682312 .101989749 .66130068 .101989749 .64730837 .115997318 .64730837 .12799073 .64730837 .17599488 .64730837 .17599488 .64030459 .17599488 .63230898 .17599488 .62532046 .1659851 .58532717 .1599884 .5623474L.13699341 .4703827C.12799073 .43640138 .07299805 .21731568 .070999149 .20431519 .06599426 .18029785 .06599426 .16729737 .06599426 .1552887 .06599426 .054244996 .12998963-.009765625 .21299744-.009765625 .33799745-.009765625 .47099305 .12626648 .47099305 .27433778 .47099305 .39138795 .3899994 .44140626 .32099916 .44140626 .2689972 .44140626 .22499085 .4123993 .19499207 .38638307L.2639923 .66430667M.21398926 .018234253C.16499329 .018234253 .13699341 .06124878 .13699341 .120269779 .13699341 .1572876 .1459961 .19129944 .17399597 .3043518 .17999268 .32336427 .17999268 .32536317 .19898987 .34736634 .23699951 .39138795 .28199769 .4133911 .31799317 .4133911 .35699464 .4133911 .3909912 .38438417 .3909912 .31636048 .3909912 .27534486 .36898805 .17329407 .33898927 .11526489 .31498719 .06625366 .2649994 .018234253 .21398926 .018234253Z"/>
<path id="font_2_1" d="M.397995 .63591006C.397995 .6660156 .394989 .6660156 .3619995 .6660156 .29100038 .6016083 .17999268 .6016083 .1599884 .6016083H.14299011V.5576172H.1599884C.18299866 .5576172 .24798584 .5606079 .30599977 .58561709V.08596802C.30599977 .054977418 .30599977 .04399109 .19999695 .04399109H.1499939V0C.20498657 .0039978029 .2939911 .0039978029 .35198976 .0039978029 .4099884 .0039978029 .49899293 .0039978029 .55400088 0V.04399109H.5039978C.397995 .04399109 .397995 .054977418 .397995 .08596802V.63591006Z"/>
<path id="font_2_2" d="M.58898928 .19296265H.5469971C.5439911 .17396546 .5339966 .11198425 .5179901 .101989749 .5099945 .09599304 .42599488 .09599304 .41099549 .09599304H.21499634C.2809906 .14497376 .35499574 .20095825 .4149933 .24093628 .5049896 .30291749 .58898928 .36090089 .58898928 .46687318 .58898928 .59495547 .46798707 .6660156 .32499696 .6660156 .18998719 .6660156 .09098816 .58795168 .09098816 .48986817 .09098816 .4378662 .1349945 .42886354 .14898682 .42886354 .17599488 .42886354 .20799256 .4468689 .20799256 .48786927 .20799256 .52386477 .18199158 .543869 .15098572 .546875 .1789856 .59194949 .23699951 .6220093 .3039856 .6220093 .40098573 .6220093 .48199464 .5639038 .48199464 .4658661 .48199464 .3818817 .42399598 .31791688 .34700013 .2529297L.102996829 .04598999C.09298706 .036987306 .09199524 .036987306 .09098816 .02999878V0H.55599978L.58898928 .19296265Z"/>
<path id="font_2_3" d="M.32998658 .3310547C.42199708 .3310547 .48298646 .2737732 .48298646 .17437744 .48298646 .07237244 .41999818 .01852417 .33099366 .01852417 .31999208 .01852417 .20098877 .01852417 .1499939 .070373538 .19099427 .07637024 .20298767 .1073761 .20298767 .13137818 .20298767 .16838074 .1749878 .19238281 .14199829 .19238281 .10998535 .19238281 .07998657 .17137146 .07998657 .12937927 .07998657 .025512696 .19799805-.022460938 .33399964-.022460938 .49798585-.022460938 .59999087 .07637024 .59999087 .17337036 .59999087 .25567628 .5269928 .3260193 .41299439 .35205079 .5329895 .3909912 .5649872 .46684266 .5649872 .5228424 .5649872 .60491946 .46299745 .6660156 .33699037 .6660156 .21398926 .6660156 .114990238 .61395266 .114990238 .5238342 .114990238 .47683717 .15299988 .46484376 .17199707 .46484376 .20098877 .46484376 .22898865 .48583985 .22898865 .5218353 .22898865 .5448303 .21699524 .5728302 .18099976 .57884219 .22399903 .625 .31298829 .628006 .33399964 .628006 .40699769 .628006 .45899964 .5908661 .45899964 .5228424 .45899964 .46484376 .42099 .37402345 .31599427 .368042 .28799439 .3670349 .28399659 .3660431 .2579956 .365036 .24699402 .3640442 .23599243 .36305238 .23599243 .34805299 .23599243 .3310547 .24598694 .3310547 .2639923 .3310547H.32998658Z"/>
<path id="font_2_4" d="M.61698916 .1630249V.20703125H.49198915V.64675906C.49198915 .67074587 .4909973 .6767578 .46499635 .6767578 .44499208 .6767578 .44400025 .67575076 .43299867 .66174319L.06298828 .20703125V.1630249H.3959961V.085006717C.3959961 .054000856 .3959961 .04399109 .30899049 .04399109H.27398683V0C.32099916 .0019989014 .38598634 .0039978029 .44400025 .0039978029 .5019989 .0039978029 .56599429 .0019989014 .6139984 0V.04399109H.57899478C.49198915 .04399109 .49198915 .054000856 .49198915 .085006717V.1630249H.61698916M.4039917 .5688019V.20703125H.10998535L.4039917 .5688019Z"/>
<path id="font_2_5" d="M.19599915 .55078127C.24899292 .53778079 .2939911 .53778079 .30499269 .53778079 .37298585 .53778079 .4229889 .55778506 .44898988 .57177737 .47299195 .583786 .54100039 .6267853 .54100039 .64878848 .54100039 .66378787 .5299988 .66578677 .5269928 .66578677 .5249939 .66578677 .522995 .66578677 .5119934 .66078189 .47399903 .6477814 .4119873 .63378909 .34599305 .63378909 .2889862 .63378909 .23399353 .64378359 .18099976 .66178897 .16999817 .66578677 .16799927 .66578677 .1659851 .66578677 .1519928 .66578677 .1519928 .6537781 .1519928 .63778689V.33763124C.1519928 .32061769 .1519928 .30760194 .17098999 .30760194 .18199158 .30760194 .18299866 .30960084 .19198609 .32061769 .22999573 .36468507 .2829895 .38671876 .35099793 .38671876 .40899659 .38671876 .44099427 .35266114 .45498658 .33163453 .47799684 .2975769 .48298646 .2525177 .48298646 .20446778 .48298646 .16246033 .47898866 .10646057 .43998719 .067489627 .394989 .021530152 .33799745 .01852417 .31599427 .01852417 .25099183 .01852417 .17799378 .04650879 .14698792 .10546875 .18899536 .10845947 .20298767 .13845825 .20298767 .1614685 .20298767 .19346619 .1789856 .21746826 .14698792 .21746826 .125 .21746826 .09098816 .20446778 .09098816 .15846253 .09098816 .0605011 .18699646-.022460938 .31799317-.022460938 .46699525-.022460938 .58898928 .07748413 .58898928 .20146179 .58898928 .3146057 .49198915 .41970826 .35299684 .41970826 .2899933 .41970826 .23899842 .40371705 .19599915 .37068177V.55078127Z"/>
<path id="font_1_1" d="M.42199708 .38238526C.40098573 .41540528 .36698915 .44140626 .31900025 .44140626 .19099427 .44140626 .06098938 .300354 .06098938 .15628052 .06098938 .059249879 .12599182-.009765625 .21199036-.009765625 .2659912-.009765625 .31399537 .021224976 .35398866 .0602417 .37298585 .00022888184 .43099977-.009765625 .45700074-.009765625 .49299623-.009765625 .5179901 .01222229 .5359955 .04324341 .55799868 .08226013 .57099917 .13928223 .57099917 .14328003 .57099917 .15628052 .55799868 .15628052 .5549927 .15628052 .54100039 .15628052 .5399933 .15228272 .5329895 .12527466 .5209961 .07725525 .5019989 .018234253 .45999146 .018234253 .43399049 .018234253 .4269867 .040237428 .4269867 .06724548 .4269867 .08425903 .43499757 .120269779 .44198609 .14628601 .44898988 .17329407 .45899964 .21430969 .46398927 .23632813L.48399354 .3123474C.48999024 .33836366 .5019989 .38539125 .5019989 .39038087 .5019989 .4123993 .48399354 .4223938 .46798707 .4223938 .45098878 .4223938 .42799378 .4104004 .42199708 .38238526M.35798646 .12527466C.35099793 .09725952 .32899476 .07725525 .30699159 .058242799 .2979889 .050247194 .2579956 .018234253 .21499634 .018234253 .17799378 .018234253 .14199829 .04423523 .14199829 .11526489 .14199829 .16828919 .17098999 .27833558 .19400025 .31835938 .23999024 .39839173 .29100038 .4133911 .31900025 .4133911 .3889923 .4133911 .4079895 .33737184 .4079895 .32635499 .4079895 .32235719 .4059906 .3153534 .40499879 .3123474L.35798646 .12527466Z"/>
</defs>
<path transform="matrix(1,0,0,-1,-19.164002,65.578998)" d="M35.43349 0C35.43349 3.91391 32.26071 7.08669 28.3468 7.08669 24.43289 7.08669 21.26012 3.91391 21.26012 0 21.26012-3.91391 24.43289-7.08669 28.3468-7.08669 32.26071-7.08669 35.43349-3.91391 35.43349 0ZM28.3468 0" fill="#adadad"/>
<path transform="matrix(1,0,0,-1,-19.164002,65.578998)" stroke-width=".3985" stroke-linecap="butt" stroke-miterlimit="10" stroke-linejoin="miter" fill="none" stroke="#000000" d="M35.43349 0C35.43349 3.91391 32.26071 7.08669 28.3468 7.08669 24.43289 7.08669 21.26012 3.91391 21.26012 0 21.26012-3.91391 24.43289-7.08669 28.3468-7.08669 32.26071-7.08669 35.43349-3.91391 35.43349 0ZM28.3468 0"/>
<use data-text="b" xlink:href="#font_1_2" transform="matrix(6.9738,0,0,-6.9738,5.4869997,67.502)"/>
<use data-text="1" xlink:href="#font_2_1" transform="matrix(4.9813,0,0,-4.9813,8.990997,68.49799)"/>
<path transform="matrix(1,0,0,-1,-19.164002,65.578998)" d="M63.7803 0C63.7803 3.91391 60.60753 7.08669 56.69362 7.08669 52.7797 7.08669 49.60692 3.91391 49.60692 0 49.60692-3.91391 52.7797-7.08669 56.69362-7.08669 60.60753-7.08669 63.7803-3.91391 63.7803 0ZM56.69362 0" fill="#adadad"/>
<path transform="matrix(1,0,0,-1,-19.164002,65.578998)" stroke-width=".3985" stroke-linecap="butt" stroke-miterlimit="10" stroke-linejoin="miter" fill="none" stroke="#000000" d="M63.7803 0C63.7803 3.91391 60.60753 7.08669 56.69362 7.08669 52.7797 7.08669 49.60692 3.91391 49.60692 0 49.60692-3.91391 52.7797-7.08669 56.69362-7.08669 60.60753-7.08669 63.7803-3.91391 63.7803 0ZM56.69362 0"/>
<use data-text="b" xlink:href="#font_1_2" transform="matrix(6.9738,0,0,-6.9738,33.834,67.502)"/>
<use data-text="2" xlink:href="#font_2_2" transform="matrix(4.9813,0,0,-4.9813,37.337999,68.49799)"/>
<path transform="matrix(1,0,0,-1,-19.164002,65.578998)" d="M92.1271 0C92.1271 3.91391 88.95435 7.08669 85.04042 7.08669 81.12651 7.08669 77.95374 3.91391 77.95374 0 77.95374-3.91391 81.12651-7.08669 85.04042-7.08669 88.95435-7.08669 92.1271-3.91391 92.1271 0ZM85.04042 0" fill="#adadad"/>
<path transform="matrix(1,0,0,-1,-19.164002,65.578998)" stroke-width=".3985" stroke-linecap="butt" stroke-miterlimit="10" stroke-linejoin="miter" fill="none" stroke="#000000" d="M92.1271 0C92.1271 3.91391 88.95435 7.08669 85.04042 7.08669 81.12651 7.08669 77.95374 3.91391 77.95374 0 77.95374-3.91391 81.12651-7.08669 85.04042-7.08669 88.95435-7.08669 92.1271-3.91391 92.1271 0ZM85.04042 0"/>
<use data-text="b" xlink:href="#font_1_2" transform="matrix(6.9738,0,0,-6.9738,62.18,67.502)"/>
<use data-text="3" xlink:href="#font_2_3" transform="matrix(4.9813,0,0,-4.9813,65.684,68.49799)"/>
<path transform="matrix(1,0,0,-1,-19.164002,65.578998)" d="M120.47392 0C120.47392 3.91391 117.30115 7.08669 113.38724 7.08669 109.47331 7.08669 106.30054 3.91391 106.30054 0 106.30054-3.91391 109.47331-7.08669 113.38724-7.08669 117.30115-7.08669 120.47392-3.91391 120.47392 0ZM113.38724 0" fill="#adadad"/>
<path transform="matrix(1,0,0,-1,-19.164002,65.578998)" stroke-width=".3985" stroke-linecap="butt" stroke-miterlimit="10" stroke-linejoin="miter" fill="none" stroke="#000000" d="M120.47392 0C120.47392 3.91391 117.30115 7.08669 113.38724 7.08669 109.47331 7.08669 106.30054 3.91391 106.30054 0 106.30054-3.91391 109.47331-7.08669 113.38724-7.08669 117.30115-7.08669 120.47392-3.91391 120.47392 0ZM113.38724 0"/>
<use data-text="b" xlink:href="#font_1_2" transform="matrix(6.9738,0,0,-6.9738,90.527,67.502)"/>
<use data-text="4" xlink:href="#font_2_4" transform="matrix(4.9813,0,0,-4.9813,94.031,68.49799)"/>
<path transform="matrix(1,0,0,-1,-19.164002,65.578998)" d="M148.82074 0C148.82074 3.91391 145.64797 7.08669 141.73404 7.08669 137.82013 7.08669 134.64736 3.91391 134.64736 0 134.64736-3.91391 137.82013-7.08669 141.73404-7.08669 145.64797-7.08669 148.82074-3.91391 148.82074 0ZM141.73404 0" fill="#adadad"/>
<path transform="matrix(1,0,0,-1,-19.164002,65.578998)" stroke-width=".3985" stroke-linecap="butt" stroke-miterlimit="10" stroke-linejoin="miter" fill="none" stroke="#000000" d="M148.82074 0C148.82074 3.91391 145.64797 7.08669 141.73404 7.08669 137.82013 7.08669 134.64736 3.91391 134.64736 0 134.64736-3.91391 137.82013-7.08669 141.73404-7.08669 145.64797-7.08669 148.82074-3.91391 148.82074 0ZM141.73404 0"/>
<use data-text="b" xlink:href="#font_1_2" transform="matrix(6.9738,0,0,-6.9738,118.87399,67.502)"/>
<use data-text="5" xlink:href="#font_2_5" transform="matrix(4.9813,0,0,-4.9813,122.37799,68.49799)"/>
<path transform="matrix(1,0,0,-1,-19.164002,65.578998)" d="M49.60689 56.69362C49.60689 60.60753 46.43411 63.7803 42.5202 63.7803 38.60628 63.7803 35.4335 60.60753 35.4335 56.69362 35.4335 52.7797 38.60628 49.60692 42.5202 49.60692 46.43411 49.60692 49.60689 52.7797 49.60689 56.69362ZM42.5202 56.69362" fill="#adadad"/>
<path transform="matrix(1,0,0,-1,-19.164002,65.578998)" stroke-width=".3985" stroke-linecap="butt" stroke-miterlimit="10" stroke-linejoin="miter" fill="none" stroke="#000000" d="M49.60689 56.69362C49.60689 60.60753 46.43411 63.7803 42.5202 63.7803 38.60628 63.7803 35.4335 60.60753 35.4335 56.69362 35.4335 52.7797 38.60628 49.60692 42.5202 49.60692 46.43411 49.60692 49.60689 52.7797 49.60689 56.69362ZM42.5202 56.69362"/>
<use data-text="a" xlink:href="#font_1_1" transform="matrix(6.9738,0,0,-6.9738,19.251,9.888996)"/>
<use data-text="1" xlink:href="#font_2_1" transform="matrix(4.9813,0,0,-4.9813,23.571999,10.8849949)"/>
<path transform="matrix(1,0,0,-1,-19.164002,65.578998)" d="M77.9537 56.69362C77.9537 60.60753 74.78093 63.7803 70.867 63.7803 66.9531 63.7803 63.78032 60.60753 63.78032 56.69362 63.78032 52.7797 66.9531 49.60692 70.867 49.60692 74.78093 49.60692 77.9537 52.7797 77.9537 56.69362ZM70.867 56.69362" fill="#adadad"/>
<path transform="matrix(1,0,0,-1,-19.164002,65.578998)" stroke-width=".3985" stroke-linecap="butt" stroke-miterlimit="10" stroke-linejoin="miter" fill="none" stroke="#000000" d="M77.9537 56.69362C77.9537 60.60753 74.78093 63.7803 70.867 63.7803 66.9531 63.7803 63.78032 60.60753 63.78032 56.69362 63.78032 52.7797 66.9531 49.60692 70.867 49.60692 74.78093 49.60692 77.9537 52.7797 77.9537 56.69362ZM70.867 56.69362"/>
<use data-text="a" xlink:href="#font_1_1" transform="matrix(6.9738,0,0,-6.9738,47.598,9.888996)"/>
<use data-text="2" xlink:href="#font_2_2" transform="matrix(4.9813,0,0,-4.9813,51.919,10.8849949)"/>
<path transform="matrix(1,0,0,-1,-19.164002,65.578998)" d="M106.3005 56.69362C106.3005 60.60753 103.12773 63.7803 99.21382 63.7803 95.2999 63.7803 92.12712 60.60753 92.12712 56.69362 92.12712 52.7797 95.2999 49.60692 99.21382 49.60692 103.12773 49.60692 106.3005 52.7797 106.3005 56.69362ZM99.21382 56.69362" fill="#adadad"/>
<path transform="matrix(1,0,0,-1,-19.164002,65.578998)" stroke-width=".3985" stroke-linecap="butt" stroke-miterlimit="10" stroke-linejoin="miter" fill="none" stroke="#000000" d="M106.3005 56.69362C106.3005 60.60753 103.12773 63.7803 99.21382 63.7803 95.2999 63.7803 92.12712 60.60753 92.12712 56.69362 92.12712 52.7797 95.2999 49.60692 99.21382 49.60692 103.12773 49.60692 106.3005 52.7797 106.3005 56.69362ZM99.21382 56.69362"/>
<use data-text="a" xlink:href="#font_1_1" transform="matrix(6.9738,0,0,-6.9738,75.945,9.888996)"/>
<use data-text="3" xlink:href="#font_2_3" transform="matrix(4.9813,0,0,-4.9813,80.266,10.8849949)"/>
<path transform="matrix(1,0,0,-1,-19.164002,65.578998)" d="M134.64733 56.69362C134.64733 60.60753 131.47455 63.7803 127.56062 63.7803 123.64671 63.7803 120.47394 60.60753 120.47394 56.69362 120.47394 52.7797 123.64671 49.60692 127.56062 49.60692 131.47455 49.60692 134.64733 52.7797 134.64733 56.69362ZM127.56062 56.69362" fill="#adadad"/>
<path transform="matrix(1,0,0,-1,-19.164002,65.578998)" stroke-width=".3985" stroke-linecap="butt" stroke-miterlimit="10" stroke-linejoin="miter" fill="none" stroke="#000000" d="M134.64733 56.69362C134.64733 60.60753 131.47455 63.7803 127.56062 63.7803 123.64671 63.7803 120.47394 60.60753 120.47394 56.69362 120.47394 52.7797 123.64671 49.60692 127.56062 49.60692 131.47455 49.60692 134.64733 52.7797 134.64733 56.69362ZM127.56062 56.69362"/>
<use data-text="a" xlink:href="#font_1_1" transform="matrix(6.9738,0,0,-6.9738,104.292,9.888996)"/>
<use data-text="4" xlink:href="#font_2_4" transform="matrix(4.9813,0,0,-4.9813,108.613,10.8849949)"/>
<path transform="matrix(1,0,0,-1,-19.164002,65.578998)" stroke-width=".79701" stroke-linecap="butt" stroke-miterlimit="10" stroke-linejoin="miter" fill="none" stroke="#000000" d="M40.75331 49.62524 30.1137 7.06836"/>
<path transform="matrix(1,0,0,-1,-19.164002,65.578998)" stroke-width=".79701" stroke-linecap="butt" stroke-miterlimit="10" stroke-linejoin="miter" fill="none" stroke="#000000" d="M46.8917 50.86507 80.66893 5.82854"/>
<path transform="matrix(1,0,0,-1,-19.164002,65.578998)" stroke-width=".79701" stroke-linecap="butt" stroke-miterlimit="10" stroke-linejoin="miter" fill="none" stroke="#000000" d="M66.49551 50.86507 32.71829 5.82854"/>
<path transform="matrix(1,0,0,-1,-19.164002,65.578998)" stroke-width=".79701" stroke-linecap="butt" stroke-miterlimit="10" stroke-linejoin="miter" fill="none" stroke="#000000" d="M69.10011 49.62524 58.46051 7.06836"/>
<path transform="matrix(1,0,0,-1,-19.164002,65.578998)" stroke-width=".79701" stroke-linecap="butt" stroke-miterlimit="10" stroke-linejoin="miter" fill="none" stroke="#000000" d="M75.23851 50.86507 109.01573 5.82854"/>
<path transform="matrix(1,0,0,-1,-19.164002,65.578998)" stroke-width=".79701" stroke-linecap="butt" stroke-miterlimit="10" stroke-linejoin="miter" fill="none" stroke="#000000" d="M100.98071 49.62524 111.62033 7.06836"/>
<path transform="matrix(1,0,0,-1,-19.164002,65.578998)" stroke-width=".79701" stroke-linecap="butt" stroke-miterlimit="10" stroke-linejoin="miter" fill="none" stroke="#000000" d="M103.58531 50.86507 137.36255 5.82854"/>
<path transform="matrix(1,0,0,-1,-19.164002,65.578998)" stroke-width=".79701" stroke-linecap="butt" stroke-miterlimit="10" stroke-linejoin="miter" fill="none" stroke="#000000" d="M121.87161 52.14235 62.38263 4.55125"/>
<path transform="matrix(1,0,0,-1,-19.164002,65.578998)" stroke-width=".79701" stroke-linecap="butt" stroke-miterlimit="10" stroke-linejoin="miter" fill="none" stroke="#000000" d="M129.32753 49.62524 139.96715 7.06836"/>
</svg>
