<svg xmlns="http://www.w3.org/2000/svg" id="pf__figure" width="410" height="610" viewBox="0 0 410 610">
  <defs>
    <clipPath id="pf__clipPath-0">
      <rect x="5.0" y="5.0" width="400.0" height="600.0"/>
    </clipPath>
    <clipPath id="pf__clipPath-1">
      <rect x="5.0" y="5.0" width="400.0" height="600.0"/>
    </clipPath>
  </defs>
  <g id="pf__grid" stroke="gray" stroke-width="1">
    <line x1="5.0" y1="605.0" x2="5.0" y2="5.0"/>
    <line x1="105.0" y1="605.0" x2="105.0" y2="5.0"/>
    <line x1="205.0" y1="605.0" x2="205.0" y2="5.0"/>
    <line x1="305.0" y1="605.0" x2="305.0" y2="5.0"/>
    <line x1="405.0" y1="605.0" x2="405.0" y2="5.0"/>
    <line x1="5.0" y1="605.0" x2="405.0" y2="605.0"/>
    <line x1="5.0" y1="505.0" x2="405.0" y2="505.0"/>
    <line x1="5.0" y1="405.0" x2="405.0" y2="405.0"/>
    <line x1="5.0" y1="305.0" x2="405.0" y2="305.0"/>
    <line x1="5.0" y1="205.0" x2="405.0" y2="205.0"/>
    <line x1="5.0" y1="105.0" x2="405.0" y2="105.0"/>
    <line x1="5.0" y1="5.0" x2="405.0" y2="5.0"/>
  </g>
  <g id="pf__g-0">
    <path id="pf__path-0-center_0" d="M 80.0 355.0 L 80.0 353.4 L 79.8 351.9 L 79.6 350.3 L 79.2 348.8 L 78.8 347.3 L 78.2 345.8 L 77.6 344.4 L 76.9 343.0 L 76.1 341.6 L 75.2 340.3 L 74.3 339.1 L 73.2 337.9 L 72.1 336.8 L 70.9 335.7 L 69.7 334.8 L 68.4 333.9 L 67.0 333.1 L 65.6 332.4 L 64.2 331.8 L 62.7 331.2 L 61.2 330.8 L 59.7 330.4 L 58.1 330.2 L 56.6 330.0 L 55.0 330.0 L 53.4 330.0 L 51.9 330.2 L 50.3 330.4 L 48.8 330.8 L 47.3 331.2 L 45.8 331.8 L 44.4 332.4 L 43.0 333.1 L 41.6 333.9 L 40.3 334.8 L 39.1 335.7 L 37.9 336.8 L 36.8 337.9 L 35.7 339.1 L 34.8 340.3 L 33.9 341.6 L 33.1 343.0 L 32.4 344.4 L 31.8 345.8 L 31.2 347.3 L 30.8 348.8 L 30.4 350.3 L 30.2 351.9 L 30.0 353.4 L 30.0 355.0 L 30.0 356.6 L 30.2 358.1 L 30.4 359.7 L 30.8 361.2 L 31.2 362.7 L 31.8 364.2 L 32.4 365.6 L 33.1 367.0 L 33.9 368.4 L 34.8 369.7 L 35.7 370.9 L 36.8 372.1 L 37.9 373.2 L 39.1 374.3 L 40.3 375.2 L 41.6 376.1 L 43.0 376.9 L 44.4 377.6 L 45.8 378.2 L 47.3 378.8 L 48.8 379.2 L 50.3 379.6 L 51.9 379.8 L 53.4 380.0 L 55.0 380.0 L 56.6 380.0 L 58.1 379.8 L 59.7 379.6 L 61.2 379.2 L 62.7 378.8 L 64.2 378.2 L 65.6 377.6 L 67.0 376.9 L 68.4 376.1 L 69.7 375.2 L 70.9 374.3 L 72.1 373.2 L 73.2 372.1 L 74.3 370.9 L 75.2 369.7 L 76.1 368.4 L 76.9 367.0 L 77.6 365.6 L 78.2 364.2 L 78.8 362.7 L 79.2 361.2 L 79.6 359.7 L 79.8 358.1 L 80.0 356.6 Z" stroke="black" stroke-width="2" fill="#777"/>
    <path id="pf__path-1-center_1" d="M 180.0 55.0 L 180.0 53.4 L 179.8 51.9 L 179.6 50.3 L 179.2 48.8 L 178.8 47.3 L 178.2 45.8 L 177.6 44.4 L 176.9 43.0 L 176.1 41.6 L 175.2 40.3 L 174.3 39.1 L 173.2 37.9 L 172.1 36.8 L 170.9 35.7 L 169.7 34.8 L 168.4 33.9 L 167.0 33.1 L 165.6 32.4 L 164.2 31.8 L 162.7 31.2 L 161.2 30.8 L 159.7 30.4 L 158.1 30.2 L 156.6 30.0 L 155.0 30.0 L 153.4 30.0 L 151.9 30.2 L 150.3 30.4 L 148.8 30.8 L 147.3 31.2 L 145.8 31.8 L 144.4 32.4 L 143.0 33.1 L 141.6 33.9 L 140.3 34.8 L 139.1 35.7 L 137.9 36.8 L 136.8 37.9 L 135.7 39.1 L 134.8 40.3 L 133.9 41.6 L 133.1 43.0 L 132.4 44.4 L 131.8 45.8 L 131.2 47.3 L 130.8 48.8 L 130.4 50.3 L 130.2 51.9 L 130.0 53.4 L 130.0 55.0 L 130.0 56.6 L 130.2 58.1 L 130.4 59.7 L 130.8 61.2 L 131.2 62.7 L 131.8 64.2 L 132.4 65.6 L 133.1 67.0 L 133.9 68.4 L 134.8 69.7 L 135.7 70.9 L 136.8 72.1 L 137.9 73.2 L 139.1 74.3 L 140.3 75.2 L 141.6 76.1 L 143.0 76.9 L 144.4 77.6 L 145.8 78.2 L 147.3 78.8 L 148.8 79.2 L 150.3 79.6 L 151.9 79.8 L 153.4 80.0 L 155.0 80.0 L 156.6 80.0 L 158.1 79.8 L 159.7 79.6 L 161.2 79.2 L 162.7 78.8 L 164.2 78.2 L 165.6 77.6 L 167.0 76.9 L 168.4 76.1 L 169.7 75.2 L 170.9 74.3 L 172.1 73.2 L 173.2 72.1 L 174.3 70.9 L 175.2 69.7 L 176.1 68.4 L 176.9 67.0 L 177.6 65.6 L 178.2 64.2 L 178.8 62.7 L 179.2 61.2 L 179.6 59.7 L 179.8 58.1 L 180.0 56.6 Z" stroke="black" stroke-width="2" fill="#777"/>
    <path id="pf__path-2-center_2" d="M 280.0 555.0 L 280.0 553.4 L 279.8 551.9 L 279.6 550.3 L 279.2 548.8 L 278.8 547.3 L 278.2 545.8 L 277.6 544.4 L 276.9 543.0 L 276.1 541.6 L 275.2 540.3 L 274.3 539.1 L 273.2 537.9 L 272.1 536.8 L 270.9 535.7 L 269.7 534.8 L 268.4 533.9 L 267.0 533.1 L 265.6 532.4 L 264.2 531.8 L 262.7 531.2 L 261.2 530.8 L 259.7 530.4 L 258.1 530.2 L 256.6 530.0 L 255.0 530.0 L 253.4 530.0 L 251.9 530.2 L 250.3 530.4 L 248.8 530.8 L 247.3 531.2 L 245.8 531.8 L 244.4 532.4 L 243.0 533.1 L 241.6 533.9 L 240.3 534.8 L 239.1 535.7 L 237.9 536.8 L 236.8 537.9 L 235.7 539.1 L 234.8 540.3 L 233.9 541.6 L 233.1 543.0 L 232.4 544.4 L 231.8 545.8 L 231.2 547.3 L 230.8 548.8 L 230.4 550.3 L 230.2 551.9 L 230.0 553.4 L 230.0 555.0 L 230.0 556.6 L 230.2 558.1 L 230.4 559.7 L 230.8 561.2 L 231.2 562.7 L 231.8 564.2 L 232.4 565.6 L 233.1 567.0 L 233.9 568.4 L 234.8 569.7 L 235.7 570.9 L 236.8 572.1 L 237.9 573.2 L 239.1 574.3 L 240.3 575.2 L 241.6 576.1 L 243.0 576.9 L 244.4 577.6 L 245.8 578.2 L 247.3 578.8 L 248.8 579.2 L 250.3 579.6 L 251.9 579.8 L 253.4 580.0 L 255.0 580.0 L 256.6 580.0 L 258.1 579.8 L 259.7 579.6 L 261.2 579.2 L 262.7 578.8 L 264.2 578.2 L 265.6 577.6 L 267.0 576.9 L 268.4 576.1 L 269.7 575.2 L 270.9 574.3 L 272.1 573.2 L 273.2 572.1 L 274.3 570.9 L 275.2 569.7 L 276.1 568.4 L 276.9 567.0 L 277.6 565.6 L 278.2 564.2 L 278.8 562.7 L 279.2 561.2 L 279.6 559.7 L 279.8 558.1 L 280.0 556.6 Z" stroke="black" stroke-width="2" fill="#777"/>
    <path id="pf__path-3-center_3" d="M 380.0 155.0 L 380.0 153.4 L 379.8 151.9 L 379.6 150.3 L 379.2 148.8 L 378.8 147.3 L 378.2 145.8 L 377.6 144.4 L 376.9 143.0 L 376.1 141.6 L 375.2 140.3 L 374.3 139.1 L 373.2 137.9 L 372.1 136.8 L 370.9 135.7 L 369.7 134.8 L 368.4 133.9 L 367.0 133.1 L 365.6 132.4 L 364.2 131.8 L 362.7 131.2 L 361.2 130.8 L 359.7 130.4 L 358.1 130.2 L 356.6 130.0 L 355.0 130.0 L 353.4 130.0 L 351.9 130.2 L 350.3 130.4 L 348.8 130.8 L 347.3 131.2 L 345.8 131.8 L 344.4 132.4 L 343.0 133.1 L 341.6 133.9 L 340.3 134.8 L 339.1 135.7 L 337.9 136.8 L 336.8 137.9 L 335.7 139.1 L 334.8 140.3 L 333.9 141.6 L 333.1 143.0 L 332.4 144.4 L 331.8 145.8 L 331.2 147.3 L 330.8 148.8 L 330.4 150.3 L 330.2 151.9 L 330.0 153.4 L 330.0 155.0 L 330.0 156.6 L 330.2 158.1 L 330.4 159.7 L 330.8 161.2 L 331.2 162.7 L 331.8 164.2 L 332.4 165.6 L 333.1 167.0 L 333.9 168.4 L 334.8 169.7 L 335.7 170.9 L 336.8 172.1 L 337.9 173.2 L 339.1 174.3 L 340.3 175.2 L 341.6 176.1 L 343.0 176.9 L 344.4 177.6 L 345.8 178.2 L 347.3 178.8 L 348.8 179.2 L 350.3 179.6 L 351.9 179.8 L 353.4 180.0 L 355.0 180.0 L 356.6 180.0 L 358.1 179.8 L 359.7 179.6 L 361.2 179.2 L 362.7 178.8 L 364.2 178.2 L 365.6 177.6 L 367.0 176.9 L 368.4 176.1 L 369.7 175.2 L 370.9 174.3 L 372.1 173.2 L 373.2 172.1 L 374.3 170.9 L 375.2 169.7 L 376.1 168.4 L 376.9 167.0 L 377.6 165.6 L 378.2 164.2 L 378.8 162.7 L 379.2 161.2 L 379.6 159.7 L 379.8 158.1 L 380.0 156.6 Z" stroke="black" stroke-width="2" fill="#777"/>
  </g>
</svg>
