<svg xmlns="http://www.w3.org/2000/svg" id="pf__figure" width="360" height="110" viewBox="0 0 360 110">
  <defs>
    <clipPath id="pf__clipPath-0">
      <rect x="5.0" y="5.0" width="350.0" height="100.0"/>
    </clipPath>
    <clipPath id="pf__clipPath-1">
      <rect x="5.0" y="5.0" width="350.0" height="100.0"/>
    </clipPath>
  </defs>
  <path id="pf__path-0" d="M 5.0 105.0 L 55.0 105.0 L 55.0 5.0 L 5.0 5.0 Z" stroke="black" stroke-width="1" fill="none"/>
  <line id="pf__line-0" x1="5.0" y1="55.0" x2="55.0" y2="55.0" stroke="black" stroke-width="1" fill="none"/>
  <path id="pf__path-1" d="M 20.0 17.5 L 20.0 17.3 L 20.0 17.2 L 20.0 17.0 L 19.9 16.9 L 19.9 16.7 L 19.8 16.6 L 19.8 16.4 L 19.7 16.3 L 19.6 16.2 L 19.5 16.0 L 19.4 15.9 L 19.3 15.8 L 19.2 15.7 L 19.1 15.6 L 19.0 15.5 L 18.8 15.4 L 18.7 15.3 L 18.6 15.2 L 18.4 15.2 L 18.3 15.1 L 18.1 15.1 L 18.0 15.0 L 17.8 15.0 L 17.7 15.0 L 17.5 15.0 L 17.3 15.0 L 17.2 15.0 L 17.0 15.0 L 16.9 15.1 L 16.7 15.1 L 16.6 15.2 L 16.4 15.2 L 16.3 15.3 L 16.2 15.4 L 16.0 15.5 L 15.9 15.6 L 15.8 15.7 L 15.7 15.8 L 15.6 15.9 L 15.5 16.0 L 15.4 16.2 L 15.3 16.3 L 15.2 16.4 L 15.2 16.6 L 15.1 16.7 L 15.1 16.9 L 15.0 17.0 L 15.0 17.2 L 15.0 17.3 L 15.0 17.5 L 15.0 17.7 L 15.0 17.8 L 15.0 18.0 L 15.1 18.1 L 15.1 18.3 L 15.2 18.4 L 15.2 18.6 L 15.3 18.7 L 15.4 18.8 L 15.5 19.0 L 15.6 19.1 L 15.7 19.2 L 15.8 19.3 L 15.9 19.4 L 16.0 19.5 L 16.2 19.6 L 16.3 19.7 L 16.4 19.8 L 16.6 19.8 L 16.7 19.9 L 16.9 19.9 L 17.0 20.0 L 17.2 20.0 L 17.3 20.0 L 17.5 20.0 L 17.7 20.0 L 17.8 20.0 L 18.0 20.0 L 18.1 19.9 L 18.3 19.9 L 18.4 19.8 L 18.6 19.8 L 18.7 19.7 L 18.8 19.6 L 19.0 19.5 L 19.1 19.4 L 19.2 19.3 L 19.3 19.2 L 19.4 19.1 L 19.5 19.0 L 19.6 18.8 L 19.7 18.7 L 19.8 18.6 L 19.8 18.4 L 19.9 18.3 L 19.9 18.1 L 20.0 18.0 L 20.0 17.8 L 20.0 17.7 Z" stroke="black" stroke-width="2" fill="black"/>
  <path id="pf__path-2" d="M 45.0 42.5 L 45.0 42.3 L 45.0 42.2 L 45.0 42.0 L 44.9 41.9 L 44.9 41.7 L 44.8 41.6 L 44.8 41.4 L 44.7 41.3 L 44.6 41.2 L 44.5 41.0 L 44.4 40.9 L 44.3 40.8 L 44.2 40.7 L 44.1 40.6 L 44.0 40.5 L 43.8 40.4 L 43.7 40.3 L 43.6 40.2 L 43.4 40.2 L 43.3 40.1 L 43.1 40.1 L 43.0 40.0 L 42.8 40.0 L 42.7 40.0 L 42.5 40.0 L 42.3 40.0 L 42.2 40.0 L 42.0 40.0 L 41.9 40.1 L 41.7 40.1 L 41.6 40.2 L 41.4 40.2 L 41.3 40.3 L 41.2 40.4 L 41.0 40.5 L 40.9 40.6 L 40.8 40.7 L 40.7 40.8 L 40.6 40.9 L 40.5 41.0 L 40.4 41.2 L 40.3 41.3 L 40.2 41.4 L 40.2 41.6 L 40.1 41.7 L 40.1 41.9 L 40.0 42.0 L 40.0 42.2 L 40.0 42.3 L 40.0 42.5 L 40.0 42.7 L 40.0 42.8 L 40.0 43.0 L 40.1 43.1 L 40.1 43.3 L 40.2 43.4 L 40.2 43.6 L 40.3 43.7 L 40.4 43.8 L 40.5 44.0 L 40.6 44.1 L 40.7 44.2 L 40.8 44.3 L 40.9 44.4 L 41.0 44.5 L 41.2 44.6 L 41.3 44.7 L 41.4 44.8 L 41.6 44.8 L 41.7 44.9 L 41.9 44.9 L 42.0 45.0 L 42.2 45.0 L 42.3 45.0 L 42.5 45.0 L 42.7 45.0 L 42.8 45.0 L 43.0 45.0 L 43.1 44.9 L 43.3 44.9 L 43.4 44.8 L 43.6 44.8 L 43.7 44.7 L 43.8 44.6 L 44.0 44.5 L 44.1 44.4 L 44.2 44.3 L 44.3 44.2 L 44.4 44.1 L 44.5 44.0 L 44.6 43.8 L 44.7 43.7 L 44.8 43.6 L 44.8 43.4 L 44.9 43.3 L 44.9 43.1 L 45.0 43.0 L 45.0 42.8 L 45.0 42.7 Z" stroke="black" stroke-width="2" fill="black"/>
  <path id="pf__path-3" d="M 20.0 92.5 L 20.0 92.3 L 20.0 92.2 L 20.0 92.0 L 19.9 91.9 L 19.9 91.7 L 19.8 91.6 L 19.8 91.4 L 19.7 91.3 L 19.6 91.2 L 19.5 91.0 L 19.4 90.9 L 19.3 90.8 L 19.2 90.7 L 19.1 90.6 L 19.0 90.5 L 18.8 90.4 L 18.7 90.3 L 18.6 90.2 L 18.4 90.2 L 18.3 90.1 L 18.1 90.1 L 18.0 90.0 L 17.8 90.0 L 17.7 90.0 L 17.5 90.0 L 17.3 90.0 L 17.2 90.0 L 17.0 90.0 L 16.9 90.1 L 16.7 90.1 L 16.6 90.2 L 16.4 90.2 L 16.3 90.3 L 16.2 90.4 L 16.0 90.5 L 15.9 90.6 L 15.8 90.7 L 15.7 90.8 L 15.6 90.9 L 15.5 91.0 L 15.4 91.2 L 15.3 91.3 L 15.2 91.4 L 15.2 91.6 L 15.1 91.7 L 15.1 91.9 L 15.0 92.0 L 15.0 92.2 L 15.0 92.3 L 15.0 92.5 L 15.0 92.7 L 15.0 92.8 L 15.0 93.0 L 15.1 93.1 L 15.1 93.3 L 15.2 93.4 L 15.2 93.6 L 15.3 93.7 L 15.4 93.8 L 15.5 94.0 L 15.6 94.1 L 15.7 94.2 L 15.8 94.3 L 15.9 94.4 L 16.0 94.5 L 16.2 94.6 L 16.3 94.7 L 16.4 94.8 L 16.6 94.8 L 16.7 94.9 L 16.9 94.9 L 17.0 95.0 L 17.2 95.0 L 17.3 95.0 L 17.5 95.0 L 17.7 95.0 L 17.8 95.0 L 18.0 95.0 L 18.1 94.9 L 18.3 94.9 L 18.4 94.8 L 18.6 94.8 L 18.7 94.7 L 18.8 94.6 L 19.0 94.5 L 19.1 94.4 L 19.2 94.3 L 19.3 94.2 L 19.4 94.1 L 19.5 94.0 L 19.6 93.8 L 19.7 93.7 L 19.8 93.6 L 19.8 93.4 L 19.9 93.3 L 19.9 93.1 L 20.0 93.0 L 20.0 92.8 L 20.0 92.7 Z" stroke="black" stroke-width="2" fill="black"/>
  <path id="pf__path-4" d="M 20.0 67.5 L 20.0 67.3 L 20.0 67.2 L 20.0 67.0 L 19.9 66.9 L 19.9 66.7 L 19.8 66.6 L 19.8 66.4 L 19.7 66.3 L 19.6 66.2 L 19.5 66.0 L 19.4 65.9 L 19.3 65.8 L 19.2 65.7 L 19.1 65.6 L 19.0 65.5 L 18.8 65.4 L 18.7 65.3 L 18.6 65.2 L 18.4 65.2 L 18.3 65.1 L 18.1 65.1 L 18.0 65.0 L 17.8 65.0 L 17.7 65.0 L 17.5 65.0 L 17.3 65.0 L 17.2 65.0 L 17.0 65.0 L 16.9 65.1 L 16.7 65.1 L 16.6 65.2 L 16.4 65.2 L 16.3 65.3 L 16.2 65.4 L 16.0 65.5 L 15.9 65.6 L 15.8 65.7 L 15.7 65.8 L 15.6 65.9 L 15.5 66.0 L 15.4 66.2 L 15.3 66.3 L 15.2 66.4 L 15.2 66.6 L 15.1 66.7 L 15.1 66.9 L 15.0 67.0 L 15.0 67.2 L 15.0 67.3 L 15.0 67.5 L 15.0 67.7 L 15.0 67.8 L 15.0 68.0 L 15.1 68.1 L 15.1 68.3 L 15.2 68.4 L 15.2 68.6 L 15.3 68.7 L 15.4 68.8 L 15.5 69.0 L 15.6 69.1 L 15.7 69.2 L 15.8 69.3 L 15.9 69.4 L 16.0 69.5 L 16.2 69.6 L 16.3 69.7 L 16.4 69.8 L 16.6 69.8 L 16.7 69.9 L 16.9 69.9 L 17.0 70.0 L 17.2 70.0 L 17.3 70.0 L 17.5 70.0 L 17.7 70.0 L 17.8 70.0 L 18.0 70.0 L 18.1 69.9 L 18.3 69.9 L 18.4 69.8 L 18.6 69.8 L 18.7 69.7 L 18.8 69.6 L 19.0 69.5 L 19.1 69.4 L 19.2 69.3 L 19.3 69.2 L 19.4 69.1 L 19.5 69.0 L 19.6 68.8 L 19.7 68.7 L 19.8 68.6 L 19.8 68.4 L 19.9 68.3 L 19.9 68.1 L 20.0 68.0 L 20.0 67.8 L 20.0 67.7 Z" stroke="black" stroke-width="2" fill="black"/>
  <path id="pf__path-5" d="M 45.0 92.5 L 45.0 92.3 L 45.0 92.2 L 45.0 92.0 L 44.9 91.9 L 44.9 91.7 L 44.8 91.6 L 44.8 91.4 L 44.7 91.3 L 44.6 91.2 L 44.5 91.0 L 44.4 90.9 L 44.3 90.8 L 44.2 90.7 L 44.1 90.6 L 44.0 90.5 L 43.8 90.4 L 43.7 90.3 L 43.6 90.2 L 43.4 90.2 L 43.3 90.1 L 43.1 90.1 L 43.0 90.0 L 42.8 90.0 L 42.7 90.0 L 42.5 90.0 L 42.3 90.0 L 42.2 90.0 L 42.0 90.0 L 41.9 90.1 L 41.7 90.1 L 41.6 90.2 L 41.4 90.2 L 41.3 90.3 L 41.2 90.4 L 41.0 90.5 L 40.9 90.6 L 40.8 90.7 L 40.7 90.8 L 40.6 90.9 L 40.5 91.0 L 40.4 91.2 L 40.3 91.3 L 40.2 91.4 L 40.2 91.6 L 40.1 91.7 L 40.1 91.9 L 40.0 92.0 L 40.0 92.2 L 40.0 92.3 L 40.0 92.5 L 40.0 92.7 L 40.0 92.8 L 40.0 93.0 L 40.1 93.1 L 40.1 93.3 L 40.2 93.4 L 40.2 93.6 L 40.3 93.7 L 40.4 93.8 L 40.5 94.0 L 40.6 94.1 L 40.7 94.2 L 40.8 94.3 L 40.9 94.4 L 41.0 94.5 L 41.2 94.6 L 41.3 94.7 L 41.4 94.8 L 41.6 94.8 L 41.7 94.9 L 41.9 94.9 L 42.0 95.0 L 42.2 95.0 L 42.3 95.0 L 42.5 95.0 L 42.7 95.0 L 42.8 95.0 L 43.0 95.0 L 43.1 94.9 L 43.3 94.9 L 43.4 94.8 L 43.6 94.8 L 43.7 94.7 L 43.8 94.6 L 44.0 94.5 L 44.1 94.4 L 44.2 94.3 L 44.3 94.2 L 44.4 94.1 L 44.5 94.0 L 44.6 93.8 L 44.7 93.7 L 44.8 93.6 L 44.8 93.4 L 44.9 93.3 L 44.9 93.1 L 45.0 93.0 L 45.0 92.8 L 45.0 92.7 Z" stroke="black" stroke-width="2" fill="black"/>
  <path id="pf__path-6" d="M 45.0 67.5 L 45.0 67.3 L 45.0 67.2 L 45.0 67.0 L 44.9 66.9 L 44.9 66.7 L 44.8 66.6 L 44.8 66.4 L 44.7 66.3 L 44.6 66.2 L 44.5 66.0 L 44.4 65.9 L 44.3 65.8 L 44.2 65.7 L 44.1 65.6 L 44.0 65.5 L 43.8 65.4 L 43.7 65.3 L 43.6 65.2 L 43.4 65.2 L 43.3 65.1 L 43.1 65.1 L 43.0 65.0 L 42.8 65.0 L 42.7 65.0 L 42.5 65.0 L 42.3 65.0 L 42.2 65.0 L 42.0 65.0 L 41.9 65.1 L 41.7 65.1 L 41.6 65.2 L 41.4 65.2 L 41.3 65.3 L 41.2 65.4 L 41.0 65.5 L 40.9 65.6 L 40.8 65.7 L 40.7 65.8 L 40.6 65.9 L 40.5 66.0 L 40.4 66.2 L 40.3 66.3 L 40.2 66.4 L 40.2 66.6 L 40.1 66.7 L 40.1 66.9 L 40.0 67.0 L 40.0 67.2 L 40.0 67.3 L 40.0 67.5 L 40.0 67.7 L 40.0 67.8 L 40.0 68.0 L 40.1 68.1 L 40.1 68.3 L 40.2 68.4 L 40.2 68.6 L 40.3 68.7 L 40.4 68.8 L 40.5 69.0 L 40.6 69.1 L 40.7 69.2 L 40.8 69.3 L 40.9 69.4 L 41.0 69.5 L 41.2 69.6 L 41.3 69.7 L 41.4 69.8 L 41.6 69.8 L 41.7 69.9 L 41.9 69.9 L 42.0 70.0 L 42.2 70.0 L 42.3 70.0 L 42.5 70.0 L 42.7 70.0 L 42.8 70.0 L 43.0 70.0 L 43.1 69.9 L 43.3 69.9 L 43.4 69.8 L 43.6 69.8 L 43.7 69.7 L 43.8 69.6 L 44.0 69.5 L 44.1 69.4 L 44.2 69.3 L 44.3 69.2 L 44.4 69.1 L 44.5 69.0 L 44.6 68.8 L 44.7 68.7 L 44.8 68.6 L 44.8 68.4 L 44.9 68.3 L 44.9 68.1 L 45.0 68.0 L 45.0 67.8 L 45.0 67.7 Z" stroke="black" stroke-width="2" fill="black"/>
  <path id="pf__path-7" d="M 105.0 105.0 L 155.0 105.0 L 155.0 5.0 L 105.0 5.0 Z" stroke="black" stroke-width="1" fill="none"/>
  <line id="pf__line-1" x1="105.0" y1="55.0" x2="155.0" y2="55.0" stroke="black" stroke-width="1" fill="none"/>
  <path id="pf__path-8" d="M 120.0 42.5 L 120.0 42.3 L 120.0 42.2 L 120.0 42.0 L 119.9 41.9 L 119.9 41.7 L 119.8 41.6 L 119.8 41.4 L 119.7 41.3 L 119.6 41.2 L 119.5 41.0 L 119.4 40.9 L 119.3 40.8 L 119.2 40.7 L 119.1 40.6 L 119.0 40.5 L 118.8 40.4 L 118.7 40.3 L 118.6 40.2 L 118.4 40.2 L 118.3 40.1 L 118.1 40.1 L 118.0 40.0 L 117.8 40.0 L 117.7 40.0 L 117.5 40.0 L 117.3 40.0 L 117.2 40.0 L 117.0 40.0 L 116.9 40.1 L 116.7 40.1 L 116.6 40.2 L 116.4 40.2 L 116.3 40.3 L 116.2 40.4 L 116.0 40.5 L 115.9 40.6 L 115.8 40.7 L 115.7 40.8 L 115.6 40.9 L 115.5 41.0 L 115.4 41.2 L 115.3 41.3 L 115.2 41.4 L 115.2 41.6 L 115.1 41.7 L 115.1 41.9 L 115.0 42.0 L 115.0 42.2 L 115.0 42.3 L 115.0 42.5 L 115.0 42.7 L 115.0 42.8 L 115.0 43.0 L 115.1 43.1 L 115.1 43.3 L 115.2 43.4 L 115.2 43.6 L 115.3 43.7 L 115.4 43.8 L 115.5 44.0 L 115.6 44.1 L 115.7 44.2 L 115.8 44.3 L 115.9 44.4 L 116.0 44.5 L 116.2 44.6 L 116.3 44.7 L 116.4 44.8 L 116.6 44.8 L 116.7 44.9 L 116.9 44.9 L 117.0 45.0 L 117.2 45.0 L 117.3 45.0 L 117.5 45.0 L 117.7 45.0 L 117.8 45.0 L 118.0 45.0 L 118.1 44.9 L 118.3 44.9 L 118.4 44.8 L 118.6 44.8 L 118.7 44.7 L 118.8 44.6 L 119.0 44.5 L 119.1 44.4 L 119.2 44.3 L 119.3 44.2 L 119.4 44.1 L 119.5 44.0 L 119.6 43.8 L 119.7 43.7 L 119.8 43.6 L 119.8 43.4 L 119.9 43.3 L 119.9 43.1 L 120.0 43.0 L 120.0 42.8 L 120.0 42.7 Z" stroke="black" stroke-width="2" fill="black"/>
  <path id="pf__path-9" d="M 120.0 17.5 L 120.0 17.3 L 120.0 17.2 L 120.0 17.0 L 119.9 16.9 L 119.9 16.7 L 119.8 16.6 L 119.8 16.4 L 119.7 16.3 L 119.6 16.2 L 119.5 16.0 L 119.4 15.9 L 119.3 15.8 L 119.2 15.7 L 119.1 15.6 L 119.0 15.5 L 118.8 15.4 L 118.7 15.3 L 118.6 15.2 L 118.4 15.2 L 118.3 15.1 L 118.1 15.1 L 118.0 15.0 L 117.8 15.0 L 117.7 15.0 L 117.5 15.0 L 117.3 15.0 L 117.2 15.0 L 117.0 15.0 L 116.9 15.1 L 116.7 15.1 L 116.6 15.2 L 116.4 15.2 L 116.3 15.3 L 116.2 15.4 L 116.0 15.5 L 115.9 15.6 L 115.8 15.7 L 115.7 15.8 L 115.6 15.9 L 115.5 16.0 L 115.4 16.2 L 115.3 16.3 L 115.2 16.4 L 115.2 16.6 L 115.1 16.7 L 115.1 16.9 L 115.0 17.0 L 115.0 17.2 L 115.0 17.3 L 115.0 17.5 L 115.0 17.7 L 115.0 17.8 L 115.0 18.0 L 115.1 18.1 L 115.1 18.3 L 115.2 18.4 L 115.2 18.6 L 115.3 18.7 L 115.4 18.8 L 115.5 19.0 L 115.6 19.1 L 115.7 19.2 L 115.8 19.3 L 115.9 19.4 L 116.0 19.5 L 116.2 19.6 L 116.3 19.7 L 116.4 19.8 L 116.6 19.8 L 116.7 19.9 L 116.9 19.9 L 117.0 20.0 L 117.2 20.0 L 117.3 20.0 L 117.5 20.0 L 117.7 20.0 L 117.8 20.0 L 118.0 20.0 L 118.1 19.9 L 118.3 19.9 L 118.4 19.8 L 118.6 19.8 L 118.7 19.7 L 118.8 19.6 L 119.0 19.5 L 119.1 19.4 L 119.2 19.3 L 119.3 19.2 L 119.4 19.1 L 119.5 19.0 L 119.6 18.8 L 119.7 18.7 L 119.8 18.6 L 119.8 18.4 L 119.9 18.3 L 119.9 18.1 L 120.0 18.0 L 120.0 17.8 L 120.0 17.7 Z" stroke="black" stroke-width="2" fill="black"/>
  <path id="pf__path-10" d="M 145.0 42.5 L 145.0 42.3 L 145.0 42.2 L 145.0 42.0 L 144.9 41.9 L 144.9 41.7 L 144.8 41.6 L 144.8 41.4 L 144.7 41.3 L 144.6 41.2 L 144.5 41.0 L 144.4 40.9 L 144.3 40.8 L 144.2 40.7 L 144.1 40.6 L 144.0 40.5 L 143.8 40.4 L 143.7 40.3 L 143.6 40.2 L 143.4 40.2 L 143.3 40.1 L 143.1 40.1 L 143.0 40.0 L 142.8 40.0 L 142.7 40.0 L 142.5 40.0 L 142.3 40.0 L 142.2 40.0 L 142.0 40.0 L 141.9 40.1 L 141.7 40.1 L 141.6 40.2 L 141.4 40.2 L 141.3 40.3 L 141.2 40.4 L 141.0 40.5 L 140.9 40.6 L 140.8 40.7 L 140.7 40.8 L 140.6 40.9 L 140.5 41.0 L 140.4 41.2 L 140.3 41.3 L 140.2 41.4 L 140.2 41.6 L 140.1 41.7 L 140.1 41.9 L 140.0 42.0 L 140.0 42.2 L 140.0 42.3 L 140.0 42.5 L 140.0 42.7 L 140.0 42.8 L 140.0 43.0 L 140.1 43.1 L 140.1 43.3 L 140.2 43.4 L 140.2 43.6 L 140.3 43.7 L 140.4 43.8 L 140.5 44.0 L 140.6 44.1 L 140.7 44.2 L 140.8 44.3 L 140.9 44.4 L 141.0 44.5 L 141.2 44.6 L 141.3 44.7 L 141.4 44.8 L 141.6 44.8 L 141.7 44.9 L 141.9 44.9 L 142.0 45.0 L 142.2 45.0 L 142.3 45.0 L 142.5 45.0 L 142.7 45.0 L 142.8 45.0 L 143.0 45.0 L 143.1 44.9 L 143.3 44.9 L 143.4 44.8 L 143.6 44.8 L 143.7 44.7 L 143.8 44.6 L 144.0 44.5 L 144.1 44.4 L 144.2 44.3 L 144.3 44.2 L 144.4 44.1 L 144.5 44.0 L 144.6 43.8 L 144.7 43.7 L 144.8 43.6 L 144.8 43.4 L 144.9 43.3 L 144.9 43.1 L 145.0 43.0 L 145.0 42.8 L 145.0 42.7 Z" stroke="black" stroke-width="2" fill="black"/>
  <path id="pf__path-11" d="M 145.0 17.5 L 145.0 17.3 L 145.0 17.2 L 145.0 17.0 L 144.9 16.9 L 144.9 16.7 L 144.8 16.6 L 144.8 16.4 L 144.7 16.3 L 144.6 16.2 L 144.5 16.0 L 144.4 15.9 L 144.3 15.8 L 144.2 15.7 L 144.1 15.6 L 144.0 15.5 L 143.8 15.4 L 143.7 15.3 L 143.6 15.2 L 143.4 15.2 L 143.3 15.1 L 143.1 15.1 L 143.0 15.0 L 142.8 15.0 L 142.7 15.0 L 142.5 15.0 L 142.3 15.0 L 142.2 15.0 L 142.0 15.0 L 141.9 15.1 L 141.7 15.1 L 141.6 15.2 L 141.4 15.2 L 141.3 15.3 L 141.2 15.4 L 141.0 15.5 L 140.9 15.6 L 140.8 15.7 L 140.7 15.8 L 140.6 15.9 L 140.5 16.0 L 140.4 16.2 L 140.3 16.3 L 140.2 16.4 L 140.2 16.6 L 140.1 16.7 L 140.1 16.9 L 140.0 17.0 L 140.0 17.2 L 140.0 17.3 L 140.0 17.5 L 140.0 17.7 L 140.0 17.8 L 140.0 18.0 L 140.1 18.1 L 140.1 18.3 L 140.2 18.4 L 140.2 18.6 L 140.3 18.7 L 140.4 18.8 L 140.5 19.0 L 140.6 19.1 L 140.7 19.2 L 140.8 19.3 L 140.9 19.4 L 141.0 19.5 L 141.2 19.6 L 141.3 19.7 L 141.4 19.8 L 141.6 19.8 L 141.7 19.9 L 141.9 19.9 L 142.0 20.0 L 142.2 20.0 L 142.3 20.0 L 142.5 20.0 L 142.7 20.0 L 142.8 20.0 L 143.0 20.0 L 143.1 19.9 L 143.3 19.9 L 143.4 19.8 L 143.6 19.8 L 143.7 19.7 L 143.8 19.6 L 144.0 19.5 L 144.1 19.4 L 144.2 19.3 L 144.3 19.2 L 144.4 19.1 L 144.5 19.0 L 144.6 18.8 L 144.7 18.7 L 144.8 18.6 L 144.8 18.4 L 144.9 18.3 L 144.9 18.1 L 145.0 18.0 L 145.0 17.8 L 145.0 17.7 Z" stroke="black" stroke-width="2" fill="black"/>
  <path id="pf__path-12" d="M 120.0 67.5 L 120.0 67.3 L 120.0 67.2 L 120.0 67.0 L 119.9 66.9 L 119.9 66.7 L 119.8 66.6 L 119.8 66.4 L 119.7 66.3 L 119.6 66.2 L 119.5 66.0 L 119.4 65.9 L 119.3 65.8 L 119.2 65.7 L 119.1 65.6 L 119.0 65.5 L 118.8 65.4 L 118.7 65.3 L 118.6 65.2 L 118.4 65.2 L 118.3 65.1 L 118.1 65.1 L 118.0 65.0 L 117.8 65.0 L 117.7 65.0 L 117.5 65.0 L 117.3 65.0 L 117.2 65.0 L 117.0 65.0 L 116.9 65.1 L 116.7 65.1 L 116.6 65.2 L 116.4 65.2 L 116.3 65.3 L 116.2 65.4 L 116.0 65.5 L 115.9 65.6 L 115.8 65.7 L 115.7 65.8 L 115.6 65.9 L 115.5 66.0 L 115.4 66.2 L 115.3 66.3 L 115.2 66.4 L 115.2 66.6 L 115.1 66.7 L 115.1 66.9 L 115.0 67.0 L 115.0 67.2 L 115.0 67.3 L 115.0 67.5 L 115.0 67.7 L 115.0 67.8 L 115.0 68.0 L 115.1 68.1 L 115.1 68.3 L 115.2 68.4 L 115.2 68.6 L 115.3 68.7 L 115.4 68.8 L 115.5 69.0 L 115.6 69.1 L 115.7 69.2 L 115.8 69.3 L 115.9 69.4 L 116.0 69.5 L 116.2 69.6 L 116.3 69.7 L 116.4 69.8 L 116.6 69.8 L 116.7 69.9 L 116.9 69.9 L 117.0 70.0 L 117.2 70.0 L 117.3 70.0 L 117.5 70.0 L 117.7 70.0 L 117.8 70.0 L 118.0 70.0 L 118.1 69.9 L 118.3 69.9 L 118.4 69.8 L 118.6 69.8 L 118.7 69.7 L 118.8 69.6 L 119.0 69.5 L 119.1 69.4 L 119.2 69.3 L 119.3 69.2 L 119.4 69.1 L 119.5 69.0 L 119.6 68.8 L 119.7 68.7 L 119.8 68.6 L 119.8 68.4 L 119.9 68.3 L 119.9 68.1 L 120.0 68.0 L 120.0 67.8 L 120.0 67.7 Z" stroke="black" stroke-width="2" fill="black"/>
  <path id="pf__path-13" d="M 145.0 92.5 L 145.0 92.3 L 145.0 92.2 L 145.0 92.0 L 144.9 91.9 L 144.9 91.7 L 144.8 91.6 L 144.8 91.4 L 144.7 91.3 L 144.6 91.2 L 144.5 91.0 L 144.4 90.9 L 144.3 90.8 L 144.2 90.7 L 144.1 90.6 L 144.0 90.5 L 143.8 90.4 L 143.7 90.3 L 143.6 90.2 L 143.4 90.2 L 143.3 90.1 L 143.1 90.1 L 143.0 90.0 L 142.8 90.0 L 142.7 90.0 L 142.5 90.0 L 142.3 90.0 L 142.2 90.0 L 142.0 90.0 L 141.9 90.1 L 141.7 90.1 L 141.6 90.2 L 141.4 90.2 L 141.3 90.3 L 141.2 90.4 L 141.0 90.5 L 140.9 90.6 L 140.8 90.7 L 140.7 90.8 L 140.6 90.9 L 140.5 91.0 L 140.4 91.2 L 140.3 91.3 L 140.2 91.4 L 140.2 91.6 L 140.1 91.7 L 140.1 91.9 L 140.0 92.0 L 140.0 92.2 L 140.0 92.3 L 140.0 92.5 L 140.0 92.7 L 140.0 92.8 L 140.0 93.0 L 140.1 93.1 L 140.1 93.3 L 140.2 93.4 L 140.2 93.6 L 140.3 93.7 L 140.4 93.8 L 140.5 94.0 L 140.6 94.1 L 140.7 94.2 L 140.8 94.3 L 140.9 94.4 L 141.0 94.5 L 141.2 94.6 L 141.3 94.7 L 141.4 94.8 L 141.6 94.8 L 141.7 94.9 L 141.9 94.9 L 142.0 95.0 L 142.2 95.0 L 142.3 95.0 L 142.5 95.0 L 142.7 95.0 L 142.8 95.0 L 143.0 95.0 L 143.1 94.9 L 143.3 94.9 L 143.4 94.8 L 143.6 94.8 L 143.7 94.7 L 143.8 94.6 L 144.0 94.5 L 144.1 94.4 L 144.2 94.3 L 144.3 94.2 L 144.4 94.1 L 144.5 94.0 L 144.6 93.8 L 144.7 93.7 L 144.8 93.6 L 144.8 93.4 L 144.9 93.3 L 144.9 93.1 L 145.0 93.0 L 145.0 92.8 L 145.0 92.7 Z" stroke="black" stroke-width="2" fill="black"/>
  <path id="pf__path-14" d="M 205.0 105.0 L 255.0 105.0 L 255.0 5.0 L 205.0 5.0 Z" stroke="black" stroke-width="1" fill="none"/>
  <line id="pf__line-2" x1="205.0" y1="55.0" x2="255.0" y2="55.0" stroke="black" stroke-width="1" fill="none"/>
  <path id="pf__path-15" d="M 220.0 42.5 L 220.0 42.3 L 220.0 42.2 L 220.0 42.0 L 219.9 41.9 L 219.9 41.7 L 219.8 41.6 L 219.8 41.4 L 219.7 41.3 L 219.6 41.2 L 219.5 41.0 L 219.4 40.9 L 219.3 40.8 L 219.2 40.7 L 219.1 40.6 L 219.0 40.5 L 218.8 40.4 L 218.7 40.3 L 218.6 40.2 L 218.4 40.2 L 218.3 40.1 L 218.1 40.1 L 218.0 40.0 L 217.8 40.0 L 217.7 40.0 L 217.5 40.0 L 217.3 40.0 L 217.2 40.0 L 217.0 40.0 L 216.9 40.1 L 216.7 40.1 L 216.6 40.2 L 216.4 40.2 L 216.3 40.3 L 216.2 40.4 L 216.0 40.5 L 215.9 40.6 L 215.8 40.7 L 215.7 40.8 L 215.6 40.9 L 215.5 41.0 L 215.4 41.2 L 215.3 41.3 L 215.2 41.4 L 215.2 41.6 L 215.1 41.7 L 215.1 41.9 L 215.0 42.0 L 215.0 42.2 L 215.0 42.3 L 215.0 42.5 L 215.0 42.7 L 215.0 42.8 L 215.0 43.0 L 215.1 43.1 L 215.1 43.3 L 215.2 43.4 L 215.2 43.6 L 215.3 43.7 L 215.4 43.8 L 215.5 44.0 L 215.6 44.1 L 215.7 44.2 L 215.8 44.3 L 215.9 44.4 L 216.0 44.5 L 216.2 44.6 L 216.3 44.7 L 216.4 44.8 L 216.6 44.8 L 216.7 44.9 L 216.9 44.9 L 217.0 45.0 L 217.2 45.0 L 217.3 45.0 L 217.5 45.0 L 217.7 45.0 L 217.8 45.0 L 218.0 45.0 L 218.1 44.9 L 218.3 44.9 L 218.4 44.8 L 218.6 44.8 L 218.7 44.7 L 218.8 44.6 L 219.0 44.5 L 219.1 44.4 L 219.2 44.3 L 219.3 44.2 L 219.4 44.1 L 219.5 44.0 L 219.6 43.8 L 219.7 43.7 L 219.8 43.6 L 219.8 43.4 L 219.9 43.3 L 219.9 43.1 L 220.0 43.0 L 220.0 42.8 L 220.0 42.7 Z" stroke="black" stroke-width="2" fill="black"/>
  <path id="pf__path-16" d="M 220.0 17.5 L 220.0 17.3 L 220.0 17.2 L 220.0 17.0 L 219.9 16.9 L 219.9 16.7 L 219.8 16.6 L 219.8 16.4 L 219.7 16.3 L 219.6 16.2 L 219.5 16.0 L 219.4 15.9 L 219.3 15.8 L 219.2 15.7 L 219.1 15.6 L 219.0 15.5 L 218.8 15.4 L 218.7 15.3 L 218.6 15.2 L 218.4 15.2 L 218.3 15.1 L 218.1 15.1 L 218.0 15.0 L 217.8 15.0 L 217.7 15.0 L 217.5 15.0 L 217.3 15.0 L 217.2 15.0 L 217.0 15.0 L 216.9 15.1 L 216.7 15.1 L 216.6 15.2 L 216.4 15.2 L 216.3 15.3 L 216.2 15.4 L 216.0 15.5 L 215.9 15.6 L 215.8 15.7 L 215.7 15.8 L 215.6 15.9 L 215.5 16.0 L 215.4 16.2 L 215.3 16.3 L 215.2 16.4 L 215.2 16.6 L 215.1 16.7 L 215.1 16.9 L 215.0 17.0 L 215.0 17.2 L 215.0 17.3 L 215.0 17.5 L 215.0 17.7 L 215.0 17.8 L 215.0 18.0 L 215.1 18.1 L 215.1 18.3 L 215.2 18.4 L 215.2 18.6 L 215.3 18.7 L 215.4 18.8 L 215.5 19.0 L 215.6 19.1 L 215.7 19.2 L 215.8 19.3 L 215.9 19.4 L 216.0 19.5 L 216.2 19.6 L 216.3 19.7 L 216.4 19.8 L 216.6 19.8 L 216.7 19.9 L 216.9 19.9 L 217.0 20.0 L 217.2 20.0 L 217.3 20.0 L 217.5 20.0 L 217.7 20.0 L 217.8 20.0 L 218.0 20.0 L 218.1 19.9 L 218.3 19.9 L 218.4 19.8 L 218.6 19.8 L 218.7 19.7 L 218.8 19.6 L 219.0 19.5 L 219.1 19.4 L 219.2 19.3 L 219.3 19.2 L 219.4 19.1 L 219.5 19.0 L 219.6 18.8 L 219.7 18.7 L 219.8 18.6 L 219.8 18.4 L 219.9 18.3 L 219.9 18.1 L 220.0 18.0 L 220.0 17.8 L 220.0 17.7 Z" stroke="black" stroke-width="2" fill="black"/>
  <path id="pf__path-17" d="M 245.0 42.5 L 245.0 42.3 L 245.0 42.2 L 245.0 42.0 L 244.9 41.9 L 244.9 41.7 L 244.8 41.6 L 244.8 41.4 L 244.7 41.3 L 244.6 41.2 L 244.5 41.0 L 244.4 40.9 L 244.3 40.8 L 244.2 40.7 L 244.1 40.6 L 244.0 40.5 L 243.8 40.4 L 243.7 40.3 L 243.6 40.2 L 243.4 40.2 L 243.3 40.1 L 243.1 40.1 L 243.0 40.0 L 242.8 40.0 L 242.7 40.0 L 242.5 40.0 L 242.3 40.0 L 242.2 40.0 L 242.0 40.0 L 241.9 40.1 L 241.7 40.1 L 241.6 40.2 L 241.4 40.2 L 241.3 40.3 L 241.2 40.4 L 241.0 40.5 L 240.9 40.6 L 240.8 40.7 L 240.7 40.8 L 240.6 40.9 L 240.5 41.0 L 240.4 41.2 L 240.3 41.3 L 240.2 41.4 L 240.2 41.6 L 240.1 41.7 L 240.1 41.9 L 240.0 42.0 L 240.0 42.2 L 240.0 42.3 L 240.0 42.5 L 240.0 42.7 L 240.0 42.8 L 240.0 43.0 L 240.1 43.1 L 240.1 43.3 L 240.2 43.4 L 240.2 43.6 L 240.3 43.7 L 240.4 43.8 L 240.5 44.0 L 240.6 44.1 L 240.7 44.2 L 240.8 44.3 L 240.9 44.4 L 241.0 44.5 L 241.2 44.6 L 241.3 44.7 L 241.4 44.8 L 241.6 44.8 L 241.7 44.9 L 241.9 44.9 L 242.0 45.0 L 242.2 45.0 L 242.3 45.0 L 242.5 45.0 L 242.7 45.0 L 242.8 45.0 L 243.0 45.0 L 243.1 44.9 L 243.3 44.9 L 243.4 44.8 L 243.6 44.8 L 243.7 44.7 L 243.8 44.6 L 244.0 44.5 L 244.1 44.4 L 244.2 44.3 L 244.3 44.2 L 244.4 44.1 L 244.5 44.0 L 244.6 43.8 L 244.7 43.7 L 244.8 43.6 L 244.8 43.4 L 244.9 43.3 L 244.9 43.1 L 245.0 43.0 L 245.0 42.8 L 245.0 42.7 Z" stroke="black" stroke-width="2" fill="black"/>
  <path id="pf__path-18" d="M 245.0 17.5 L 245.0 17.3 L 245.0 17.2 L 245.0 17.0 L 244.9 16.9 L 244.9 16.7 L 244.8 16.6 L 244.8 16.4 L 244.7 16.3 L 244.6 16.2 L 244.5 16.0 L 244.4 15.9 L 244.3 15.8 L 244.2 15.7 L 244.1 15.6 L 244.0 15.5 L 243.8 15.4 L 243.7 15.3 L 243.6 15.2 L 243.4 15.2 L 243.3 15.1 L 243.1 15.1 L 243.0 15.0 L 242.8 15.0 L 242.7 15.0 L 242.5 15.0 L 242.3 15.0 L 242.2 15.0 L 242.0 15.0 L 241.9 15.1 L 241.7 15.1 L 241.6 15.2 L 241.4 15.2 L 241.3 15.3 L 241.2 15.4 L 241.0 15.5 L 240.9 15.6 L 240.8 15.7 L 240.7 15.8 L 240.6 15.9 L 240.5 16.0 L 240.4 16.2 L 240.3 16.3 L 240.2 16.4 L 240.2 16.6 L 240.1 16.7 L 240.1 16.9 L 240.0 17.0 L 240.0 17.2 L 240.0 17.3 L 240.0 17.5 L 240.0 17.7 L 240.0 17.8 L 240.0 18.0 L 240.1 18.1 L 240.1 18.3 L 240.2 18.4 L 240.2 18.6 L 240.3 18.7 L 240.4 18.8 L 240.5 19.0 L 240.6 19.1 L 240.7 19.2 L 240.8 19.3 L 240.9 19.4 L 241.0 19.5 L 241.2 19.6 L 241.3 19.7 L 241.4 19.8 L 241.6 19.8 L 241.7 19.9 L 241.9 19.9 L 242.0 20.0 L 242.2 20.0 L 242.3 20.0 L 242.5 20.0 L 242.7 20.0 L 242.8 20.0 L 243.0 20.0 L 243.1 19.9 L 243.3 19.9 L 243.4 19.8 L 243.6 19.8 L 243.7 19.7 L 243.8 19.6 L 244.0 19.5 L 244.1 19.4 L 244.2 19.3 L 244.3 19.2 L 244.4 19.1 L 244.5 19.0 L 244.6 18.8 L 244.7 18.7 L 244.8 18.6 L 244.8 18.4 L 244.9 18.3 L 244.9 18.1 L 245.0 18.0 L 245.0 17.8 L 245.0 17.7 Z" stroke="black" stroke-width="2" fill="black"/>
  <path id="pf__path-19" d="M 232.5 30.0 L 232.5 29.8 L 232.5 29.7 L 232.5 29.5 L 232.4 29.4 L 232.4 29.2 L 232.3 29.1 L 232.3 28.9 L 232.2 28.8 L 232.1 28.7 L 232.0 28.5 L 231.9 28.4 L 231.8 28.3 L 231.7 28.2 L 231.6 28.1 L 231.5 28.0 L 231.3 27.9 L 231.2 27.8 L 231.1 27.7 L 230.9 27.7 L 230.8 27.6 L 230.6 27.6 L 230.5 27.5 L 230.3 27.5 L 230.2 27.5 L 230.0 27.5 L 229.8 27.5 L 229.7 27.5 L 229.5 27.5 L 229.4 27.6 L 229.2 27.6 L 229.1 27.7 L 228.9 27.7 L 228.8 27.8 L 228.7 27.9 L 228.5 28.0 L 228.4 28.1 L 228.3 28.2 L 228.2 28.3 L 228.1 28.4 L 228.0 28.5 L 227.9 28.7 L 227.8 28.8 L 227.7 28.9 L 227.7 29.1 L 227.6 29.2 L 227.6 29.4 L 227.5 29.5 L 227.5 29.7 L 227.5 29.8 L 227.5 30.0 L 227.5 30.2 L 227.5 30.3 L 227.5 30.5 L 227.6 30.6 L 227.6 30.8 L 227.7 30.9 L 227.7 31.1 L 227.8 31.2 L 227.9 31.3 L 228.0 31.5 L 228.1 31.6 L 228.2 31.7 L 228.3 31.8 L 228.4 31.9 L 228.5 32.0 L 228.7 32.1 L 228.8 32.2 L 228.9 32.3 L 229.1 32.3 L 229.2 32.4 L 229.4 32.4 L 229.5 32.5 L 229.7 32.5 L 229.8 32.5 L 230.0 32.5 L 230.2 32.5 L 230.3 32.5 L 230.5 32.5 L 230.6 32.4 L 230.8 32.4 L 230.9 32.3 L 231.1 32.3 L 231.2 32.2 L 231.3 32.1 L 231.5 32.0 L 231.6 31.9 L 231.7 31.8 L 231.8 31.7 L 231.9 31.6 L 232.0 31.5 L 232.1 31.3 L 232.2 31.2 L 232.3 31.1 L 232.3 30.9 L 232.4 30.8 L 232.4 30.6 L 232.5 30.5 L 232.5 30.3 L 232.5 30.2 Z" stroke="black" stroke-width="2" fill="black"/>
  <path id="pf__path-20" d="M 220.0 92.5 L 220.0 92.3 L 220.0 92.2 L 220.0 92.0 L 219.9 91.9 L 219.9 91.7 L 219.8 91.6 L 219.8 91.4 L 219.7 91.3 L 219.6 91.2 L 219.5 91.0 L 219.4 90.9 L 219.3 90.8 L 219.2 90.7 L 219.1 90.6 L 219.0 90.5 L 218.8 90.4 L 218.7 90.3 L 218.6 90.2 L 218.4 90.2 L 218.3 90.1 L 218.1 90.1 L 218.0 90.0 L 217.8 90.0 L 217.7 90.0 L 217.5 90.0 L 217.3 90.0 L 217.2 90.0 L 217.0 90.0 L 216.9 90.1 L 216.7 90.1 L 216.6 90.2 L 216.4 90.2 L 216.3 90.3 L 216.2 90.4 L 216.0 90.5 L 215.9 90.6 L 215.8 90.7 L 215.7 90.8 L 215.6 90.9 L 215.5 91.0 L 215.4 91.2 L 215.3 91.3 L 215.2 91.4 L 215.2 91.6 L 215.1 91.7 L 215.1 91.9 L 215.0 92.0 L 215.0 92.2 L 215.0 92.3 L 215.0 92.5 L 215.0 92.7 L 215.0 92.8 L 215.0 93.0 L 215.1 93.1 L 215.1 93.3 L 215.2 93.4 L 215.2 93.6 L 215.3 93.7 L 215.4 93.8 L 215.5 94.0 L 215.6 94.1 L 215.7 94.2 L 215.8 94.3 L 215.9 94.4 L 216.0 94.5 L 216.2 94.6 L 216.3 94.7 L 216.4 94.8 L 216.6 94.8 L 216.7 94.9 L 216.9 94.9 L 217.0 95.0 L 217.2 95.0 L 217.3 95.0 L 217.5 95.0 L 217.7 95.0 L 217.8 95.0 L 218.0 95.0 L 218.1 94.9 L 218.3 94.9 L 218.4 94.8 L 218.6 94.8 L 218.7 94.7 L 218.8 94.6 L 219.0 94.5 L 219.1 94.4 L 219.2 94.3 L 219.3 94.2 L 219.4 94.1 L 219.5 94.0 L 219.6 93.8 L 219.7 93.7 L 219.8 93.6 L 219.8 93.4 L 219.9 93.3 L 219.9 93.1 L 220.0 93.0 L 220.0 92.8 L 220.0 92.7 Z" stroke="black" stroke-width="2" fill="black"/>
  <path id="pf__path-21" d="M 220.0 67.5 L 220.0 67.3 L 220.0 67.2 L 220.0 67.0 L 219.9 66.9 L 219.9 66.7 L 219.8 66.6 L 219.8 66.4 L 219.7 66.3 L 219.6 66.2 L 219.5 66.0 L 219.4 65.9 L 219.3 65.8 L 219.2 65.7 L 219.1 65.6 L 219.0 65.5 L 218.8 65.4 L 218.7 65.3 L 218.6 65.2 L 218.4 65.2 L 218.3 65.1 L 218.1 65.1 L 218.0 65.0 L 217.8 65.0 L 217.7 65.0 L 217.5 65.0 L 217.3 65.0 L 217.2 65.0 L 217.0 65.0 L 216.9 65.1 L 216.7 65.1 L 216.6 65.2 L 216.4 65.2 L 216.3 65.3 L 216.2 65.4 L 216.0 65.5 L 215.9 65.6 L 215.8 65.7 L 215.7 65.8 L 215.6 65.9 L 215.5 66.0 L 215.4 66.2 L 215.3 66.3 L 215.2 66.4 L 215.2 66.6 L 215.1 66.7 L 215.1 66.9 L 215.0 67.0 L 215.0 67.2 L 215.0 67.3 L 215.0 67.5 L 215.0 67.7 L 215.0 67.8 L 215.0 68.0 L 215.1 68.1 L 215.1 68.3 L 215.2 68.4 L 215.2 68.6 L 215.3 68.7 L 215.4 68.8 L 215.5 69.0 L 215.6 69.1 L 215.7 69.2 L 215.8 69.3 L 215.9 69.4 L 216.0 69.5 L 216.2 69.6 L 216.3 69.7 L 216.4 69.8 L 216.6 69.8 L 216.7 69.9 L 216.9 69.9 L 217.0 70.0 L 217.2 70.0 L 217.3 70.0 L 217.5 70.0 L 217.7 70.0 L 217.8 70.0 L 218.0 70.0 L 218.1 69.9 L 218.3 69.9 L 218.4 69.8 L 218.6 69.8 L 218.7 69.7 L 218.8 69.6 L 219.0 69.5 L 219.1 69.4 L 219.2 69.3 L 219.3 69.2 L 219.4 69.1 L 219.5 69.0 L 219.6 68.8 L 219.7 68.7 L 219.8 68.6 L 219.8 68.4 L 219.9 68.3 L 219.9 68.1 L 220.0 68.0 L 220.0 67.8 L 220.0 67.7 Z" stroke="black" stroke-width="2" fill="black"/>
  <path id="pf__path-22" d="M 245.0 92.5 L 245.0 92.3 L 245.0 92.2 L 245.0 92.0 L 244.9 91.9 L 244.9 91.7 L 244.8 91.6 L 244.8 91.4 L 244.7 91.3 L 244.6 91.2 L 244.5 91.0 L 244.4 90.9 L 244.3 90.8 L 244.2 90.7 L 244.1 90.6 L 244.0 90.5 L 243.8 90.4 L 243.7 90.3 L 243.6 90.2 L 243.4 90.2 L 243.3 90.1 L 243.1 90.1 L 243.0 90.0 L 242.8 90.0 L 242.7 90.0 L 242.5 90.0 L 242.3 90.0 L 242.2 90.0 L 242.0 90.0 L 241.9 90.1 L 241.7 90.1 L 241.6 90.2 L 241.4 90.2 L 241.3 90.3 L 241.2 90.4 L 241.0 90.5 L 240.9 90.6 L 240.8 90.7 L 240.7 90.8 L 240.6 90.9 L 240.5 91.0 L 240.4 91.2 L 240.3 91.3 L 240.2 91.4 L 240.2 91.6 L 240.1 91.7 L 240.1 91.9 L 240.0 92.0 L 240.0 92.2 L 240.0 92.3 L 240.0 92.5 L 240.0 92.7 L 240.0 92.8 L 240.0 93.0 L 240.1 93.1 L 240.1 93.3 L 240.2 93.4 L 240.2 93.6 L 240.3 93.7 L 240.4 93.8 L 240.5 94.0 L 240.6 94.1 L 240.7 94.2 L 240.8 94.3 L 240.9 94.4 L 241.0 94.5 L 241.2 94.6 L 241.3 94.7 L 241.4 94.8 L 241.6 94.8 L 241.7 94.9 L 241.9 94.9 L 242.0 95.0 L 242.2 95.0 L 242.3 95.0 L 242.5 95.0 L 242.7 95.0 L 242.8 95.0 L 243.0 95.0 L 243.1 94.9 L 243.3 94.9 L 243.4 94.8 L 243.6 94.8 L 243.7 94.7 L 243.8 94.6 L 244.0 94.5 L 244.1 94.4 L 244.2 94.3 L 244.3 94.2 L 244.4 94.1 L 244.5 94.0 L 244.6 93.8 L 244.7 93.7 L 244.8 93.6 L 244.8 93.4 L 244.9 93.3 L 244.9 93.1 L 245.0 93.0 L 245.0 92.8 L 245.0 92.7 Z" stroke="black" stroke-width="2" fill="black"/>
  <path id="pf__path-23" d="M 245.0 67.5 L 245.0 67.3 L 245.0 67.2 L 245.0 67.0 L 244.9 66.9 L 244.9 66.7 L 244.8 66.6 L 244.8 66.4 L 244.7 66.3 L 244.6 66.2 L 244.5 66.0 L 244.4 65.9 L 244.3 65.8 L 244.2 65.7 L 244.1 65.6 L 244.0 65.5 L 243.8 65.4 L 243.7 65.3 L 243.6 65.2 L 243.4 65.2 L 243.3 65.1 L 243.1 65.1 L 243.0 65.0 L 242.8 65.0 L 242.7 65.0 L 242.5 65.0 L 242.3 65.0 L 242.2 65.0 L 242.0 65.0 L 241.9 65.1 L 241.7 65.1 L 241.6 65.2 L 241.4 65.2 L 241.3 65.3 L 241.2 65.4 L 241.0 65.5 L 240.9 65.6 L 240.8 65.7 L 240.7 65.8 L 240.6 65.9 L 240.5 66.0 L 240.4 66.2 L 240.3 66.3 L 240.2 66.4 L 240.2 66.6 L 240.1 66.7 L 240.1 66.9 L 240.0 67.0 L 240.0 67.2 L 240.0 67.3 L 240.0 67.5 L 240.0 67.7 L 240.0 67.8 L 240.0 68.0 L 240.1 68.1 L 240.1 68.3 L 240.2 68.4 L 240.2 68.6 L 240.3 68.7 L 240.4 68.8 L 240.5 69.0 L 240.6 69.1 L 240.7 69.2 L 240.8 69.3 L 240.9 69.4 L 241.0 69.5 L 241.2 69.6 L 241.3 69.7 L 241.4 69.8 L 241.6 69.8 L 241.7 69.9 L 241.9 69.9 L 242.0 70.0 L 242.2 70.0 L 242.3 70.0 L 242.5 70.0 L 242.7 70.0 L 242.8 70.0 L 243.0 70.0 L 243.1 69.9 L 243.3 69.9 L 243.4 69.8 L 243.6 69.8 L 243.7 69.7 L 243.8 69.6 L 244.0 69.5 L 244.1 69.4 L 244.2 69.3 L 244.3 69.2 L 244.4 69.1 L 244.5 69.0 L 244.6 68.8 L 244.7 68.7 L 244.8 68.6 L 244.8 68.4 L 244.9 68.3 L 244.9 68.1 L 245.0 68.0 L 245.0 67.8 L 245.0 67.7 Z" stroke="black" stroke-width="2" fill="black"/>
  <path id="pf__path-24" d="M 232.5 80.0 L 232.5 79.8 L 232.5 79.7 L 232.5 79.5 L 232.4 79.4 L 232.4 79.2 L 232.3 79.1 L 232.3 78.9 L 232.2 78.8 L 232.1 78.7 L 232.0 78.5 L 231.9 78.4 L 231.8 78.3 L 231.7 78.2 L 231.6 78.1 L 231.5 78.0 L 231.3 77.9 L 231.2 77.8 L 231.1 77.7 L 230.9 77.7 L 230.8 77.6 L 230.6 77.6 L 230.5 77.5 L 230.3 77.5 L 230.2 77.5 L 230.0 77.5 L 229.8 77.5 L 229.7 77.5 L 229.5 77.5 L 229.4 77.6 L 229.2 77.6 L 229.1 77.7 L 228.9 77.7 L 228.8 77.8 L 228.7 77.9 L 228.5 78.0 L 228.4 78.1 L 228.3 78.2 L 228.2 78.3 L 228.1 78.4 L 228.0 78.5 L 227.9 78.7 L 227.8 78.8 L 227.7 78.9 L 227.7 79.1 L 227.6 79.2 L 227.6 79.4 L 227.5 79.5 L 227.5 79.7 L 227.5 79.8 L 227.5 80.0 L 227.5 80.2 L 227.5 80.3 L 227.5 80.5 L 227.6 80.6 L 227.6 80.8 L 227.7 80.9 L 227.7 81.1 L 227.8 81.2 L 227.9 81.3 L 228.0 81.5 L 228.1 81.6 L 228.2 81.7 L 228.3 81.8 L 228.4 81.9 L 228.5 82.0 L 228.7 82.1 L 228.8 82.2 L 228.9 82.3 L 229.1 82.3 L 229.2 82.4 L 229.4 82.4 L 229.5 82.5 L 229.7 82.5 L 229.8 82.5 L 230.0 82.5 L 230.2 82.5 L 230.3 82.5 L 230.5 82.5 L 230.6 82.4 L 230.8 82.4 L 230.9 82.3 L 231.1 82.3 L 231.2 82.2 L 231.3 82.1 L 231.5 82.0 L 231.6 81.9 L 231.7 81.8 L 231.8 81.7 L 231.9 81.6 L 232.0 81.5 L 232.1 81.3 L 232.2 81.2 L 232.3 81.1 L 232.3 80.9 L 232.4 80.8 L 232.4 80.6 L 232.5 80.5 L 232.5 80.3 L 232.5 80.2 Z" stroke="black" stroke-width="2" fill="black"/>
  <path id="pf__path-25" d="M 305.0 105.0 L 355.0 105.0 L 355.0 5.0 L 305.0 5.0 Z" stroke="black" stroke-width="1" fill="none"/>
  <line id="pf__line-3" x1="305.0" y1="55.0" x2="355.0" y2="55.0" stroke="black" stroke-width="1" fill="none"/>
  <path id="pf__path-26" d="M 320.0 42.5 L 320.0 42.3 L 320.0 42.2 L 320.0 42.0 L 319.9 41.9 L 319.9 41.7 L 319.8 41.6 L 319.8 41.4 L 319.7 41.3 L 319.6 41.2 L 319.5 41.0 L 319.4 40.9 L 319.3 40.8 L 319.2 40.7 L 319.1 40.6 L 319.0 40.5 L 318.8 40.4 L 318.7 40.3 L 318.6 40.2 L 318.4 40.2 L 318.3 40.1 L 318.1 40.1 L 318.0 40.0 L 317.8 40.0 L 317.7 40.0 L 317.5 40.0 L 317.3 40.0 L 317.2 40.0 L 317.0 40.0 L 316.9 40.1 L 316.7 40.1 L 316.6 40.2 L 316.4 40.2 L 316.3 40.3 L 316.2 40.4 L 316.0 40.5 L 315.9 40.6 L 315.8 40.7 L 315.7 40.8 L 315.6 40.9 L 315.5 41.0 L 315.4 41.2 L 315.3 41.3 L 315.2 41.4 L 315.2 41.6 L 315.1 41.7 L 315.1 41.9 L 315.0 42.0 L 315.0 42.2 L 315.0 42.3 L 315.0 42.5 L 315.0 42.7 L 315.0 42.8 L 315.0 43.0 L 315.1 43.1 L 315.1 43.3 L 315.2 43.4 L 315.2 43.6 L 315.3 43.7 L 315.4 43.8 L 315.5 44.0 L 315.6 44.1 L 315.7 44.2 L 315.8 44.3 L 315.9 44.4 L 316.0 44.5 L 316.2 44.6 L 316.3 44.7 L 316.4 44.8 L 316.6 44.8 L 316.7 44.9 L 316.9 44.9 L 317.0 45.0 L 317.2 45.0 L 317.3 45.0 L 317.5 45.0 L 317.7 45.0 L 317.8 45.0 L 318.0 45.0 L 318.1 44.9 L 318.3 44.9 L 318.4 44.8 L 318.6 44.8 L 318.7 44.7 L 318.8 44.6 L 319.0 44.5 L 319.1 44.4 L 319.2 44.3 L 319.3 44.2 L 319.4 44.1 L 319.5 44.0 L 319.6 43.8 L 319.7 43.7 L 319.8 43.6 L 319.8 43.4 L 319.9 43.3 L 319.9 43.1 L 320.0 43.0 L 320.0 42.8 L 320.0 42.7 Z" stroke="black" stroke-width="2" fill="black"/>
  <path id="pf__path-27" d="M 332.5 30.0 L 332.5 29.8 L 332.5 29.7 L 332.5 29.5 L 332.4 29.4 L 332.4 29.2 L 332.3 29.1 L 332.3 28.9 L 332.2 28.8 L 332.1 28.7 L 332.0 28.5 L 331.9 28.4 L 331.8 28.3 L 331.7 28.2 L 331.6 28.1 L 331.5 28.0 L 331.3 27.9 L 331.2 27.8 L 331.1 27.7 L 330.9 27.7 L 330.8 27.6 L 330.6 27.6 L 330.5 27.5 L 330.3 27.5 L 330.2 27.5 L 330.0 27.5 L 329.8 27.5 L 329.7 27.5 L 329.5 27.5 L 329.4 27.6 L 329.2 27.6 L 329.1 27.7 L 328.9 27.7 L 328.8 27.8 L 328.7 27.9 L 328.5 28.0 L 328.4 28.1 L 328.3 28.2 L 328.2 28.3 L 328.1 28.4 L 328.0 28.5 L 327.9 28.7 L 327.8 28.8 L 327.7 28.9 L 327.7 29.1 L 327.6 29.2 L 327.6 29.4 L 327.5 29.5 L 327.5 29.7 L 327.5 29.8 L 327.5 30.0 L 327.5 30.2 L 327.5 30.3 L 327.5 30.5 L 327.6 30.6 L 327.6 30.8 L 327.7 30.9 L 327.7 31.1 L 327.8 31.2 L 327.9 31.3 L 328.0 31.5 L 328.1 31.6 L 328.2 31.7 L 328.3 31.8 L 328.4 31.9 L 328.5 32.0 L 328.7 32.1 L 328.8 32.2 L 328.9 32.3 L 329.1 32.3 L 329.2 32.4 L 329.4 32.4 L 329.5 32.5 L 329.7 32.5 L 329.8 32.5 L 330.0 32.5 L 330.2 32.5 L 330.3 32.5 L 330.5 32.5 L 330.6 32.4 L 330.8 32.4 L 330.9 32.3 L 331.1 32.3 L 331.2 32.2 L 331.3 32.1 L 331.5 32.0 L 331.6 31.9 L 331.7 31.8 L 331.8 31.7 L 331.9 31.6 L 332.0 31.5 L 332.1 31.3 L 332.2 31.2 L 332.3 31.1 L 332.3 30.9 L 332.4 30.8 L 332.4 30.6 L 332.5 30.5 L 332.5 30.3 L 332.5 30.2 Z" stroke="black" stroke-width="2" fill="black"/>
  <path id="pf__path-28" d="M 345.0 17.5 L 345.0 17.3 L 345.0 17.2 L 345.0 17.0 L 344.9 16.9 L 344.9 16.7 L 344.8 16.6 L 344.8 16.4 L 344.7 16.3 L 344.6 16.2 L 344.5 16.0 L 344.4 15.9 L 344.3 15.8 L 344.2 15.7 L 344.1 15.6 L 344.0 15.5 L 343.8 15.4 L 343.7 15.3 L 343.6 15.2 L 343.4 15.2 L 343.3 15.1 L 343.1 15.1 L 343.0 15.0 L 342.8 15.0 L 342.7 15.0 L 342.5 15.0 L 342.3 15.0 L 342.2 15.0 L 342.0 15.0 L 341.9 15.1 L 341.7 15.1 L 341.6 15.2 L 341.4 15.2 L 341.3 15.3 L 341.2 15.4 L 341.0 15.5 L 340.9 15.6 L 340.8 15.7 L 340.7 15.8 L 340.6 15.9 L 340.5 16.0 L 340.4 16.2 L 340.3 16.3 L 340.2 16.4 L 340.2 16.6 L 340.1 16.7 L 340.1 16.9 L 340.0 17.0 L 340.0 17.2 L 340.0 17.3 L 340.0 17.5 L 340.0 17.7 L 340.0 17.8 L 340.0 18.0 L 340.1 18.1 L 340.1 18.3 L 340.2 18.4 L 340.2 18.6 L 340.3 18.7 L 340.4 18.8 L 340.5 19.0 L 340.6 19.1 L 340.7 19.2 L 340.8 19.3 L 340.9 19.4 L 341.0 19.5 L 341.2 19.6 L 341.3 19.7 L 341.4 19.8 L 341.6 19.8 L 341.7 19.9 L 341.9 19.9 L 342.0 20.0 L 342.2 20.0 L 342.3 20.0 L 342.5 20.0 L 342.7 20.0 L 342.8 20.0 L 343.0 20.0 L 343.1 19.9 L 343.3 19.9 L 343.4 19.8 L 343.6 19.8 L 343.7 19.7 L 343.8 19.6 L 344.0 19.5 L 344.1 19.4 L 344.2 19.3 L 344.3 19.2 L 344.4 19.1 L 344.5 19.0 L 344.6 18.8 L 344.7 18.7 L 344.8 18.6 L 344.8 18.4 L 344.9 18.3 L 344.9 18.1 L 345.0 18.0 L 345.0 17.8 L 345.0 17.7 Z" stroke="black" stroke-width="2" fill="black"/>
</svg>
